<svg width="183" height="54" viewBox="0 0 183 54" fill="none" xmlns="http://www.w3.org/2000/svg">
<g clip-path="url(#clip0_289_641)">
<path d="M50.1312 2.58594H22.584V13.8993H50.1312V2.58594Z" fill="url(#paint0_linear_289_641)"/>
<path d="M11.5439 3.07324L22.4768 14.0061V29.1192L11.5784 18.2208L11.5439 3.07324Z" fill="url(#paint1_linear_289_641)"/>
<path d="M0.0898438 7.7959L11.3722 18.028V29.9887L0.294727 18.9112L0.0898438 7.7959Z" fill="url(#paint2_linear_289_641)"/>
<path d="M22.3049 52.414H11.3721V29.9888H44.8007V41.2005H22.3049V52.414Z" fill="url(#paint3_linear_289_641)"/>
</g>
<path d="M59.9 17.8C59.0367 17.8 58.3133 17.5317 57.73 16.995C57.17 16.435 56.89 15.7467 56.89 14.93C56.89 14.1133 57.17 13.4367 57.73 12.9C58.3133 12.34 59.0367 12.06 59.9 12.06C60.7633 12.06 61.475 12.34 62.035 12.9C62.6183 13.4367 62.91 14.1133 62.91 14.93C62.91 15.7467 62.6183 16.435 62.035 16.995C61.475 17.5317 60.7633 17.8 59.9 17.8ZM62.315 20.11V39.5H57.415V20.11H62.315ZM77.9012 19.83C80.2112 19.83 82.0779 20.565 83.5012 22.035C84.9245 23.4817 85.6362 25.5117 85.6362 28.125V39.5H80.7362V28.79C80.7362 27.25 80.3512 26.0717 79.5812 25.255C78.8112 24.415 77.7612 23.995 76.4312 23.995C75.0779 23.995 74.0045 24.415 73.2112 25.255C72.4412 26.0717 72.0562 27.25 72.0562 28.79V39.5H67.1562V20.11H72.0562V22.525C72.7095 21.685 73.5379 21.0317 74.5412 20.565C75.5679 20.075 76.6879 19.83 77.9012 19.83ZM96.0009 24.135V33.515C96.0009 34.1683 96.1525 34.6467 96.4559 34.95C96.7825 35.23 97.3192 35.37 98.0659 35.37H100.341V39.5H97.2609C93.1309 39.5 91.0659 37.4933 91.0659 33.48V24.135H88.7559V20.11H91.0659V15.315H96.0009V20.11H100.341V24.135H96.0009ZM121.89 29.385C121.89 30.085 121.844 30.715 121.75 31.275H107.575C107.692 32.675 108.182 33.7717 109.045 34.565C109.909 35.3583 110.97 35.755 112.23 35.755C114.05 35.755 115.345 34.9733 116.115 33.41H121.4C120.84 35.2767 119.767 36.8167 118.18 38.03C116.594 39.22 114.645 39.815 112.335 39.815C110.469 39.815 108.789 39.4067 107.295 38.59C105.825 37.75 104.67 36.5717 103.83 35.055C103.014 33.5383 102.605 31.7883 102.605 29.805C102.605 27.7983 103.014 26.0367 103.83 24.52C104.647 23.0033 105.79 21.8367 107.26 21.02C108.73 20.2033 110.422 19.795 112.335 19.795C114.179 19.795 115.824 20.1917 117.27 20.985C118.74 21.7783 119.872 22.91 120.665 24.38C121.482 25.8267 121.89 27.495 121.89 29.385ZM116.815 27.985C116.792 26.725 116.337 25.7217 115.45 24.975C114.564 24.205 113.479 23.82 112.195 23.82C110.982 23.82 109.955 24.1933 109.115 24.94C108.299 25.6633 107.797 26.6783 107.61 27.985H116.815ZM143.492 29.385C143.492 30.085 143.445 30.715 143.352 31.275H129.177C129.293 32.675 129.783 33.7717 130.647 34.565C131.51 35.3583 132.572 35.755 133.832 35.755C135.652 35.755 136.947 34.9733 137.717 33.41H143.002C142.442 35.2767 141.368 36.8167 139.782 38.03C138.195 39.22 136.247 39.815 133.937 39.815C132.07 39.815 130.39 39.4067 128.897 38.59C127.427 37.75 126.272 36.5717 125.432 35.055C124.615 33.5383 124.207 31.7883 124.207 29.805C124.207 27.7983 124.615 26.0367 125.432 24.52C126.248 23.0033 127.392 21.8367 128.862 21.02C130.332 20.2033 132.023 19.795 133.937 19.795C135.78 19.795 137.425 20.1917 138.872 20.985C140.342 21.7783 141.473 22.91 142.267 24.38C143.083 25.8267 143.492 27.495 143.492 29.385ZM138.417 27.985C138.393 26.725 137.938 25.7217 137.052 24.975C136.165 24.205 135.08 23.82 133.797 23.82C132.583 23.82 131.557 24.1933 130.717 24.94C129.9 25.6633 129.398 26.6783 129.212 27.985H138.417ZM151.548 35.475H160.193V39.5H145.983V35.545L154.453 24.135H146.018V20.11H160.088V24.065L151.548 35.475ZM182.537 20.11L170.532 48.67H165.317L169.517 39.01L161.747 20.11H167.242L172.247 33.655L177.322 20.11H182.537Z" fill="white"/>
<defs>
<linearGradient id="paint0_linear_289_641" x1="32.0116" y1="10.5591" x2="45.373" y2="17.5041" gradientUnits="userSpaceOnUse">
<stop stop-color="#836DD6"/>
<stop offset="1" stop-color="#FFA37B"/>
</linearGradient>
<linearGradient id="paint1_linear_289_641" x1="15.2855" y1="21.4294" x2="21.9674" y2="22.0281" gradientUnits="userSpaceOnUse">
<stop stop-color="#836DD6"/>
<stop offset="1" stop-color="#FFA37B"/>
</linearGradient>
<linearGradient id="paint2_linear_289_641" x1="3.95103" y1="23.4365" x2="10.8209" y2="24.1821" gradientUnits="userSpaceOnUse">
<stop stop-color="#836DD6"/>
<stop offset="1" stop-color="#FFA37B"/>
</linearGradient>
<linearGradient id="paint3_linear_289_641" x1="22.8124" y1="45.7932" x2="41.5135" y2="51.7441" gradientUnits="userSpaceOnUse">
<stop stop-color="#836DD6"/>
<stop offset="1" stop-color="#FFA37B"/>
</linearGradient>
<clipPath id="clip0_289_641">
<rect width="50.2169" height="50" fill="white" transform="translate(0 2.5)"/>
</clipPath>
</defs>
</svg>
