<svg xmlns="http://www.w3.org/2000/svg" xmlns:xlink="http://www.w3.org/1999/xlink" xmlns:xodm="http://www.corel.com/coreldraw/odm/2003" xml:space="preserve" version="1.1" style="shape-rendering:geometricPrecision; text-rendering:geometricPrecision; image-rendering:optimizeQuality; fill-rule:evenodd; clip-rule:evenodd" viewBox="0 0 956.54 507.82">
 <defs>
  <style type="text/css">
   <![CDATA[
    .fil1 {fill:url(#id0)}
    .fil3 {fill:url(#id1)}
    .fil0 {fill:url(#id2)}
    .fil2 {fill:url(#id3);fill-rule:nonzero}
   ]]>
  </style>
  <linearGradient id="id0" gradientUnits="userSpaceOnUse" x1="9.97" y1="106.09" x2="490.49" y2="510.66">
   <stop offset="0" style="stop-opacity:1; stop-color:#E1931C"/>
   <stop offset="0.141176" style="stop-opacity:1; stop-color:#FCF5B5"/>
   <stop offset="0.219608" style="stop-opacity:1; stop-color:#E5B248"/>
   <stop offset="0.34902" style="stop-opacity:1; stop-color:#FCF2AD"/>
   <stop offset="0.501961" style="stop-opacity:1; stop-color:#E5B248"/>
   <stop offset="0.639216" style="stop-opacity:1; stop-color:#FCF5B5"/>
   <stop offset="0.819608" style="stop-opacity:1; stop-color:#E5B54D"/>
   <stop offset="1" style="stop-opacity:1; stop-color:#FCF3B1"/>
  </linearGradient>
  <linearGradient id="id1" gradientUnits="userSpaceOnUse" xlink:href="#id0" x1="363.85" y1="210.4" x2="953.42" y2="264.59">
  </linearGradient>
  <linearGradient id="id2" gradientUnits="userSpaceOnUse" xlink:href="#id0" x1="59.25" y1="144.16" x2="439.66" y2="444.52">
  </linearGradient>
  <linearGradient id="id3" gradientUnits="userSpaceOnUse" xlink:href="#id0" x1="417.53" y1="288.7" x2="898.04" y2="311.78">
  </linearGradient>
 </defs>
 <g id="__x0023_Layer_x0020_1">
  <metadata id="CorelCorpID_0Corel-Layer"/>
  <g id="_1441033314576">
   <path class="fil0" d="M223.74 232.62c-11.71,7.19 -13.81,19.29 -13.81,32.83l0 91.12c3.54,0 7.07,0 10.61,0 37.72,-0.84 65.06,-18.01 74.29,-63.72 4.39,-21.78 3.4,-40.37 -2.98,-61.79 -10.19,-34.2 -32.29,-54.78 -63.78,-64.61 -22.94,-7.16 -45.49,-8.44 -68.83,-2.34 -18.45,4.83 -34.81,13.82 -47.99,25.99l0 3.03c0,14.47 0,28.94 0,43.41 9.5,0 18.99,0 28.49,0 13.62,0 28.11,-7.16 33.35,-21.02l0 17.11 50.65 0zm-137.44 -11.19c-5.22,8.66 -9.36,18.03 -12.45,28.09 -7.27,23.7 -8.57,48.28 -3.66,72.57 1.38,6.84 3.2,13.61 5.35,20.34 7.21,-3.53 10.77,-13.62 10.77,-27.95l0 -93.05zm-9.99 123.39c15.41,37.16 44.23,63.01 85.15,64.75 2.79,0.11 5.63,0.19 5.34,2.35 -0.98,1.38 -3.8,1.73 -5.88,1.71 -43.94,0 -90.98,-32.19 -105.5,-94.02 -5.35,-22.8 -5.66,-46.54 0.55,-69.23 4.09,-14.97 12.31,-31.47 30.34,-51.61l0 -31.22c0,-13.56 -1.84,-27.83 -14.6,-32.49 5.47,-0.09 11.7,-0.94 17.83,-0.87 11.03,0.13 22.39,0.26 32.02,-0.27 61.9,0.84 126.79,-39.43 179.34,-58.88 50.63,-18.74 100.61,-10.56 140.78,27.93 -0.6,1 -1.74,1 -3.11,0.41 -41.49,-31.99 -88.45,-28.31 -135.57,-13.55 -54.36,17.01 -116.52,47.76 -191.74,48.98l0 39.42c14.88,-8.93 30.68,-15.16 47.41,-18.68 22.42,-4.7 48.05,-4.5 70.45,0.15 42.77,8.88 73.59,34.07 86.79,70.27 7.91,21.7 9.25,44.39 2.71,66.58 -13.3,45.05 -54.69,63.31 -98.86,63.47 -3.27,0 -6.55,0 -9.82,0l0 44.19c0,13.54 0.46,32.36 13.39,38.19l-13.39 0 -12.47 0 -12.47 0 -13.39 0c12.73,-5.74 13.37,-24.07 13.39,-37.55l0 -139.4c0,-13.75 -1.11,-25.6 -11.89,-31.72l0 26.36c-5.24,-14.18 -19.74,-19.59 -33.35,-19.59 -9.5,0 -18.99,0 -28.49,0 0,22.35 0,44.71 0,67.07 0,20.53 2.81,32.48 14.13,37.27 -16.35,0 -32.71,0 -49.06,0z"/>
   <path class="fil1" d="M253.9 0c110.23,0 204.04,70.26 239.14,168.43l-0.84 0c-34.94,-92.23 -124.77,-157.88 -230.09,-157.88 -135.69,0 -245.69,108.96 -245.69,243.36 0,134.4 110,243.36 245.69,243.36 105.32,0 195.15,-65.65 230.09,-157.88l0.84 0c-35.1,98.17 -128.91,168.43 -239.14,168.43 -140.23,0 -253.9,-113.68 -253.9,-253.9 0,-140.22 113.68,-253.9 253.9,-253.9z"/>
   <path class="fil2" d="M415.84 311.11l0 -23.22 -8.28 0 0 -4.72 22.17 0 0 4.72 -8.24 0 0 23.22 -5.66 0zm17.56 0l0 -27.95 11.88 0c2.99,0 5.16,0.25 6.51,0.75 1.36,0.5 2.44,1.39 3.25,2.67 0.81,1.29 1.22,2.75 1.22,4.4 0,2.1 -0.61,3.83 -1.84,5.2 -1.23,1.37 -3.06,2.22 -5.51,2.58 1.22,0.71 2.22,1.49 3.01,2.34 0.79,0.85 1.86,2.37 3.2,4.54l3.41 5.45 -6.74 0 -4.05 -6.1c-1.45,-2.17 -2.45,-3.53 -2.99,-4.1 -0.53,-0.56 -1.1,-0.95 -1.7,-1.16 -0.6,-0.21 -1.56,-0.31 -2.86,-0.31l-1.14 0 0 11.67 -5.66 0zm5.66 -16.12l4.18 0c2.71,0 4.39,-0.12 5.07,-0.35 0.67,-0.23 1.2,-0.62 1.58,-1.18 0.38,-0.56 0.57,-1.26 0.57,-2.1 0,-0.94 -0.26,-1.7 -0.75,-2.28 -0.5,-0.58 -1.21,-0.94 -2.12,-1.09 -0.46,-0.06 -1.83,-0.1 -4.12,-0.1l-4.4 0 0 7.1zm22.53 -11.83l5.66 0 0 15.15c0,2.41 0.07,3.96 0.21,4.67 0.24,1.14 0.81,2.07 1.71,2.76 0.9,0.7 2.13,1.04 3.7,1.04 1.58,0 2.78,-0.33 3.58,-0.98 0.81,-0.66 1.29,-1.46 1.45,-2.41 0.16,-0.96 0.25,-2.54 0.25,-4.75l0 -15.47 5.66 0 0 14.7c0,3.36 -0.15,5.73 -0.45,7.12 -0.31,1.39 -0.87,2.56 -1.68,3.51 -0.81,0.96 -1.9,1.71 -3.27,2.28 -1.37,0.57 -3.16,0.85 -5.36,0.85 -2.66,0 -4.68,-0.31 -6.05,-0.92 -1.37,-0.62 -2.46,-1.42 -3.26,-2.41 -0.8,-0.99 -1.32,-2.02 -1.57,-3.1 -0.37,-1.6 -0.55,-3.97 -0.55,-7.1l0 -14.92zm26.7 18.89l5.5 -0.55c0.33,1.84 1,3.19 2,4.05 1.01,0.86 2.37,1.29 4.08,1.29 1.81,0 3.18,-0.38 4.09,-1.15 0.92,-0.77 1.38,-1.67 1.38,-2.69 0,-0.66 -0.2,-1.22 -0.58,-1.69 -0.38,-0.46 -1.06,-0.87 -2.02,-1.2 -0.66,-0.23 -2.15,-0.64 -4.5,-1.22 -3.01,-0.75 -5.13,-1.68 -6.34,-2.78 -1.71,-1.54 -2.56,-3.42 -2.56,-5.64 0,-1.42 0.4,-2.76 1.2,-4.01 0.81,-1.24 1.97,-2.19 3.48,-2.84 1.52,-0.65 3.34,-0.98 5.48,-0.98 3.49,0 6.13,0.77 7.89,2.33 1.77,1.55 2.69,3.62 2.79,6.22l-5.66 0.2c-0.24,-1.44 -0.75,-2.48 -1.54,-3.11 -0.79,-0.63 -1.97,-0.95 -3.55,-0.95 -1.63,0 -2.9,0.34 -3.82,1.02 -0.59,0.43 -0.89,1.02 -0.89,1.74 0,0.66 0.28,1.23 0.84,1.7 0.71,0.6 2.43,1.23 5.17,1.88 2.74,0.64 4.76,1.32 6.07,2.01 1.31,0.7 2.34,1.64 3.08,2.84 0.74,1.2 1.11,2.69 1.11,4.45 0,1.6 -0.44,3.1 -1.33,4.5 -0.89,1.4 -2.15,2.44 -3.77,3.12 -1.63,0.68 -3.66,1.02 -6.08,1.02 -3.53,0 -6.25,-0.81 -8.14,-2.44 -1.89,-1.63 -3.02,-4 -3.39,-7.12zm33.8 9.05l0 -23.22 -8.28 0 0 -4.72 22.17 0 0 4.72 -8.24 0 0 23.22 -5.66 0zm34.69 0l0 -23.22 -8.28 0 0 -4.72 22.17 0 0 4.72 -8.24 0 0 23.22 -5.66 0zm17.56 0l0 -27.95 5.66 0 0 11.01 11.01 0 0 -11.01 5.66 0 0 27.95 -5.66 0 0 -12.22 -11.01 0 0 12.22 -5.66 0zm28.19 0l0 -27.95 20.69 0 0 4.72 -15.03 0 0 6.2 13.97 0 0 4.72 -13.97 0 0 7.57 15.57 0 0 4.72 -21.23 0zm40.72 0l-6.57 -27.95 5.82 0 4.16 19.2 5.1 -19.2 6.73 0 4.88 19.52 4.25 -19.52 5.68 0 -6.73 27.95 -6.04 0 -5.51 -20.9 -5.55 20.9 -6.21 0zm56.02 0l-6.1 0 -2.41 -6.36 -11.21 0 -2.32 6.36 -5.98 0 10.85 -27.95 5.98 0 11.19 27.95zm-10.34 -11.09l-3.88 -10.34 -3.77 10.34 7.66 0zm17.11 11.09l0 -11.76 -10.25 -16.18 6.62 0 6.61 11.07 6.43 -11.07 6.49 0 -10.25 16.22 0 11.72 -5.66 0zm35.47 0l0 -11.76 -10.25 -16.18 6.62 0 6.61 11.07 6.43 -11.07 6.49 0 -10.25 16.22 0 11.72 -5.66 0zm17.53 -13.8c0,-2.85 0.43,-5.24 1.28,-7.18 0.63,-1.43 1.5,-2.71 2.6,-3.84 1.1,-1.13 2.3,-1.97 3.61,-2.52 1.74,-0.73 3.75,-1.11 6.03,-1.11 4.12,0 7.42,1.28 9.9,3.84 2.47,2.56 3.71,6.12 3.71,10.68 0,4.52 -1.23,8.06 -3.68,10.61 -2.45,2.56 -5.74,3.83 -9.84,3.83 -4.16,0 -7.47,-1.27 -9.92,-3.81 -2.45,-2.54 -3.68,-6.04 -3.68,-10.5zm5.81 -0.19c0,3.17 0.74,5.57 2.2,7.21 1.46,1.63 3.33,2.45 5.58,2.45 2.26,0 4.1,-0.81 5.56,-2.43 1.44,-1.63 2.17,-4.06 2.17,-7.31 0,-3.21 -0.7,-5.6 -2.11,-7.18 -1.41,-1.58 -3.27,-2.37 -5.61,-2.37 -2.33,0 -4.21,0.8 -5.64,2.4 -1.42,1.6 -2.14,4.01 -2.14,7.23zm25.72 -13.95l5.66 0 0 15.15c0,2.41 0.07,3.96 0.21,4.67 0.24,1.14 0.81,2.07 1.71,2.76 0.9,0.7 2.13,1.04 3.7,1.04 1.58,0 2.78,-0.33 3.58,-0.98 0.81,-0.66 1.29,-1.46 1.45,-2.41 0.16,-0.96 0.25,-2.54 0.25,-4.75l0 -15.47 5.66 0 0 14.7c0,3.36 -0.15,5.73 -0.45,7.12 -0.31,1.39 -0.87,2.56 -1.68,3.51 -0.81,0.96 -1.9,1.71 -3.27,2.28 -1.37,0.57 -3.16,0.85 -5.36,0.85 -2.66,0 -4.68,-0.31 -6.05,-0.92 -1.37,-0.62 -2.46,-1.42 -3.26,-2.41 -0.8,-0.99 -1.32,-2.02 -1.57,-3.1 -0.37,-1.6 -0.55,-3.97 -0.55,-7.1l0 -14.92zm39.03 27.95l0 -27.95 9.05 0c3.43,0 5.66,0.14 6.7,0.42 1.6,0.42 2.94,1.33 4.02,2.74 1.08,1.41 1.62,3.22 1.62,5.44 0,1.72 -0.31,3.16 -0.93,4.33 -0.62,1.17 -1.41,2.09 -2.37,2.76 -0.96,0.66 -1.93,1.1 -2.92,1.32 -1.35,0.27 -3.29,0.4 -5.84,0.4l-3.67 0 0 10.54 -5.66 0zm5.66 -23.22l0 7.96 3.08 0c2.22,0 3.7,-0.15 4.44,-0.44 0.75,-0.29 1.33,-0.75 1.76,-1.38 0.42,-0.63 0.64,-1.35 0.64,-2.18 0,-1.02 -0.3,-1.86 -0.89,-2.52 -0.6,-0.66 -1.35,-1.08 -2.26,-1.25 -0.67,-0.12 -2.02,-0.19 -4.05,-0.19l-2.71 0zm42.66 23.22l-6.1 0 -2.41 -6.36 -11.21 0 -2.32 6.36 -5.98 0 10.85 -27.95 5.98 0 11.19 27.95zm-10.34 -11.09l-3.88 -10.34 -3.77 10.34 7.66 0zm17.11 11.09l0 -11.76 -10.25 -16.18 6.62 0 6.61 11.07 6.43 -11.07 6.49 0 -10.25 16.22 0 11.72 -5.66 0z"/>
   <path class="fil3" d="M397.62 240.06l-2.3 0c-0.49,-4.01 -1.46,-6.56 -2.88,-7.68 -1.43,-1.12 -4.08,-1.68 -7.96,-1.68l-14.3 -0.17 0 21.52c0,3.73 0.6,6.14 1.81,7.24 1.21,1.09 3.62,1.64 7.24,1.64l0 1.89 -27.61 0 0 -1.89c3.62,0 5.95,-0.6 6.98,-1.81 1.04,-1.26 1.56,-3.97 1.56,-8.13l0 -42.64c0,-3.79 -0.6,-6.21 -1.81,-7.32 -1.15,-1.04 -3.39,-1.56 -6.73,-1.56l0 -1.89 52.33 0 0.25 14.05 -2.47 0c-0.71,-4.32 -2,-7.12 -3.86,-8.37 -1.86,-1.32 -5.57,-1.98 -11.09,-1.98l-13.39 0c-1.32,0 -2.17,0.23 -2.55,0.66 -0.43,0.38 -0.66,1.29 -0.66,2.71l0 21.95 14.3 0c4.05,0 6.73,-0.63 8.05,-1.89 1.36,-1.21 2.3,-3.7 2.79,-7.47l2.3 0 0 22.84zm558.92 -42.49l0 1.89c-2.96,0.34 -5.34,1.32 -7.15,2.96 -1.81,1.7 -3.94,4.43 -6.41,8.22l-14.63 22.35 0 19.06c0,3.73 0.6,6.14 1.81,7.24 1.15,1.09 3.94,1.64 8.37,1.64l0 1.89 -30.23 0 0 -1.89c4.54,0 7.42,-0.71 8.62,-2.13 0.94,-1.11 1.4,-3.7 1.4,-7.81l0 -17.18 -12.98 -18.89c-4.71,-6.96 -8.05,-11.34 -10.03,-13.15 -1.53,-1.36 -3.51,-2.13 -5.92,-2.3l0 -1.89 27.61 0 0 1.89c-1.96,0 -3.65,0.11 -5.01,0.34 -1.32,0.21 -1.98,1.12 -1.98,2.71 0,0.49 0.17,1.18 0.49,2.05 0.39,0.88 0.77,1.6 1.15,2.15l14.63 21.93 14.05 -22.27c0.55,-0.87 0.92,-1.53 1.11,-1.96 0.2,-0.45 0.29,-1.02 0.29,-1.72 0,-1.37 -0.62,-2.26 -1.85,-2.64 -1.23,-0.38 -2.89,-0.57 -4.96,-0.57l0 -1.89 21.61 0zm-64.91 63.52l0 1.81 -25.14 0 0 -1.81c2.35,0 3.97,-0.17 4.85,-0.5 1.36,-0.55 2.05,-1.64 2.05,-3.28 0,-0.6 -0.13,-1.39 -0.41,-2.38 -0.32,-0.98 -0.83,-2.27 -1.49,-3.86l-4.02 -9.45 -25.79 0 -4.53 11.58c-0.55,1.37 -0.81,2.61 -0.81,3.7 0,1.81 0.84,3.04 2.54,3.69 0.88,0.34 2.27,0.5 4.19,0.5l0 1.81 -19.55 0 0 -1.81c1.21,0 2.16,-0.22 2.87,-0.66 0.76,-0.39 1.47,-0.91 2.13,-1.57 0.98,-1.04 2.24,-3.14 3.79,-6.33 0.76,-1.64 1.91,-4.19 3.45,-7.64l20.46 -48.39 1.96 0 24.57 55.95c1.64,3.67 2.99,6.03 4.03,7.07 1,1.05 2.61,1.57 4.85,1.57zm-48.31 -23.5l22.76 0 -11.43 -27.12 -11.33 27.12zm-68.61 -38.12l0 -1.89 26.05 0c7.45,0 13.48,1.37 18.07,4.11 5.2,3.13 7.8,7.67 7.8,13.65 0,3.34 -0.78,6.32 -2.38,8.96 -0.87,1.36 -2.1,2.82 -3.69,4.35 -2.15,2.03 -4.85,3.51 -8.13,4.45 -3.24,0.92 -7.47,1.39 -12.73,1.39l-6.58 -0.32 0 17.91c0,3.62 0.6,6 1.81,7.15 1.21,1.15 3.66,1.72 7.39,1.72l0 1.89 -27.61 0 0 -1.89c3.84,0 6.25,-0.74 7.24,-2.22 0.72,-1.15 1.07,-3.73 1.07,-7.73l0 -42.64c0,-3.56 -0.46,-5.86 -1.4,-6.9 -0.87,-1 -3.17,-1.64 -6.9,-1.98zm18.41 5.09l0 25.63 5.92 0.34c2.96,0 5.26,-0.25 6.9,-0.74 6.62,-1.81 9.94,-6.58 9.94,-14.29 0,-4.66 -1.6,-8.19 -4.77,-10.6 -3.13,-2.47 -7.78,-3.7 -13.97,-3.7 -1.7,0 -2.79,0.17 -3.3,0.49 -0.49,0.34 -0.73,1.29 -0.73,2.88zm-21.59 56.54l0 1.81 -25.14 0 0 -1.81c2.36,0 3.97,-0.17 4.85,-0.5 1.36,-0.55 2.05,-1.64 2.05,-3.28 0,-0.6 -0.13,-1.39 -0.41,-2.38 -0.32,-0.98 -0.83,-2.27 -1.49,-3.86l-4.02 -9.45 -25.79 0 -4.53 11.58c-0.55,1.37 -0.81,2.61 -0.81,3.7 0,1.81 0.84,3.04 2.54,3.69 0.88,0.34 2.27,0.5 4.19,0.5l0 1.81 -19.55 0 0 -1.81c1.21,0 2.16,-0.22 2.88,-0.66 0.76,-0.39 1.47,-0.91 2.13,-1.57 0.98,-1.04 2.24,-3.14 3.78,-6.33 0.76,-1.64 1.91,-4.19 3.45,-7.64l20.46 -48.39 1.96 0 24.57 55.95c1.64,3.67 2.99,6.03 4.02,7.07 1,1.05 2.61,1.57 4.85,1.57zm-48.31 -23.5l22.76 0 -11.43 -27.12 -11.33 27.12zm-21.94 23.33l0 1.89 -15.86 0 -23.49 -30.32 -5.51 0.15 0 19.39c0,3.51 0.55,5.86 1.64,7.07 1.09,1.21 3.51,1.81 7.24,1.81l0 1.89 -27.27 0 0 -1.89c3.72,0 6.1,-0.71 7.14,-2.13 0.83,-1.11 1.24,-3.7 1.24,-7.81l0 -42.64c0,-3.56 -0.52,-5.86 -1.56,-6.9 -0.98,-1 -3.25,-1.64 -6.82,-1.98l0 -1.89 27.19 0c6.46,0 11.72,0.97 15.78,2.87 6.2,2.86 9.28,7.64 9.28,14.39 0,4.43 -1.39,7.99 -4.19,10.68 -2.79,2.68 -7.33,4.63 -13.63,5.84l20.29 24.97c1.26,1.58 2.5,2.76 3.7,3.53 1.26,0.72 2.87,1.07 4.84,1.07zm-44.86 -56.2l0 24.31c6.52,0 11.4,-0.62 14.63,-1.88 5.64,-2.2 8.47,-6.38 8.47,-12.58 0,-4.38 -1.43,-7.7 -4.28,-9.94 -2.85,-2.3 -7.07,-3.45 -12.65,-3.45 -2.58,0 -4.25,0.25 -5.02,0.74 -0.76,0.43 -1.15,1.37 -1.15,2.79zm-50.11 59.48c-9.14,0 -16.73,-3.01 -22.76,-9.03 -6.3,-6.35 -9.45,-14.65 -9.45,-24.9 0,-10.67 3.35,-19.2 10.03,-25.55 6.03,-5.69 13.42,-8.54 22.18,-8.54 8.82,0 16.22,2.82 22.18,8.46 6.69,6.3 10.03,14.85 10.03,25.63 0,10.25 -3.11,18.55 -9.37,24.9 -5.97,6.01 -13.59,9.03 -22.84,9.03zm0 -3.53c5.97,0 10.85,-2.38 14.63,-7.14 4.28,-5.37 6.41,-13.15 6.41,-23.35 0,-10.41 -2.24,-18.29 -6.73,-23.65 -3.73,-4.54 -8.5,-6.82 -14.3,-6.82 -5.81,0 -10.57,2.27 -14.29,6.82 -4.5,5.37 -6.74,13.25 -6.74,23.65 0,10.19 2.15,17.98 6.41,23.35 3.79,4.75 8.65,7.14 14.63,7.14zm-40.26 -15.2l2.3 0 -2.38 17.35 -55.62 0 0 -1.49 43.13 -60.06 -21.85 0c-6.31,0 -10.66,1.37 -13.07,4.11 -1.47,1.53 -2.62,4.54 -3.45,9.03l-2.55 0 1.98 -16.84 51.84 0 0 1.49 -42.64 60.06 25.39 0c5.75,0 9.91,-1.37 12.48,-4.11 1.54,-1.64 3.01,-4.82 4.44,-9.54zm-56.57 -47.98l0 1.89c-3.67,0.39 -6,1.09 -6.98,2.15 -1.58,1.64 -2.38,5.12 -2.38,10.43l0 51.84 -1.64 0 -43.38 -53.98 -0.17 38.46c0,5.03 0.6,8.4 1.81,10.09 1.26,1.64 3.73,2.47 7.4,2.47l0 1.89 -23.18 0 0 -1.89c3.9,0 6.46,-0.77 7.73,-2.3 1.26,-1.58 1.89,-5 1.89,-10.26l0 -43.47c-1.92,-2.3 -3.48,-3.79 -4.68,-4.43 -1.21,-0.66 -2.85,-1 -4.94,-1l0 -1.89 16.92 0 37.72 47.41 0.24 -32.94c0,-5.37 -0.73,-8.88 -2.22,-10.52 -1.15,-1.37 -3.59,-2.06 -7.31,-2.06l0 -1.89 23.16 0zm-101.81 65.33l0 -1.89c4.11,0 6.73,-0.58 7.88,-1.72 1.15,-1.15 1.72,-3.53 1.72,-7.15l0 -43.71c0,-3.79 -0.58,-6.21 -1.72,-7.32 -1.15,-1.04 -3.77,-1.56 -7.88,-1.56l0 -1.89 29.33 0 0 1.89c-3.84,0 -6.41,0.52 -7.73,1.56 -1.32,1.11 -1.98,3.53 -1.98,7.32l0 43.71c0,3.73 0.66,6.14 1.98,7.24 1.32,1.09 3.88,1.64 7.73,1.64l0 1.89 -29.33 0z"/>
  </g>
 </g>
</svg>