<svg width="28" height="33" viewBox="0 0 28 33" fill="none" xmlns="http://www.w3.org/2000/svg">
<path d="M19.5618 0.5C19.7986 2.63989 19.0861 4.47459 17.6784 6.03889C16.54 7.30379 15.1161 8.06738 13.3731 8.13236C13.3127 8.13468 13.2512 8.13236 13.1688 8.13236C13.0273 7.39663 13.0563 6.67598 13.2605 5.98087C14.103 3.10756 16.0131 1.33553 18.8992 0.593997C19.0362 0.559184 19.1754 0.531332 19.3135 0.5C19.3959 0.5 19.4783 0.5 19.5618 0.5Z" fill="white"/>
<path d="M26.2326 11.1531C23.7399 12.6606 22.4669 14.8573 22.7071 17.7689C22.9439 20.6422 24.4838 22.6556 27.1714 23.8312C26.8964 24.4114 26.6423 24.9963 26.3463 25.5591C25.3901 27.3752 24.2923 29.0985 22.8557 30.5804C22.2708 31.185 21.6163 31.7072 20.8202 32.0182C19.705 32.4523 18.6304 32.2782 17.5802 31.7885C16.7447 31.3986 15.8941 31.0597 14.9645 30.9657C13.5813 30.8264 12.2722 31.0841 11.0213 31.6771C10.3935 31.9753 9.7436 32.2144 9.04268 32.2608C7.98086 32.3316 7.05481 31.9683 6.2216 31.3336C5.06113 30.4493 4.20239 29.3004 3.40747 28.0982C1.77934 25.6369 0.678064 22.962 0.233607 20.0365C-0.089002 17.9082 -0.0553486 15.7961 0.628164 13.7247C1.08074 12.3577 1.86406 11.2065 2.89339 10.2213C3.86934 9.2871 4.99383 8.5885 6.29935 8.20207C7.78474 7.76109 9.24112 7.93168 10.6824 8.41559C11.3868 8.65232 12.0866 8.90531 12.8003 9.10955C13.9909 9.45072 15.1479 9.27897 16.284 8.82987C17.2448 8.44924 18.2185 8.11271 19.2548 7.99086C21.1103 7.77385 22.7721 8.27866 24.29 9.32075C25.0257 9.82671 25.6721 10.4336 26.2326 11.1531Z" fill="white"/>
</svg>
