<svg width="70" height="69" viewBox="0 0 70 69" fill="none" xmlns="http://www.w3.org/2000/svg">
<g clip-path="url(#clip0_289_1125)">
<path d="M70.0001 42.003C69.681 42.7648 69.1052 43.2764 68.4414 43.7438C61.0475 48.9219 53.6536 54.1001 46.2853 59.3187C44.8293 60.3492 43.3439 60.6621 41.5908 60.3419C34.5417 59.0427 27.4778 57.8209 20.4214 56.5585C19.9152 56.4665 19.5265 56.5696 19.101 56.8677C13.9627 60.5001 8.81338 64.1142 3.66039 67.7208C3.31196 67.9674 2.93053 68.2214 2.5271 68.3244C1.18108 68.6667 0.0111163 67.6767 0.00744864 66.2119C0.000113423 62.712 0.00744864 59.2157 0.00744864 55.7157C0.00744864 53.4744 0.0184515 51.2332 0.000113423 48.9955C-0.0072218 48.1159 0.341201 47.4645 1.05272 46.9714C3.93546 44.9656 6.79986 42.9378 9.68994 40.9467C13.9444 38.0136 18.6206 37.1376 23.6782 38.054C29.5684 39.1213 35.4622 40.1518 41.3561 41.1896C43.8831 41.635 45.5078 43.3647 45.5408 45.6759C45.5812 48.5355 43.0909 50.6774 40.2778 50.1843C36.4011 49.5034 32.5245 48.8115 28.6478 48.127C27.3091 47.8914 26.1942 48.6201 25.9411 49.8972C25.6954 51.1375 26.4986 52.3041 27.8226 52.5397C31.8753 53.2647 35.9244 54.0338 39.9954 54.6558C45.5848 55.5096 50.6461 50.5155 49.9823 44.881C49.9273 44.4173 50.074 44.2443 50.4444 44.0566C54.5888 41.9588 58.7185 39.839 62.8629 37.7412C65.1515 36.5819 67.4585 37.1634 68.9438 39.2538C69.3216 39.7875 69.6517 40.3616 70.0038 40.9136C70.0001 41.2743 70.0001 41.6386 70.0001 42.003Z" fill="white"/>
<path d="M51.3575 0.0292969C51.9957 6.36307 56.2208 10.588 62.9948 11.7069C62.9948 13.9113 62.9948 16.1195 62.9948 18.3719C59.815 18.5191 57.211 19.8881 55.0288 22.1147C52.8686 24.3192 51.4895 26.9064 51.3648 30.112C40.4684 30.112 29.5866 30.112 18.6388 30.112C18.5214 26.9433 17.1754 24.3229 14.9748 22.1221C12.7889 19.9397 10.2216 18.5411 7.02344 18.3792C7.02344 16.1563 7.02344 13.9297 7.02344 11.7032C12.7596 11.578 18.4297 5.84783 18.6388 0.0292969C29.5352 0.0292969 40.428 0.0292969 51.3575 0.0292969ZM34.9926 26.7188C41.3853 26.7261 46.6153 21.4964 46.6263 15.0854C46.6373 8.65221 41.466 3.43724 35.0513 3.41148C28.611 3.38572 23.381 8.60805 23.3846 15.0633C23.3846 21.478 28.5963 26.7114 34.9926 26.7188Z" fill="white"/>
<path d="M14.4398 30.1119C12.5363 30.1119 10.6255 30.1634 8.722 30.0898C7.78309 30.053 7.10825 29.2507 6.99455 28.3307C6.96888 28.1282 6.97988 27.9185 6.97988 27.7161C6.97988 26.0084 6.97988 24.2971 6.97988 22.5931C10.1964 22.3796 14.7222 26.6819 14.4398 30.1119Z" fill="white"/>
<path d="M63.0206 22.5491C63.0206 24.4886 63.0536 26.384 63.006 28.272C62.984 29.2031 62.2651 30.0348 61.3372 30.0753C59.4117 30.1563 57.4825 30.1011 55.557 30.1011C55.2453 26.8992 59.5437 22.5086 63.0206 22.5491Z" fill="white"/>
<path d="M14.4391 0.0256787C14.6848 2.74173 10.9879 7.45618 6.97919 7.50402C6.97919 6.62076 6.97919 5.73749 6.97919 4.85422C6.97919 3.91942 6.96452 2.98095 6.98286 2.04616C7.00119 1.02672 7.6577 0.0919239 8.5966 0.0477604C10.5404 -0.0368862 12.4916 0.0256787 14.4391 0.0256787Z" fill="white"/>
<path d="M55.5316 0.0145067C57.5048 0.0145067 59.4339 -0.0333371 61.3594 0.0365884C62.2323 0.069711 62.9768 0.886735 63.0025 1.78841C63.0538 3.67639 63.0172 5.56806 63.0172 7.45605C59.8154 7.72839 55.4876 3.44086 55.5316 0.0145067Z" fill="white"/>
<path d="M34.9969 7.52979C39.1559 7.52611 42.5191 10.8862 42.5228 15.0523C42.5265 19.211 39.1633 22.5932 35.0152 22.6006C30.8818 22.6116 27.4929 19.2184 27.4893 15.067C27.4819 10.9009 30.8378 7.53347 34.9969 7.52979Z" fill="white"/>
</g>
<defs>
<clipPath id="clip0_289_1125">
<rect width="70" height="68.3908" fill="white"/>
</clipPath>
</defs>
</svg>
