<svg width="386" height="379" viewBox="0 0 386 379" fill="none" xmlns="http://www.w3.org/2000/svg">
<path d="M379.447 179.424C379.674 182.34 379.833 185.275 379.92 188.228C379.644 188.236 379.427 188.465 379.434 188.741C379.478 190.372 379.5 192.009 379.5 193.65C379.5 195.292 379.478 196.928 379.434 198.559C379.427 198.835 379.644 199.065 379.92 199.072C379.833 202.025 379.674 204.96 379.447 207.876C379.172 207.855 378.931 208.06 378.909 208.335C378.644 211.603 378.292 214.848 377.855 218.067C377.818 218.34 378.009 218.592 378.283 218.63C377.878 221.552 377.402 224.453 376.859 227.33C376.588 227.279 376.326 227.456 376.274 227.727C375.657 230.944 374.955 234.132 374.169 237.287C374.102 237.555 374.265 237.826 374.532 237.893C373.812 240.751 373.024 243.583 372.169 246.387C371.905 246.306 371.625 246.454 371.544 246.718C370.581 249.845 369.536 252.937 368.409 255.991C368.314 256.25 368.446 256.538 368.705 256.633C367.679 259.393 366.587 262.123 365.431 264.82C365.178 264.711 364.884 264.828 364.775 265.081C363.479 268.083 362.104 271.044 360.653 273.962C360.53 274.209 360.63 274.509 360.877 274.632C359.559 277.263 358.179 279.86 356.739 282.42C356.499 282.284 356.194 282.368 356.058 282.609C354.448 285.451 352.764 288.248 351.007 290.996C350.858 291.229 350.926 291.538 351.158 291.687C349.568 294.16 347.919 296.594 346.213 298.988C345.989 298.827 345.677 298.879 345.516 299.103C343.615 301.757 341.643 304.359 339.604 306.908C339.432 307.124 339.467 307.438 339.682 307.611C337.84 309.901 335.944 312.148 333.995 314.35C333.789 314.167 333.473 314.185 333.29 314.392C331.121 316.829 328.888 319.211 326.593 321.534C326.399 321.731 326.4 322.047 326.596 322.241C324.526 324.325 322.406 326.363 320.238 328.351C320.052 328.147 319.736 328.133 319.532 328.319C317.122 330.517 314.654 332.654 312.129 334.728C311.916 334.903 311.885 335.218 312.059 335.431C309.785 337.289 307.466 339.097 305.103 340.851C304.939 340.629 304.626 340.582 304.404 340.746C301.781 342.683 299.105 344.554 296.379 346.359C296.148 346.511 296.085 346.821 296.237 347.051C293.785 348.664 291.292 350.223 288.76 351.726C288.619 351.489 288.313 351.41 288.075 351.55C285.27 353.206 282.416 354.792 279.518 356.308C279.273 356.435 279.178 356.737 279.306 356.982C276.703 358.334 274.064 359.629 271.39 360.865C271.275 360.614 270.978 360.505 270.727 360.62C267.768 361.978 264.768 363.264 261.727 364.476C261.471 364.578 261.346 364.868 261.448 365.125C258.721 366.203 255.963 367.221 253.176 368.177C253.087 367.916 252.803 367.777 252.542 367.866C249.462 368.914 246.345 369.887 243.195 370.782C242.929 370.857 242.775 371.134 242.85 371.399C240.03 372.193 237.183 372.924 234.31 373.592C234.248 373.324 233.98 373.156 233.711 373.218C230.543 373.946 227.343 374.597 224.116 375.168C223.844 375.216 223.663 375.475 223.71 375.747C220.826 376.25 217.92 376.689 214.992 377.064C214.957 376.79 214.708 376.596 214.434 376.631C211.211 377.035 207.962 377.36 204.691 377.604C204.415 377.625 204.209 377.864 204.229 378.139C201.312 378.35 198.376 378.496 195.423 378.576C195.416 378.3 195.186 378.083 194.911 378.089C193.279 378.13 191.642 378.15 190 378.15C188.358 378.15 186.721 378.13 185.089 378.089C184.813 378.083 184.584 378.3 184.577 378.576C181.624 378.496 178.688 378.349 175.771 378.139C175.791 377.864 175.585 377.625 175.309 377.604C172.038 377.36 168.789 377.035 165.566 376.631C165.292 376.596 165.042 376.79 165.008 377.064C162.08 376.689 159.174 376.25 156.289 375.747C156.337 375.475 156.156 375.216 155.884 375.168C152.656 374.597 149.457 373.946 146.289 373.218C146.02 373.156 145.752 373.324 145.69 373.592C142.817 372.924 139.97 372.193 137.15 371.399C137.225 371.134 137.071 370.857 136.805 370.782C133.655 369.887 130.538 368.914 127.458 367.866C127.197 367.777 126.913 367.916 126.824 368.177C124.036 367.221 121.279 366.203 118.552 365.125C118.654 364.868 118.529 364.578 118.273 364.476C115.232 363.264 112.232 361.978 109.273 360.62C109.022 360.505 108.725 360.614 108.61 360.865C105.936 359.629 103.297 358.334 100.694 356.982C100.822 356.737 100.727 356.435 100.482 356.308C97.5837 354.792 94.7304 353.206 91.9247 351.55C91.687 351.41 91.3808 351.489 91.2403 351.726C88.7082 350.223 86.2152 348.664 83.7628 347.051C83.9147 346.821 83.8515 346.511 83.6214 346.359C80.8946 344.554 78.2186 342.683 75.596 340.746C75.3741 340.582 75.0613 340.629 74.8972 340.851C72.5342 339.097 70.2147 337.289 67.9405 335.431C68.1153 335.218 68.0843 334.903 67.8711 334.728C65.3461 332.654 62.8775 330.517 60.4679 328.319C60.2641 328.133 59.9482 328.147 59.762 328.351C57.5939 326.363 55.4738 324.325 53.4036 322.241C53.5996 322.047 53.6013 321.731 53.4074 321.534C51.1121 319.211 48.8788 316.829 46.71 314.392C46.5266 314.185 46.2109 314.167 46.0046 314.35C44.0561 312.148 42.1599 309.901 40.318 307.611C40.5332 307.438 40.568 307.124 40.3957 306.908C38.357 304.359 36.3855 301.757 34.4838 299.103C34.3231 298.879 34.0111 298.827 33.7867 298.988C32.0813 296.594 30.4323 294.16 28.8418 291.687C29.074 291.538 29.1419 291.229 28.9933 290.996C27.2365 288.248 25.5519 285.451 23.942 282.609C23.806 282.368 23.5013 282.284 23.2611 282.42C21.8207 279.86 20.4406 277.263 19.1228 274.632C19.3696 274.509 19.47 274.209 19.3472 273.962C17.8957 271.044 16.5208 268.083 15.2251 265.081C15.1158 264.828 14.8219 264.711 14.5686 264.82C13.4131 262.123 12.3213 259.393 11.295 256.633C11.5537 256.538 11.686 256.25 11.5906 255.991C10.4644 252.937 9.4186 249.845 8.45572 246.718C8.37452 246.454 8.0951 246.306 7.83138 246.387C6.97645 243.583 6.18795 240.751 5.46764 237.893C5.7352 237.826 5.89798 237.555 5.8313 237.287C5.0453 234.132 4.34263 230.944 3.72569 227.727C3.67372 227.456 3.4121 227.279 3.14115 227.33C2.59756 224.453 2.12236 221.552 1.71724 218.63C1.9905 218.592 2.18185 218.34 2.14472 218.067C1.70764 214.848 1.35577 211.603 1.09141 208.334C1.06917 208.059 0.828374 207.854 0.553416 207.876C0.325647 204.96 0.167321 202.025 0.0800427 199.072C0.355762 199.065 0.573171 198.835 0.565772 198.559C0.522015 196.928 0.5 195.292 0.5 193.65C0.5 192.009 0.522016 190.372 0.565774 188.741C0.573173 188.465 0.355765 188.236 0.0800454 188.228C0.167325 185.275 0.325653 182.34 0.553423 179.424C0.828381 179.446 1.06917 179.241 1.09141 178.966C1.35578 175.697 1.70765 172.452 2.14473 169.233C2.18186 168.96 1.99051 168.708 1.71725 168.671C2.12237 165.748 2.59757 162.847 3.14116 159.97C3.41212 160.021 3.67374 159.844 3.72571 159.573C4.34264 156.356 5.04531 153.169 5.83132 150.013C5.898 149.745 5.73521 149.474 5.46766 149.407C6.18796 146.549 6.97647 143.717 7.8314 140.913C8.09512 140.994 8.37454 140.846 8.45574 140.582C9.41862 137.456 10.4644 134.364 11.5906 131.309C11.686 131.05 11.5537 130.763 11.2951 130.667C12.3213 127.907 13.4131 125.177 14.5686 122.48C14.822 122.589 15.1158 122.472 15.2252 122.219C16.5208 119.218 17.8957 116.256 19.3472 113.338C19.4701 113.091 19.3696 112.791 19.1228 112.668C20.4406 110.037 21.8207 107.44 23.2612 104.881C23.5014 105.016 23.8061 104.932 23.942 104.692C25.5519 101.849 27.2365 99.0524 28.9933 96.3039C29.1419 96.0714 29.0741 95.7625 28.8419 95.6137C30.4324 93.1401 32.0813 90.7058 33.7867 88.3125C34.0112 88.4729 34.3231 88.4212 34.4839 88.197C36.3855 85.5435 38.357 82.941 40.3957 80.392C40.568 80.1765 40.5332 79.8622 40.318 79.6896C42.16 77.3992 44.0561 75.1522 46.0046 72.9504C46.2109 73.1334 46.5266 73.1149 46.71 72.9087C48.8788 70.4711 51.1122 68.0893 53.4074 65.766C53.6014 65.5697 53.5996 65.2534 53.4036 65.0593C55.4739 62.9749 57.594 60.9377 59.7621 58.9495C59.9482 59.1531 60.2641 59.1674 60.468 58.9815C62.8775 56.7836 65.3461 54.6464 67.8712 52.5722C68.0844 52.397 68.1154 52.0823 67.9406 51.8689C70.2147 50.0109 72.5342 48.2037 74.8972 46.4492C75.0614 46.6709 75.3741 46.7178 75.5961 46.5539C78.2187 44.6174 80.8946 42.7459 83.6214 40.9417C83.8515 40.7895 83.9148 40.4796 83.7629 40.2494C86.2152 38.6361 88.7083 37.0771 91.2403 35.5741C91.3808 35.8115 91.687 35.8903 91.9247 35.7501C94.7304 34.0946 97.5838 32.508 100.482 30.9927C100.727 30.8648 100.822 30.5631 100.694 30.3185C103.297 28.9663 105.936 27.6713 108.61 26.4354C108.725 26.6859 109.022 26.7957 109.273 26.6806C112.232 25.3221 115.232 24.0361 118.273 22.8247C118.529 22.7226 118.654 22.4321 118.552 22.1757C121.279 21.0977 124.037 20.0795 126.824 19.1229C126.913 19.3839 127.197 19.5234 127.458 19.4345C130.538 18.3865 133.655 17.4136 136.805 16.5183C137.071 16.4429 137.225 16.1667 137.15 15.9013C139.97 15.1077 142.817 14.376 145.69 13.7079C145.752 13.9766 146.02 14.1443 146.289 14.0825C149.457 13.3542 152.657 12.7033 155.884 12.132C156.156 12.0839 156.337 11.8248 156.29 11.5531C159.174 11.0503 162.08 10.6109 165.008 10.2363C165.043 10.51 165.292 10.7039 165.566 10.6696C168.789 10.2657 172.038 9.94054 175.309 9.69631C175.585 9.67577 175.791 9.43623 175.771 9.16112C178.688 8.95079 181.624 8.80462 184.577 8.72405C184.584 8.99981 184.814 9.21772 185.089 9.21088C186.721 9.17047 188.358 9.15015 190 9.15015C191.642 9.15015 193.279 9.17047 194.911 9.21089C195.187 9.21772 195.416 8.99981 195.423 8.72405C198.376 8.80463 201.312 8.9508 204.229 9.16112C204.209 9.43623 204.415 9.67578 204.691 9.69632C207.962 9.94055 211.211 10.2657 214.434 10.6696C214.708 10.7039 214.958 10.51 214.992 10.2363C217.92 10.6109 220.826 11.0503 223.711 11.5531C223.663 11.8248 223.844 12.0839 224.116 12.132C227.344 12.7033 230.543 13.3542 233.711 14.0825C233.98 14.1443 234.248 13.9766 234.31 13.7079C237.183 14.376 240.03 15.1077 242.85 15.9013C242.775 16.1667 242.929 16.4429 243.195 16.5183C246.345 17.4136 249.462 18.3865 252.542 19.4346C252.803 19.5234 253.087 19.3839 253.176 19.1229C255.964 20.0796 258.721 21.0977 261.448 22.1757C261.346 22.4321 261.471 22.7226 261.727 22.8247C264.768 24.0361 267.768 25.3222 270.727 26.6806C270.978 26.7957 271.275 26.6859 271.39 26.4354C274.064 27.6714 276.703 28.9663 279.306 30.3185C279.178 30.5631 279.273 30.8648 279.518 30.9927C282.416 32.508 285.27 34.0946 288.075 35.7501C288.313 35.8903 288.619 35.8115 288.76 35.5742C291.292 37.0771 293.785 38.6361 296.237 40.2494C296.085 40.4797 296.148 40.7895 296.379 40.9418C299.105 42.7459 301.781 44.6174 304.404 46.5539C304.626 46.7178 304.939 46.6709 305.103 46.4492C307.466 48.2037 309.785 50.0109 312.059 51.869C311.885 52.0824 311.916 52.3971 312.129 52.5722C314.654 54.6464 317.122 56.7837 319.532 58.9815C319.736 59.1675 320.052 59.1531 320.238 58.9496C322.406 60.9377 324.526 62.9749 326.596 65.0594C326.4 65.2535 326.399 65.5697 326.593 65.766C328.888 68.0893 331.121 70.4711 333.29 72.9088C333.473 73.1149 333.789 73.1335 333.995 72.9504C335.944 75.1523 337.84 77.3993 339.682 79.6897C339.467 79.8622 339.432 80.1765 339.604 80.392C341.643 82.9411 343.615 85.5436 345.516 88.197C345.677 88.4213 345.989 88.473 346.213 88.3126C347.919 90.7058 349.568 93.1401 351.158 95.6137C350.926 95.7626 350.858 96.0714 351.007 96.3039C352.764 99.0524 354.448 101.849 356.058 104.692C356.194 104.932 356.499 105.016 356.739 104.881C358.179 107.44 359.559 110.037 360.877 112.668C360.63 112.791 360.53 113.091 360.653 113.338C362.104 116.257 363.479 119.218 364.775 122.219C364.884 122.472 365.178 122.589 365.431 122.48C366.587 125.177 367.679 127.907 368.705 130.667C368.446 130.763 368.314 131.05 368.409 131.309C369.536 134.364 370.581 137.456 371.544 140.582C371.625 140.846 371.905 140.994 372.169 140.913C373.024 143.717 373.812 146.549 374.532 149.407C374.265 149.474 374.102 149.745 374.169 150.013C374.955 153.169 375.657 156.356 376.274 159.573C376.326 159.844 376.588 160.021 376.859 159.97C377.402 162.847 377.878 165.748 378.283 168.671C378.01 168.708 377.818 168.96 377.855 169.233C378.292 172.452 378.644 175.697 378.909 178.966C378.931 179.241 379.172 179.446 379.447 179.424Z" stroke="white" stroke-opacity="0.5" stroke-linecap="round" stroke-linejoin="round" stroke-dasharray="10 10"/>
<path d="M66.3523 348.111L60.0239 331.061L77.9538 334.106L66.3523 348.111Z" fill="url(#paint0_linear_890_46)"/>
<rect x="358.661" y="153.006" width="20" height="18.4615" transform="rotate(-45.0161 358.661 153.006)" fill="url(#paint1_linear_890_46)"/>
<circle cx="189.5" cy="12.1501" r="11.5" fill="url(#paint2_linear_890_46)"/>
<defs>
<linearGradient id="paint0_linear_890_46" x1="63.3036" y1="349.776" x2="56.5955" y2="312.095" gradientUnits="userSpaceOnUse">
<stop stop-color="#962EFF"/>
<stop offset="1" stop-color="#2F06B1"/>
</linearGradient>
<linearGradient id="paint1_linear_890_46" x1="360.666" y1="158.273" x2="385.309" y2="163.254" gradientUnits="userSpaceOnUse">
<stop stop-color="#3006A4"/>
<stop offset="1" stop-color="#FFA37B"/>
</linearGradient>
<linearGradient id="paint2_linear_890_46" x1="185.871" y1="16.8597" x2="199.424" y2="19.7526" gradientUnits="userSpaceOnUse">
<stop stop-color="#836DD6"/>
<stop offset="1" stop-color="#FFA37B"/>
</linearGradient>
</defs>
</svg>
