<svg width="50" height="37" viewBox="0 0 50 37" fill="none" xmlns="http://www.w3.org/2000/svg">
<g clip-path="url(#clip0_289_190)">
<path d="M28.7813 33.7035C28.5688 33.7157 28.4292 33.7278 28.2957 33.7278C21.0306 33.7278 13.7594 33.7399 6.49431 33.7217C3.22289 33.7157 0.637306 31.5125 0.0910572 28.3078C0.0303628 27.9497 0.018224 27.5855 0.018224 27.2214C0.0121545 22.5722 0.0121545 17.9169 0.018224 13.2677C0.018224 13.1281 0.0364323 12.9885 0.0425017 12.8186C11.1314 12.8186 22.1899 12.8186 33.3758 12.8186C29.4186 14.8276 26.8451 17.8684 25.9104 22.1291C24.9757 26.3959 26.0136 30.25 28.7813 33.7035ZM12.2421 26.748C13.371 26.748 14.4938 26.754 15.6227 26.748C16.6788 26.7419 17.4678 25.9771 17.4618 24.9939C17.4557 24.0106 16.6667 23.2641 15.6045 23.258C13.3528 23.252 11.101 23.252 8.84925 23.258C7.76889 23.2641 7.01021 23.9742 7.00414 24.9817C6.99807 26.0075 7.76282 26.7358 8.86746 26.7419C9.9903 26.754 11.1132 26.748 12.2421 26.748Z" fill="white"/>
<path d="M45.3148 9.27412C30.2384 9.27412 15.1679 9.27412 0.0186323 9.27412C0.0853961 7.58075 -0.218076 5.86917 0.394937 4.21828C0.850145 2.97405 1.61489 1.95439 2.69525 1.18964C3.71492 0.467374 4.84383 0.0607221 6.09414 0.0243055C6.74964 2.77497e-05 7.40513 0.00609718 8.06063 0.00609718C18.2512 0.00609718 28.4418 0.0121666 38.6384 2.77497e-05C41.1937 -0.00604168 43.2027 0.983276 44.4772 3.21076C44.9082 3.9573 45.1813 4.86164 45.2784 5.71743C45.4119 6.88277 45.3148 8.06631 45.3148 9.27412Z" fill="white"/>
<path d="M38.9904 13.9659C45.1144 13.9841 50.0246 18.9307 50.0003 25.0426C49.976 31.1666 45.0173 36.0829 38.9115 36.0404C32.8056 36.004 27.9197 31.0817 27.9258 24.988C27.9379 18.87 32.8784 13.9477 38.9904 13.9659Z" fill="white"/>
<path d="M37.8312 25.8861C38.5109 25.0303 39.1664 24.211 39.8219 23.3916C40.2407 22.8635 40.6474 22.3294 41.0722 21.8135C41.7095 21.0488 42.7474 20.9153 43.5 21.4919C44.283 22.0867 44.4408 23.1488 43.8096 23.956C42.3529 25.8315 40.872 27.6948 39.3789 29.5399C38.6505 30.4382 37.5459 30.4746 36.7144 29.6674C35.9618 28.933 35.2152 28.1864 34.4808 27.4338C33.7647 26.6994 33.7464 25.6373 34.4262 24.9454C35.1121 24.2413 36.1985 24.2595 36.9572 24.9878C37.2485 25.267 37.5156 25.5644 37.8312 25.8861Z" fill="black"/>
</g>
<defs>
<clipPath id="clip0_289_190">
<rect width="50" height="36.0403" fill="white"/>
</clipPath>
</defs>
</svg>
