<svg width="709" height="698" viewBox="0 0 709 698" fill="none" xmlns="http://www.w3.org/2000/svg">
<circle cx="345.5" cy="348.15" r="345" stroke="white" stroke-opacity="0.5" stroke-linejoin="round" stroke-dasharray="10 10"/>
<path d="M607.571 333.405C607.748 336.44 607.871 339.489 607.938 342.551C607.663 342.557 607.443 342.785 607.449 343.061C607.483 344.753 607.5 346.45 607.5 348.15C607.5 349.85 607.483 351.546 607.449 353.238C607.443 353.514 607.663 353.743 607.938 353.748C607.871 356.811 607.748 359.86 607.571 362.895C607.296 362.879 607.059 363.088 607.042 363.364C606.838 366.75 606.566 370.118 606.227 373.468C606.2 373.742 606.4 373.988 606.674 374.016C606.36 377.066 605.99 380.101 605.567 383.118C605.293 383.08 605.04 383.27 605.002 383.543C604.523 386.901 603.978 390.238 603.367 393.553C603.317 393.825 603.497 394.085 603.768 394.136C603.207 397.145 602.592 400.136 601.924 403.108C601.655 403.047 601.387 403.216 601.326 403.485C600.577 406.788 599.761 410.068 598.882 413.322C598.81 413.589 598.967 413.863 599.234 413.935C598.43 416.888 597.572 419.819 596.663 422.728C596.4 422.646 596.119 422.792 596.036 423.055C595.019 426.287 593.938 429.492 592.794 432.668C592.701 432.928 592.835 433.214 593.095 433.308C592.053 436.184 590.959 439.036 589.815 441.864C589.56 441.76 589.268 441.883 589.164 442.138C587.889 445.274 586.551 448.379 585.153 451.452C585.039 451.703 585.15 451.999 585.401 452.114C584.13 454.894 582.809 457.647 581.44 460.373C581.193 460.249 580.893 460.348 580.769 460.595C579.244 463.615 577.661 466.602 576.019 469.554C575.885 469.795 575.971 470.099 576.212 470.234C574.721 472.902 573.183 475.541 571.598 478.151C571.362 478.007 571.055 478.082 570.911 478.318C569.15 481.205 567.332 484.056 565.458 486.869C565.305 487.099 565.367 487.409 565.597 487.562C563.898 490.101 562.155 492.609 560.367 495.085C560.144 494.923 559.831 494.973 559.669 495.196C557.684 497.934 555.646 500.631 553.555 503.287C553.384 503.504 553.421 503.818 553.638 503.989C551.744 506.385 549.808 508.748 547.83 511.075C547.62 510.896 547.304 510.921 547.125 511.131C544.931 513.703 542.686 516.232 540.392 518.717C540.205 518.919 540.217 519.236 540.42 519.423C538.345 521.662 536.229 523.865 534.074 526.031C533.879 525.836 533.563 525.837 533.368 526.032C530.98 528.423 528.545 530.769 526.063 533.067C525.86 533.255 525.848 533.571 526.035 533.773C523.792 535.843 521.511 537.875 519.194 539.867C519.014 539.658 518.699 539.634 518.489 539.813C515.923 542.011 513.312 544.161 510.659 546.261C510.442 546.432 510.405 546.746 510.577 546.963C508.179 548.852 505.747 550.701 503.281 552.509C503.118 552.286 502.806 552.238 502.583 552.4C499.856 554.392 497.087 556.332 494.279 558.221C494.05 558.375 493.989 558.685 494.143 558.914C491.609 560.612 489.042 562.267 486.444 563.878C486.299 563.644 485.991 563.571 485.756 563.716C482.884 565.491 479.974 567.212 477.027 568.879C476.787 569.015 476.702 569.32 476.838 569.56C474.18 571.057 471.492 572.51 468.776 573.917C468.65 573.672 468.348 573.576 468.103 573.702C465.102 575.251 462.066 576.743 458.998 578.179C458.748 578.296 458.64 578.594 458.756 578.844C455.993 580.13 453.203 581.371 450.387 582.565C450.28 582.311 449.987 582.192 449.733 582.3C446.625 583.611 443.485 584.865 440.316 586.06C440.058 586.157 439.928 586.446 440.025 586.704C437.171 587.774 434.294 588.797 431.393 589.772C431.305 589.51 431.022 589.369 430.76 589.456C427.56 590.525 424.332 591.535 421.078 592.484C420.813 592.562 420.661 592.839 420.738 593.104C417.809 593.953 414.858 594.753 411.888 595.503C411.82 595.235 411.549 595.073 411.281 595.14C408.013 595.959 404.721 596.718 401.405 597.415C401.135 597.472 400.962 597.737 401.018 598.007C398.038 598.628 395.039 599.2 392.023 599.721C391.976 599.449 391.718 599.266 391.446 599.313C388.124 599.88 384.781 600.387 381.417 600.831C381.143 600.867 380.951 601.118 380.987 601.392C377.965 601.785 374.928 602.128 371.875 602.42C371.849 602.145 371.605 601.943 371.33 601.969C367.977 602.283 364.605 602.536 361.216 602.725C360.941 602.741 360.73 602.977 360.745 603.252C357.71 603.416 354.661 603.53 351.599 603.593C351.594 603.317 351.366 603.097 351.09 603.103C349.397 603.134 347.7 603.15 346 603.15C344.3 603.15 342.603 603.134 340.91 603.103C340.634 603.097 340.406 603.317 340.401 603.593C337.339 603.53 334.29 603.416 331.255 603.252C331.27 602.977 331.059 602.741 330.784 602.725C327.395 602.536 324.023 602.283 320.67 601.969C320.395 601.943 320.151 602.145 320.125 602.42C317.072 602.128 314.035 601.785 311.013 601.392C311.049 601.118 310.857 600.867 310.583 600.831C307.219 600.387 303.876 599.88 300.554 599.313C300.282 599.266 300.024 599.449 299.977 599.721C296.961 599.2 293.962 598.628 290.982 598.007C291.038 597.737 290.865 597.472 290.595 597.415C287.279 596.718 283.987 595.959 280.719 595.14C280.451 595.073 280.18 595.235 280.112 595.503C277.142 594.753 274.191 593.953 271.262 593.104C271.339 592.839 271.187 592.562 270.922 592.484C267.668 591.535 264.44 590.525 261.24 589.456C260.978 589.369 260.695 589.51 260.607 589.772C257.706 588.797 254.829 587.774 251.975 586.704C252.072 586.446 251.942 586.157 251.684 586.06C248.515 584.865 245.375 583.611 242.267 582.3C242.013 582.192 241.72 582.311 241.613 582.565C238.797 581.371 236.007 580.13 233.244 578.844C233.36 578.594 233.252 578.296 233.003 578.179C229.934 576.743 226.898 575.251 223.897 573.702C223.652 573.576 223.35 573.672 223.224 573.917C220.508 572.51 217.82 571.057 215.162 569.56C215.298 569.32 215.213 569.015 214.973 568.879C212.026 567.212 209.116 565.491 206.244 563.716C206.009 563.571 205.701 563.644 205.556 563.878C202.958 562.267 200.391 560.612 197.857 558.914C198.011 558.685 197.95 558.375 197.721 558.221C194.913 556.332 192.144 554.392 189.417 552.4C189.194 552.238 188.882 552.286 188.719 552.509C186.253 550.701 183.821 548.852 181.424 546.963C181.595 546.746 181.558 546.432 181.341 546.261C178.688 544.161 176.077 542.011 173.511 539.813C173.301 539.634 172.986 539.658 172.806 539.867C170.489 537.875 168.208 535.843 165.965 533.773C166.152 533.571 166.14 533.255 165.937 533.067C163.455 530.769 161.02 528.423 158.632 526.032C158.437 525.837 158.121 525.836 157.926 526.031C155.771 523.865 153.656 521.662 151.58 519.423C151.783 519.236 151.795 518.919 151.608 518.717C149.314 516.232 147.069 513.703 144.875 511.131C144.696 510.921 144.38 510.896 144.17 511.075C142.192 508.748 140.256 506.385 138.362 503.989C138.579 503.818 138.616 503.504 138.445 503.287C136.354 500.631 134.316 497.934 132.331 495.196C132.169 494.973 131.856 494.923 131.633 495.085C129.845 492.609 128.102 490.101 126.403 487.562C126.633 487.409 126.695 487.099 126.542 486.869C124.668 484.056 122.85 481.205 121.089 478.318C120.945 478.082 120.638 478.007 120.402 478.151C118.817 475.541 117.279 472.902 115.788 470.234C116.029 470.099 116.115 469.795 115.981 469.554C114.339 466.602 112.756 463.615 111.231 460.595C111.107 460.348 110.807 460.249 110.56 460.373C109.191 457.647 107.87 454.894 106.599 452.114C106.85 451.999 106.961 451.703 106.847 451.452C105.449 448.379 104.111 445.274 102.836 442.138C102.732 441.883 102.44 441.76 102.185 441.864C101.041 439.036 99.9474 436.184 98.9052 433.308C99.1647 433.214 99.2992 432.928 99.2057 432.668C98.0619 429.492 96.9808 426.287 95.9637 423.055C95.8809 422.792 95.6004 422.646 95.3372 422.728C94.4281 419.819 93.5709 416.888 92.7665 413.935C93.0327 413.863 93.1902 413.589 93.1182 413.322C92.2386 410.068 91.4233 406.788 90.6737 403.485C90.6126 403.216 90.3451 403.047 90.076 403.108C89.408 400.136 88.7931 397.145 88.2322 394.136C88.5035 394.085 88.6828 393.825 88.6328 393.553C88.0219 390.238 87.4766 386.901 86.9985 383.543C86.9596 383.27 86.7067 383.08 86.4335 383.118C86.0099 380.101 85.6405 377.066 85.326 374.016C85.6005 373.988 85.8004 373.742 85.7727 373.468C85.4341 370.119 85.162 366.75 84.9577 363.364C84.9411 363.088 84.7044 362.879 84.429 362.895C84.2519 359.86 84.1292 356.811 84.0617 353.748C84.3375 353.743 84.5566 353.514 84.551 353.239C84.5171 351.546 84.5 349.85 84.5 348.15C84.5 346.45 84.5171 344.754 84.551 343.061C84.5566 342.785 84.3375 342.557 84.0617 342.551C84.1292 339.489 84.2519 336.44 84.429 333.405C84.7044 333.421 84.9411 333.211 84.9577 332.936C85.162 329.55 85.4341 326.181 85.7727 322.832C85.8004 322.557 85.6005 322.312 85.326 322.284C85.6404 319.234 86.0099 316.199 86.4335 313.181C86.7067 313.22 86.9596 313.03 86.9985 312.757C87.4766 309.399 88.0219 306.061 88.6328 302.746C88.6828 302.475 88.5035 302.214 88.2322 302.164C88.7931 299.155 89.408 296.164 90.076 293.192C90.3451 293.253 90.6126 293.084 90.6737 292.815C91.4233 289.511 92.2386 286.232 93.1182 282.978C93.1902 282.711 93.0327 282.437 92.7664 282.365C93.5709 279.412 94.4281 276.481 95.3372 273.572C95.6004 273.654 95.8809 273.508 95.9637 273.245C96.9807 270.012 98.0619 266.808 99.2057 263.632C99.2992 263.372 99.1646 263.086 98.9051 262.992C99.9474 260.116 101.041 257.264 102.185 254.436C102.44 254.54 102.732 254.417 102.836 254.161C104.111 251.026 105.449 247.921 106.847 244.848C106.961 244.597 106.85 244.3 106.599 244.186C107.87 241.406 109.191 238.653 110.56 235.926C110.807 236.05 111.107 235.951 111.231 235.705C112.756 232.685 114.339 229.698 115.981 226.746C116.115 226.505 116.029 226.201 115.788 226.066C117.279 223.398 118.817 220.759 120.402 218.149C120.638 218.292 120.945 218.218 121.089 217.982C122.85 215.094 124.668 212.244 126.542 209.431C126.695 209.201 126.633 208.891 126.403 208.738C128.102 206.199 129.845 203.691 131.633 201.215C131.856 201.377 132.169 201.327 132.331 201.104C134.316 198.366 136.354 195.669 138.445 193.012C138.616 192.796 138.579 192.481 138.362 192.311C140.256 189.915 142.192 187.552 144.17 185.225C144.38 185.403 144.696 185.378 144.875 185.168C147.069 182.597 149.314 180.068 151.608 177.583C151.795 177.38 151.783 177.064 151.58 176.877C153.655 174.638 155.771 172.435 157.926 170.269C158.121 170.464 158.437 170.463 158.632 170.268C161.02 167.877 163.455 165.531 165.937 163.233C166.14 163.045 166.152 162.729 165.964 162.526C168.208 160.456 170.489 158.425 172.806 156.432C172.986 156.642 173.301 156.666 173.511 156.487C176.077 154.289 178.688 152.139 181.341 150.039C181.558 149.868 181.594 149.554 181.423 149.337C183.821 147.448 186.253 145.598 188.719 143.791C188.882 144.013 189.194 144.062 189.417 143.899C192.144 141.908 194.913 139.968 197.721 138.079C197.95 137.925 198.011 137.615 197.857 137.386C200.391 135.688 202.958 134.033 205.556 132.421C205.701 132.656 206.009 132.729 206.244 132.584C209.116 130.809 212.026 129.088 214.973 127.421C215.213 127.285 215.298 126.98 215.162 126.74C217.82 125.243 220.508 123.79 223.224 122.383C223.35 122.628 223.652 122.724 223.897 122.597C226.898 121.049 229.934 119.556 233.002 118.12C233.252 118.003 233.36 117.706 233.244 117.456C236.007 116.169 238.797 114.928 241.613 113.734C241.72 113.988 242.013 114.108 242.267 114C245.375 112.689 248.515 111.435 251.684 110.24C251.942 110.142 252.072 109.854 251.975 109.596C254.829 108.526 257.706 107.503 260.607 106.528C260.695 106.79 260.978 106.931 261.24 106.843C264.44 105.775 267.668 104.765 270.922 103.815C271.187 103.738 271.339 103.461 271.262 103.196C274.191 102.347 277.142 101.547 280.112 100.797C280.18 101.064 280.451 101.227 280.719 101.16C283.987 100.341 287.279 99.5821 290.595 98.8845C290.865 98.8277 291.038 98.5628 290.982 98.2928C293.962 97.6717 296.961 97.1001 299.977 96.5788C300.024 96.8508 300.282 97.0335 300.554 96.987C303.876 96.4194 307.219 95.9129 310.583 95.4688C310.857 95.4327 311.049 95.1817 311.013 94.9081C314.035 94.515 317.072 94.172 320.125 93.8801C320.151 94.1548 320.395 94.3566 320.67 94.3308C324.023 94.0166 327.395 93.764 330.784 93.5744C331.059 93.559 331.27 93.3232 331.255 93.0477C334.29 92.8835 337.339 92.7697 340.401 92.7071C340.406 92.983 340.634 93.2024 340.91 93.1972C342.603 93.1657 344.3 93.1499 346 93.1499C347.7 93.1499 349.397 93.1657 351.09 93.1972C351.366 93.2024 351.594 92.983 351.599 92.7071C354.661 92.7697 357.71 92.8835 360.745 93.0477C360.73 93.3232 360.941 93.559 361.216 93.5744C364.605 93.764 367.977 94.0166 371.33 94.3308C371.605 94.3566 371.849 94.1548 371.875 93.8801C374.928 94.172 377.965 94.515 380.987 94.9081C380.951 95.1817 381.143 95.4327 381.417 95.4688C384.781 95.9129 388.124 96.4194 391.446 96.987C391.718 97.0335 391.976 96.8508 392.023 96.5788C395.039 97.1001 398.038 97.6717 401.018 98.2928C400.962 98.5628 401.135 98.8277 401.405 98.8845C404.721 99.5821 408.013 100.341 411.281 101.16C411.549 101.227 411.82 101.064 411.888 100.797C414.858 101.547 417.809 102.347 420.738 103.196C420.661 103.461 420.813 103.738 421.078 103.815C424.332 104.765 427.56 105.775 430.76 106.843C431.022 106.931 431.305 106.79 431.393 106.528C434.294 107.503 437.171 108.526 440.025 109.596C439.928 109.854 440.058 110.142 440.316 110.24C443.485 111.435 446.625 112.689 449.733 114C449.987 114.108 450.28 113.988 450.387 113.734C453.203 114.928 455.993 116.169 458.756 117.456C458.64 117.706 458.748 118.003 458.997 118.12C462.066 119.556 465.102 121.049 468.103 122.597C468.348 122.724 468.65 122.628 468.776 122.383C471.492 123.79 474.18 125.243 476.838 126.74C476.702 126.98 476.787 127.285 477.027 127.421C479.974 129.088 482.884 130.809 485.756 132.584C485.991 132.729 486.299 132.656 486.444 132.421C489.042 134.033 491.609 135.688 494.143 137.386C493.989 137.615 494.05 137.925 494.279 138.079C497.087 139.967 499.856 141.908 502.583 143.899C502.806 144.062 503.118 144.013 503.281 143.791C505.747 145.598 508.179 147.448 510.576 149.337C510.405 149.554 510.442 149.868 510.659 150.039C513.312 152.139 515.923 154.289 518.489 156.487C518.699 156.666 519.014 156.642 519.194 156.432C521.511 158.425 523.792 160.456 526.035 162.526C525.848 162.729 525.86 163.045 526.063 163.233C528.545 165.531 530.98 167.877 533.368 170.268C533.563 170.463 533.879 170.464 534.074 170.269C536.229 172.435 538.344 174.638 540.42 176.877C540.217 177.064 540.205 177.38 540.392 177.583C542.686 180.068 544.931 182.597 547.125 185.168C547.304 185.378 547.62 185.403 547.83 185.225C549.808 187.552 551.744 189.914 553.638 192.311C553.421 192.481 553.384 192.796 553.555 193.012C555.646 195.669 557.684 198.366 559.669 201.104C559.831 201.327 560.143 201.377 560.367 201.215C562.155 203.691 563.898 206.199 565.597 208.738C565.367 208.891 565.305 209.201 565.458 209.431C567.332 212.243 569.15 215.094 570.911 217.982C571.055 218.218 571.362 218.292 571.598 218.149C573.183 220.759 574.721 223.398 576.212 226.066C575.971 226.201 575.885 226.505 576.019 226.746C577.66 229.698 579.244 232.684 580.769 235.705C580.893 235.951 581.193 236.05 581.44 235.926C582.809 238.653 584.13 241.406 585.401 244.186C585.15 244.3 585.039 244.597 585.153 244.848C586.551 247.921 587.889 251.026 589.164 254.161C589.268 254.417 589.56 254.54 589.815 254.436C590.959 257.264 592.053 260.116 593.095 262.992C592.835 263.086 592.701 263.372 592.794 263.632C593.938 266.808 595.019 270.012 596.036 273.245C596.119 273.508 596.4 273.654 596.663 273.572C597.572 276.481 598.429 279.412 599.234 282.365C598.967 282.437 598.81 282.711 598.882 282.978C599.761 286.232 600.577 289.511 601.326 292.815C601.387 293.084 601.655 293.253 601.924 293.192C602.592 296.164 603.207 299.155 603.768 302.164C603.496 302.214 603.317 302.475 603.367 302.746C603.978 306.061 604.523 309.399 605.002 312.757C605.04 313.03 605.293 313.22 605.567 313.181C605.99 316.199 606.36 319.234 606.674 322.284C606.4 322.312 606.2 322.557 606.227 322.832C606.566 326.181 606.838 329.55 607.042 332.936C607.059 333.211 607.296 333.421 607.571 333.405Z" stroke="white" stroke-opacity="0.5" stroke-linecap="round" stroke-linejoin="round" stroke-dasharray="10 10"/>
<rect x="260" y="684.845" width="20" height="18.4615" transform="rotate(-45.0161 260 684.845)" fill="url(#paint0_linear_1034_46)"/>
<circle cx="418.5" cy="592.15" r="11.5" fill="url(#paint1_linear_1034_46)"/>
<rect x="123" y="188.65" width="20.1717" height="18.62" fill="url(#paint2_linear_1034_46)"/>
<path d="M237.645 32.0876L228.605 7.73045L254.219 12.0797L237.645 32.0876Z" fill="url(#paint3_linear_1034_46)"/>
<path d="M688.915 360.358L679.874 336.001L705.488 340.35L688.915 360.358Z" fill="url(#paint4_linear_1034_46)"/>
<path d="M535.447 334.424C535.674 337.34 535.833 340.276 535.92 343.228C535.644 343.236 535.427 343.466 535.434 343.741C535.478 345.373 535.5 347.009 535.5 348.65C535.5 350.292 535.478 351.928 535.434 353.559C535.427 353.835 535.644 354.065 535.92 354.073C535.833 357.025 535.674 359.96 535.447 362.877C535.172 362.855 534.931 363.06 534.909 363.335C534.644 366.604 534.292 369.849 533.855 373.067C533.818 373.341 534.009 373.592 534.283 373.63C533.878 376.552 533.402 379.453 532.859 382.331C532.588 382.279 532.326 382.457 532.274 382.728C531.657 385.944 530.955 389.132 530.169 392.287C530.102 392.555 530.265 392.826 530.532 392.893C529.812 395.751 529.024 398.583 528.169 401.387C527.905 401.306 527.625 401.454 527.544 401.718C526.581 404.845 525.536 407.937 524.409 410.992C524.314 411.251 524.446 411.538 524.705 411.634C523.679 414.394 522.587 417.123 521.431 419.82C521.178 419.711 520.884 419.828 520.775 420.081C519.479 423.083 518.104 426.044 516.653 428.962C516.53 429.209 516.63 429.509 516.877 429.632C515.559 432.264 514.179 434.86 512.739 437.42C512.499 437.284 512.194 437.369 512.058 437.609C510.448 440.451 508.764 443.248 507.007 445.997C506.858 446.229 506.926 446.538 507.158 446.687C505.568 449.16 503.919 451.595 502.213 453.988C501.989 453.828 501.677 453.879 501.516 454.104C499.615 456.757 497.643 459.359 495.604 461.909C495.432 462.124 495.467 462.438 495.682 462.611C493.84 464.901 491.944 467.148 489.995 469.35C489.789 469.167 489.473 469.186 489.29 469.392C487.121 471.829 484.888 474.211 482.593 476.535C482.399 476.731 482.4 477.047 482.596 477.241C480.526 479.326 478.406 481.363 476.238 483.351C476.052 483.147 475.736 483.133 475.532 483.319C473.122 485.517 470.654 487.654 468.129 489.728C467.916 489.903 467.885 490.218 468.059 490.432C465.785 492.29 463.466 494.097 461.103 495.851C460.939 495.63 460.626 495.583 460.404 495.747C457.781 497.683 455.105 499.555 452.379 501.359C452.148 501.511 452.085 501.821 452.237 502.051C449.785 503.664 447.292 505.223 444.76 506.726C444.619 506.489 444.313 506.41 444.075 506.55C441.27 508.206 438.416 509.793 435.518 511.308C435.273 511.436 435.178 511.737 435.306 511.982C432.703 513.334 430.064 514.629 427.39 515.865C427.275 515.615 426.978 515.505 426.727 515.62C423.768 516.978 420.768 518.264 417.727 519.476C417.471 519.578 417.346 519.868 417.448 520.125C414.721 521.203 411.963 522.221 409.176 523.178C409.087 522.917 408.803 522.777 408.542 522.866C405.462 523.914 402.345 524.887 399.195 525.782C398.929 525.858 398.775 526.134 398.85 526.399C396.03 527.193 393.183 527.925 390.31 528.593C390.248 528.324 389.98 528.156 389.711 528.218C386.543 528.946 383.343 529.597 380.116 530.169C379.844 530.217 379.663 530.476 379.71 530.747C376.826 531.25 373.92 531.69 370.992 532.064C370.957 531.791 370.708 531.597 370.434 531.631C367.211 532.035 363.962 532.36 360.691 532.604C360.415 532.625 360.209 532.864 360.229 533.139C357.312 533.35 354.376 533.496 351.423 533.576C351.416 533.301 351.186 533.083 350.911 533.09C349.279 533.13 347.642 533.15 346 533.15C344.358 533.15 342.721 533.13 341.089 533.09C340.813 533.083 340.584 533.301 340.577 533.576C337.624 533.496 334.688 533.35 331.771 533.139C331.791 532.864 331.585 532.625 331.309 532.604C328.038 532.36 324.789 532.035 321.566 531.631C321.292 531.597 321.042 531.791 321.008 532.064C318.08 531.69 315.174 531.25 312.289 530.747C312.337 530.476 312.156 530.217 311.884 530.169C308.656 529.597 305.457 528.946 302.289 528.218C302.02 528.156 301.752 528.324 301.69 528.593C298.817 527.924 295.97 527.193 293.15 526.399C293.225 526.134 293.071 525.858 292.805 525.782C289.655 524.887 286.538 523.914 283.458 522.866C283.197 522.777 282.913 522.917 282.824 523.178C280.036 522.221 277.279 521.203 274.552 520.125C274.654 519.868 274.529 519.578 274.273 519.476C271.232 518.264 268.232 516.978 265.273 515.62C265.022 515.505 264.725 515.615 264.61 515.865C261.936 514.629 259.297 513.334 256.694 511.982C256.822 511.737 256.727 511.436 256.482 511.308C253.584 509.793 250.73 508.206 247.925 506.55C247.687 506.41 247.381 506.489 247.24 506.726C244.708 505.223 242.215 503.664 239.763 502.051C239.915 501.821 239.851 501.511 239.621 501.359C236.895 499.555 234.219 497.683 231.596 495.747C231.374 495.583 231.061 495.63 230.897 495.851C228.534 494.097 226.215 492.29 223.941 490.432C224.115 490.218 224.084 489.903 223.871 489.728C221.346 487.654 218.877 485.517 216.468 483.319C216.264 483.133 215.948 483.147 215.762 483.351C213.594 481.363 211.474 479.326 209.404 477.241C209.6 477.047 209.601 476.731 209.407 476.535C207.112 474.211 204.879 471.829 202.71 469.392C202.527 469.186 202.211 469.167 202.005 469.35C200.056 467.148 198.16 464.901 196.318 462.611C196.533 462.438 196.568 462.124 196.396 461.909C194.357 459.359 192.385 456.757 190.484 454.104C190.323 453.879 190.011 453.828 189.787 453.988C188.081 451.595 186.432 449.16 184.842 446.687C185.074 446.538 185.142 446.229 184.993 445.997C183.236 443.248 181.552 440.451 179.942 437.609C179.806 437.369 179.501 437.284 179.261 437.42C177.821 434.86 176.441 432.264 175.123 429.632C175.37 429.509 175.47 429.209 175.347 428.962C173.896 426.044 172.521 423.083 171.225 420.081C171.116 419.828 170.822 419.711 170.569 419.82C169.413 417.123 168.321 414.394 167.295 411.634C167.554 411.538 167.686 411.251 167.591 410.992C166.464 407.937 165.419 404.845 164.456 401.718C164.375 401.454 164.095 401.306 163.831 401.387C162.976 398.583 162.188 395.751 161.468 392.893C161.735 392.826 161.898 392.555 161.831 392.287C161.045 389.132 160.343 385.944 159.726 382.728C159.674 382.457 159.412 382.279 159.141 382.331C158.598 379.453 158.122 376.552 157.717 373.63C157.991 373.592 158.182 373.341 158.145 373.067C157.708 369.848 157.356 366.604 157.091 363.335C157.069 363.06 156.828 362.855 156.553 362.877C156.326 359.96 156.167 357.025 156.08 354.073C156.356 354.065 156.573 353.835 156.566 353.559C156.522 351.928 156.5 350.292 156.5 348.65C156.5 347.009 156.522 345.372 156.566 343.741C156.573 343.465 156.356 343.236 156.08 343.228C156.167 340.276 156.326 337.34 156.553 334.424C156.828 334.446 157.069 334.241 157.091 333.966C157.356 330.697 157.708 327.452 158.145 324.234C158.182 323.96 157.991 323.708 157.717 323.671C158.122 320.748 158.598 317.848 159.141 314.97C159.412 315.022 159.674 314.844 159.726 314.573C160.343 311.356 161.045 308.169 161.831 305.013C161.898 304.746 161.735 304.474 161.468 304.407C162.188 301.549 162.976 298.718 163.831 295.914C164.095 295.994 164.375 295.846 164.456 295.583C165.419 292.456 166.464 289.364 167.591 286.309C167.686 286.05 167.554 285.763 167.295 285.667C168.321 282.907 169.413 280.178 170.569 277.48C170.822 277.589 171.116 277.473 171.225 277.219C172.521 274.218 173.896 271.257 175.347 268.338C175.47 268.091 175.37 267.792 175.123 267.668C176.441 265.037 177.821 262.441 179.261 259.881C179.501 260.017 179.806 259.932 179.942 259.692C181.552 256.849 183.236 254.053 184.993 251.304C185.142 251.072 185.074 250.763 184.842 250.614C186.432 248.14 188.081 245.706 189.787 243.313C190.011 243.473 190.323 243.421 190.484 243.197C192.386 240.544 194.357 237.941 196.396 235.392C196.568 235.177 196.533 234.862 196.318 234.69C198.16 232.399 200.056 230.152 202.005 227.951C202.211 228.134 202.527 228.115 202.71 227.909C204.879 225.471 207.112 223.09 209.407 220.766C209.601 220.57 209.6 220.254 209.404 220.06C211.474 217.975 213.594 215.938 215.762 213.95C215.948 214.153 216.264 214.168 216.468 213.982C218.878 211.784 221.346 209.647 223.871 207.572C224.084 207.397 224.115 207.083 223.941 206.869C226.215 205.011 228.534 203.204 230.897 201.449C231.061 201.671 231.374 201.718 231.596 201.554C234.219 199.618 236.895 197.746 239.621 195.942C239.852 195.79 239.915 195.48 239.763 195.25C242.215 193.636 244.708 192.077 247.24 190.574C247.381 190.812 247.687 190.891 247.925 190.75C250.73 189.095 253.584 187.508 256.482 185.993C256.727 185.865 256.822 185.563 256.694 185.319C259.297 183.967 261.936 182.672 264.61 181.436C264.725 181.686 265.022 181.796 265.273 181.681C268.232 180.322 271.232 179.036 274.273 177.825C274.529 177.723 274.654 177.432 274.552 177.176C277.279 176.098 280.037 175.08 282.824 174.123C282.913 174.384 283.197 174.524 283.458 174.435C286.538 173.387 289.655 172.414 292.805 171.519C293.071 171.443 293.225 171.167 293.15 170.902C295.97 170.108 298.817 169.376 301.69 168.708C301.752 168.977 302.02 169.145 302.289 169.083C305.457 168.354 308.657 167.704 311.884 167.132C312.156 167.084 312.337 166.825 312.29 166.553C315.174 166.051 318.08 165.611 321.008 165.237C321.043 165.51 321.292 165.704 321.566 165.67C324.789 165.266 328.038 164.941 331.309 164.697C331.585 164.676 331.791 164.436 331.771 164.161C334.688 163.951 337.624 163.805 340.577 163.724C340.584 164 340.814 164.218 341.089 164.211C342.721 164.171 344.358 164.15 346 164.15C347.642 164.15 349.279 164.171 350.911 164.211C351.187 164.218 351.416 164 351.423 163.724C354.376 163.805 357.312 163.951 360.229 164.161C360.209 164.436 360.415 164.676 360.691 164.697C363.962 164.941 367.211 165.266 370.434 165.67C370.708 165.704 370.958 165.51 370.992 165.237C373.92 165.611 376.826 166.051 379.711 166.553C379.663 166.825 379.844 167.084 380.116 167.132C383.344 167.704 386.543 168.354 389.711 169.083C389.98 169.145 390.248 168.977 390.31 168.708C393.183 169.376 396.03 170.108 398.85 170.902C398.775 171.167 398.929 171.443 399.195 171.519C402.345 172.414 405.462 173.387 408.542 174.435C408.803 174.524 409.087 174.384 409.176 174.123C411.964 175.08 414.721 176.098 417.448 177.176C417.346 177.432 417.471 177.723 417.727 177.825C420.768 179.036 423.768 180.322 426.727 181.681C426.978 181.796 427.275 181.686 427.39 181.436C430.064 182.672 432.703 183.967 435.306 185.319C435.178 185.563 435.273 185.865 435.518 185.993C438.416 187.508 441.27 189.095 444.075 190.75C444.313 190.891 444.619 190.812 444.76 190.574C447.292 192.077 449.785 193.636 452.237 195.25C452.085 195.48 452.148 195.79 452.379 195.942C455.105 197.746 457.781 199.618 460.404 201.554C460.626 201.718 460.939 201.671 461.103 201.449C463.466 203.204 465.785 205.011 468.059 206.869C467.885 207.083 467.916 207.397 468.129 207.572C470.654 209.647 473.122 211.784 475.532 213.982C475.736 214.168 476.052 214.153 476.238 213.95C478.406 215.938 480.526 217.975 482.596 220.06C482.4 220.254 482.399 220.57 482.593 220.766C484.888 223.09 487.121 225.471 489.29 227.909C489.473 228.115 489.789 228.134 489.995 227.951C491.944 230.152 493.84 232.4 495.682 234.69C495.467 234.862 495.432 235.177 495.604 235.392C497.643 237.941 499.615 240.544 501.516 243.197C501.677 243.422 501.989 243.473 502.213 243.313C503.919 245.706 505.568 248.14 507.158 250.614C506.926 250.763 506.858 251.072 507.007 251.304C508.764 254.053 510.448 256.849 512.058 259.692C512.194 259.932 512.499 260.017 512.739 259.881C514.179 262.441 515.559 265.037 516.877 267.669C516.63 267.792 516.53 268.092 516.653 268.339C518.104 271.257 519.479 274.218 520.775 277.219C520.884 277.473 521.178 277.59 521.431 277.481C522.587 280.178 523.679 282.907 524.705 285.667C524.446 285.763 524.314 286.05 524.409 286.309C525.536 289.364 526.581 292.456 527.544 295.583C527.625 295.846 527.905 295.994 528.169 295.914C529.024 298.718 529.812 301.55 530.532 304.407C530.265 304.475 530.102 304.746 530.169 305.013C530.955 308.169 531.657 311.356 532.274 314.573C532.326 314.844 532.588 315.022 532.859 314.97C533.402 317.848 533.878 320.749 534.283 323.671C534.01 323.708 533.818 323.96 533.855 324.234C534.292 327.452 534.644 330.697 534.909 333.966C534.931 334.241 535.172 334.446 535.447 334.424Z" stroke="white" stroke-opacity="0.5" stroke-linecap="round" stroke-linejoin="round" stroke-dasharray="10 10"/>
<path d="M222.352 503.111L216.024 486.061L233.954 489.106L222.352 503.111Z" fill="url(#paint5_linear_1034_46)"/>
<rect x="514.661" y="308.006" width="20" height="18.4615" transform="rotate(-45.0161 514.661 308.006)" fill="url(#paint6_linear_1034_46)"/>
<circle cx="345.5" cy="167.15" r="11.5" fill="url(#paint7_linear_1034_46)"/>
<defs>
<linearGradient id="paint0_linear_1034_46" x1="262.005" y1="690.112" x2="286.648" y2="695.093" gradientUnits="userSpaceOnUse">
<stop stop-color="#3006A4"/>
<stop offset="1" stop-color="#FFA37B"/>
</linearGradient>
<linearGradient id="paint1_linear_1034_46" x1="414.871" y1="596.86" x2="428.424" y2="599.753" gradientUnits="userSpaceOnUse">
<stop stop-color="#836DD6"/>
<stop offset="1" stop-color="#FFA37B"/>
</linearGradient>
<linearGradient id="paint2_linear_1034_46" x1="129.903" y1="201.773" x2="141.7" y2="204.501" gradientUnits="userSpaceOnUse">
<stop stop-color="#836DD6"/>
<stop offset="1" stop-color="#FFA37B"/>
</linearGradient>
<linearGradient id="paint3_linear_1034_46" x1="250.901" y1="25.6571" x2="215.406" y2="12.5933" gradientUnits="userSpaceOnUse">
<stop stop-color="#3006A4"/>
<stop offset="1" stop-color="#FFA37B"/>
</linearGradient>
<linearGradient id="paint4_linear_1034_46" x1="697.12" y1="340.306" x2="680.325" y2="333.627" gradientUnits="userSpaceOnUse">
<stop stop-color="#836DD6"/>
<stop offset="1" stop-color="#FFA37B"/>
</linearGradient>
<linearGradient id="paint5_linear_1034_46" x1="219.304" y1="504.776" x2="212.596" y2="467.095" gradientUnits="userSpaceOnUse">
<stop stop-color="#962EFF"/>
<stop offset="1" stop-color="#2F06B1"/>
</linearGradient>
<linearGradient id="paint6_linear_1034_46" x1="516.666" y1="313.273" x2="541.309" y2="318.254" gradientUnits="userSpaceOnUse">
<stop stop-color="#3006A4"/>
<stop offset="1" stop-color="#FFA37B"/>
</linearGradient>
<linearGradient id="paint7_linear_1034_46" x1="341.871" y1="171.86" x2="355.424" y2="174.753" gradientUnits="userSpaceOnUse">
<stop stop-color="#836DD6"/>
<stop offset="1" stop-color="#FFA37B"/>
</linearGradient>
</defs>
</svg>
