<svg width="41" height="29" viewBox="0 0 41 29" fill="none" xmlns="http://www.w3.org/2000/svg">
<path d="M29.4202 19.0684C28.5362 18.7197 27.6633 18.4535 26.8627 18.0461C23.3934 16.2804 21.3215 12.2903 21.896 8.581C22.5446 4.38714 25.5117 1.24496 29.4943 0.470431C35.206 -0.641812 39.9485 3.32262 40.8029 8.32588C41.268 11.0569 40.8584 13.7513 40.0856 16.374C38.2528 22.585 34.0496 26.5329 27.9487 28.6124C27.654 28.7133 27.3557 28.8216 27.0499 28.862C26.1603 28.9813 25.3875 28.5812 24.9798 27.8305C24.5869 27.1074 24.687 26.2613 25.2374 25.5822C25.8397 24.8352 26.4624 24.101 27.0313 23.3283C28.0099 21.994 28.8197 20.5606 29.4202 19.0684Z" fill="#FDFDFF"/>
<path d="M7.72893 19.0497C6.98949 18.8038 6.38718 18.6386 5.81453 18.4036C2.07096 16.8748 -0.351242 12.9305 0.0416476 9.03217C0.479015 4.69332 3.53132 1.28501 7.65666 0.47561C13.3888 -0.649481 17.9811 3.2709 18.9615 8.08144C19.3507 9.99024 19.1598 11.8972 18.8633 13.7913C18.3444 17.1189 17.1194 20.1583 14.9399 22.7774C12.4288 25.7947 9.20041 27.7201 5.44573 28.8268C4.61547 29.0709 3.73703 28.7038 3.25704 27.9733C2.7789 27.2465 2.82708 26.36 3.37565 25.6479C4.18552 24.5981 5.05469 23.5849 5.78487 22.4819C6.50393 21.3953 7.07659 20.2152 7.72893 19.0497Z" fill="#FDFDFF"/>
</svg>
