<svg width="70" height="52" viewBox="0 0 70 52" fill="none" xmlns="http://www.w3.org/2000/svg">
<path d="M0 13.2514C0.507406 12.199 1.3606 11.8832 2.49569 11.887C19.4731 11.9095 36.4506 11.902 53.428 11.902C53.5859 11.902 53.7475 11.8983 53.9054 11.902C55.1983 11.9396 55.935 12.6688 55.9387 13.9655C55.9425 25.7711 55.9425 37.5806 55.9387 49.3862C55.9387 50.6829 55.1908 51.4196 53.8941 51.4196C36.6197 51.4234 19.3453 51.4196 2.07097 51.4309C1.04112 51.4309 0.443511 50.8821 0 50.0552C0 37.7873 0 25.5193 0 13.2514ZM9.67455 24.4218C10.3586 24.4218 11.0389 24.4444 11.723 24.4181C12.8956 24.3692 13.6248 23.6363 13.6586 22.4636C13.6887 21.4413 13.6849 20.4152 13.6586 19.3929C13.6286 18.1976 12.8806 17.4234 11.6891 17.3933C10.3473 17.3595 9.00552 17.3632 7.66372 17.3895C6.45722 17.4158 5.7055 18.1525 5.6604 19.359C5.62282 20.3814 5.62657 21.4074 5.65664 22.4298C5.69423 23.6814 6.43091 24.3842 7.69754 24.4218C8.35153 24.4406 9.01304 24.4256 9.67455 24.4218ZM23.1979 46.3906C16.5302 46.3906 9.93765 46.3906 3.34137 46.3906C3.34137 46.977 3.34137 47.5107 3.34137 48.0519C9.98275 48.0519 16.579 48.0519 23.1979 48.0519C23.1979 47.4769 23.1979 46.9619 23.1979 46.3906ZM7.63365 40.5273C7.63365 41.1775 7.63365 41.7075 7.63365 42.2374C8.51315 42.2374 9.33628 42.2374 10.2158 42.2374C10.2158 41.7526 10.2459 41.3241 10.2007 40.8994C10.1857 40.7641 9.97899 40.5498 9.8512 40.5461C9.1258 40.5085 8.40415 40.5273 7.63365 40.5273ZM23.1828 40.5235C22.7656 40.5235 22.3898 40.5235 22.0102 40.5235C20.4353 40.5235 20.4353 40.5235 20.5932 42.1247C20.5969 42.1622 20.642 42.1961 20.6759 42.2449C21.4952 42.2449 22.3221 42.2449 23.1828 42.2449C23.1828 41.6736 23.1828 41.1437 23.1828 40.5235ZM41.9494 15.2284C41.3517 15.2284 40.7992 15.2284 40.2618 15.2284C40.2618 16.1116 40.2618 16.9423 40.2618 17.7692C40.8481 17.7692 41.3818 17.7692 41.9494 17.7692C41.9494 16.916 41.9494 16.1041 41.9494 15.2284ZM46.1552 17.7767C46.1552 16.8972 46.1552 16.0552 46.1552 15.2246C45.5613 15.2246 45.0276 15.2246 44.4864 15.2246C44.4864 16.1003 44.4864 16.9272 44.4864 17.7767C45.0652 17.7767 45.5989 17.7767 46.1552 17.7767ZM48.0909 15.2133C48.0909 16.0778 48.0909 16.9084 48.0909 17.7729C48.6697 17.7729 49.2034 17.7729 49.7747 17.7729C49.7747 16.9047 49.7747 16.0778 49.7747 15.2133C49.2034 15.2133 48.6659 15.2133 48.0909 15.2133ZM3.32633 40.5686C3.32633 41.1437 3.32633 41.6774 3.32633 42.2525C4.18704 42.2525 5.01017 42.2525 5.87088 42.2525C5.87088 41.6812 5.87088 41.1474 5.87088 40.5686C5.01393 40.5686 4.18704 40.5686 3.32633 40.5686ZM36.6235 15.2171C36.6235 16.074 36.6235 16.9047 36.6235 17.7504C37.2098 17.7504 37.7586 17.7504 38.3036 17.7504C38.3036 16.8784 38.3036 16.0665 38.3036 15.2171C37.7323 15.2171 37.2023 15.2171 36.6235 15.2171ZM11.971 40.5273C11.971 41.17 11.971 41.7075 11.971 42.2374C12.8543 42.2374 13.6849 42.2374 14.5644 42.2374C14.5644 41.7789 14.5983 41.3654 14.5457 40.967C14.5269 40.8092 14.3201 40.5536 14.1886 40.5461C13.4669 40.5047 12.7415 40.5273 11.971 40.5273ZM16.2596 42.2487C17.1353 42.2487 17.9659 42.2487 18.8229 42.2487C18.8229 41.6736 18.8229 41.1399 18.8229 40.5686C17.9547 40.5686 17.124 40.5686 16.2596 40.5686C16.2596 41.1324 16.2596 41.6511 16.2596 42.2487Z" fill="white"/>
<path d="M57.7131 14.9012C57.7131 14.5479 57.7169 14.2548 57.7131 13.9616C57.6943 11.714 56.1946 10.1692 53.947 10.1391C51.5979 10.1091 49.2526 10.1316 46.9035 10.1316C43.393 10.1316 39.8825 10.0715 36.372 10.1542C34.3311 10.203 32.4029 9.69563 30.4447 9.30099C25.3143 8.26362 20.1876 7.19995 15.0609 6.14755C14.8391 6.10245 14.6211 6.04607 14.3242 5.97465C14.3768 5.67773 14.4182 5.39583 14.4746 5.11394C14.7151 3.92999 14.9444 2.74605 15.2 1.56961C15.4555 0.393183 16.3614 -0.189395 17.5378 0.0549119C22.7772 1.12986 28.0129 2.20857 33.2524 3.2948C42.1902 5.14777 51.1243 7.0045 60.0622 8.86123C62.7797 9.42502 65.5009 9.98129 68.2221 10.5451C69.6804 10.8495 70.2254 11.6952 69.9172 13.1798C69.6428 14.5141 69.3609 15.8446 69.0715 17.2316C65.2603 16.446 61.5017 15.6755 57.7131 14.9012Z" fill="white"/>
<path d="M57.8034 24.2751C60.9455 24.8765 64.0651 25.4741 67.2411 26.083C66.869 27.9022 66.5157 29.6349 66.1586 31.3676C65.0386 36.7573 63.9148 42.1471 62.7947 47.5369C62.4978 48.9652 61.7235 49.5102 60.3066 49.2433C59.5924 49.108 58.8708 48.984 58.1717 48.7923C57.9875 48.7434 57.7319 48.4615 57.7319 48.2849C57.7131 40.3543 57.7207 32.4275 57.7244 24.4969C57.7282 24.4556 57.7545 24.4142 57.8034 24.2751Z" fill="white"/>
<path d="M68.7212 18.9681C68.3416 20.7985 67.977 22.55 67.6049 24.3541C65.5377 23.9595 63.5306 23.5798 61.5235 23.1965C60.4072 22.9822 59.2872 22.7793 58.1746 22.5387C58.0055 22.5011 57.7424 22.2982 57.7386 22.1666C57.7086 20.37 57.7198 18.5734 57.7198 16.7017C61.4108 17.4609 65.034 18.2088 68.7212 18.9681Z" fill="white"/>
<path d="M24.9532 10.0902C21.1383 10.0902 17.3233 10.0902 13.4482 10.0902C13.6099 9.2934 13.7602 8.54544 13.9256 7.72607C17.6541 8.48906 21.3149 9.23702 24.9758 9.98873C24.9682 10.0226 24.9607 10.0564 24.9532 10.0902Z" fill="white"/>
<path d="M11.8693 19.2799C11.8693 20.3699 11.8693 21.4561 11.8693 22.6664C11.0462 22.6664 10.2381 22.6814 9.43002 22.6626C8.77979 22.6476 7.92659 22.8242 7.54698 22.486C7.21998 22.1928 7.41918 21.2945 7.41167 20.6668C7.40039 19.1521 7.40791 19.1521 8.95644 19.1559C9.86601 19.1596 10.7718 19.1671 11.6814 19.1784C11.7415 19.1784 11.7979 19.2386 11.8693 19.2799Z" fill="white"/>
</svg>
