<svg width="61" height="61" viewBox="0 0 61 61" fill="none" xmlns="http://www.w3.org/2000/svg">
<path d="M-9.17285 0.718506H70.8271V60.7185H-9.17285" fill="#BD3D44"/>
<path d="M-9.17285 7.63123H70.8271H-9.17285ZM-9.17285 16.8437H70.8271H-9.17285ZM-9.17285 26.0937H70.8271H-9.17285ZM-9.17285 35.3437H70.8271H-9.17285ZM-9.17285 44.5937H70.8271H-9.17285ZM-9.17285 53.8437H70.8271H-9.17285Z" fill="black"/>
<path fill-rule="evenodd" clip-rule="evenodd" d="M70.8271 9.9436H-9.17285V5.3186H70.8271V9.9436ZM70.8271 19.1561H-9.17285V14.5311H70.8271V19.1561ZM70.8271 28.4061H-9.17285V23.7811H70.8271V28.4061ZM70.8271 37.6561H-9.17285V33.0311H70.8271V37.6561ZM70.8271 46.9061H-9.17285V42.2811H70.8271V46.9061ZM70.8271 56.1561H-9.17285V51.5311H70.8271V56.1561Z" fill="white"/>
<path d="M-9.17285 0.718506H36.4271V33.031H-9.17285" fill="#192F5D"/>
</svg>
