<svg width="61" height="61" viewBox="0 0 61 61" fill="none" xmlns="http://www.w3.org/2000/svg">
<path d="M-9.17285 0.666504H70.8272V60.6665H-9.17285V0.666504Z" fill="#00008B"/>
<path d="M-4.48535 0.666504L10.7647 11.979L25.9522 0.666504H30.8272V4.5415L15.8272 15.729L30.8272 26.854V30.6665H25.8272L10.8272 19.479L-4.11035 30.6665H-9.17285V26.9165L5.76465 15.7915L-9.17285 4.6665V0.666504H-4.48535Z" fill="white"/>
<path d="M17.3272 18.229L30.8272 28.1665V30.6665L13.8897 18.229H17.3272ZM5.82715 19.479L6.20215 21.6665L-5.79785 30.6665H-9.17285L5.82715 19.479ZM30.8272 0.666504V0.854004L15.2647 12.604L15.3897 9.854L27.7022 0.666504H30.8272ZM-9.17285 0.666504L5.76465 11.6665H2.01465L-9.17285 3.2915V0.666504Z" fill="#FF0000"/>
<path d="M5.88965 0.666504V30.6665H15.8897V0.666504H5.88965ZM-9.17285 10.6665V20.6665H30.8272V10.6665H-9.17285Z" fill="white"/>
<path d="M-9.17285 12.729V18.729H30.8272V12.729H-9.17285ZM7.88965 0.666504V30.6665H13.8897V0.666504H7.88965Z" fill="#FF0000"/>
<path d="M56.7014 50.2539L54.1389 50.5789L54.4139 53.1414L52.5639 51.3414L50.7264 53.1539L50.9764 50.5914L48.4139 50.2914L50.5764 48.8914L49.2139 46.7039L51.6639 47.5164L52.5264 45.0789L53.4139 47.5039L55.8514 46.6664L54.5139 48.8664L56.6889 50.2539H56.7014ZM56.2389 35.6039L56.5764 33.9789L55.3514 32.8539L57.0014 32.6664L57.6889 31.1539L58.3764 32.6664L60.0264 32.8539L58.8014 33.9789L59.1389 35.6039L57.6889 34.7789L56.2389 35.6039ZM43.2264 28.1039L40.6889 28.3789L40.9139 30.9164L39.1139 29.1039L37.2639 30.8664L37.5639 28.3289L35.0389 27.9914L37.2014 26.6414L35.8889 24.4539L38.3014 25.3039L39.2014 22.9164L40.0389 25.3289L42.4639 24.5414L41.1014 26.7039L43.2389 28.1039H43.2264ZM68.7014 24.0039L66.0889 24.3414L66.3764 26.9539L64.4889 25.1164L62.6139 26.9664L62.8764 24.3414L60.2639 24.0414L62.4764 22.6039L61.0889 20.3664L63.5889 21.2039L64.4639 18.7289L65.3639 21.2039L67.8514 20.3414L66.4764 22.5914L68.7014 24.0039ZM56.6889 13.5664L54.1014 13.8539L54.3389 16.4539L52.5014 14.6039L50.6139 16.4039L50.9139 13.8164L48.3264 13.4664L50.5389 12.0914L49.2014 9.85393L51.6639 10.7164L52.5764 8.27893L53.4264 10.7414L55.9014 9.92893L54.5139 12.1289L56.6889 13.5664ZM20.0764 48.8789L14.3514 49.5539L14.9264 55.2914L10.8264 51.2414L6.70137 55.2664L7.31387 49.5289L1.58887 48.8039L6.45137 45.7039L3.45137 40.7789L8.90137 42.6539L10.8764 37.2289L12.8139 42.6664L18.2764 40.8289L15.2389 45.7289L20.0889 48.8664L20.0764 48.8789Z" fill="white"/>
</svg>
