<svg width="70" height="63" viewBox="0 0 70 63" fill="none" xmlns="http://www.w3.org/2000/svg">
<path d="M34.9974 47.8797C25.8676 47.831 18.5086 40.4395 18.5519 31.3531C18.5953 22.2883 26.0301 14.9347 35.084 14.9997C44.1433 15.0701 51.4536 22.4454 51.4103 31.4776C51.367 40.5369 43.9701 47.9285 34.9974 47.8797ZM36.1995 40.8348C36.9468 40.8348 37.6453 40.851 38.3493 40.8294C40.6344 40.7644 42.0207 39.3673 42.0531 37.0876C42.0694 36.1345 42.0586 35.1869 42.0586 34.2339C42.0531 31.6455 40.6669 30.2592 38.0731 30.2538C37.4504 30.2538 36.8331 30.2538 36.2049 30.2538C36.2049 28.2286 36.2049 26.3388 36.2049 24.3731C36.9089 24.3731 37.5587 24.3677 38.2139 24.3731C39.1832 24.3893 39.5189 24.6709 39.7139 25.6077C39.8817 26.42 40.3582 26.799 41.073 26.7016C41.7228 26.6095 42.0856 26.0842 42.0315 25.2937C41.9069 23.4634 40.4449 22.088 38.528 22.0284C37.759 22.0067 36.9901 22.023 36.1778 22.023C36.1075 21.0212 36.4215 19.7595 35.0244 19.7324C33.5191 19.6999 33.9144 21.0754 33.7411 22.023C33.048 22.023 32.3927 22.0176 31.7375 22.023C29.447 22.0392 27.9957 23.4796 27.9633 25.7756C27.947 26.799 27.9524 27.8279 27.9633 28.8513C27.9849 31.1581 29.4091 32.5714 31.7267 32.5877C32.3982 32.5931 33.075 32.5877 33.7627 32.5877C33.7627 34.5912 33.7627 36.4865 33.7627 38.463C33.0425 38.463 32.3657 38.4738 31.6942 38.4576C30.7899 38.4359 30.4758 38.1597 30.2971 37.2825C30.1293 36.4486 29.669 36.0533 28.9759 36.1508C28.2719 36.2482 27.8983 36.8277 27.9957 37.6832C28.2015 39.5027 29.5715 40.7265 31.5372 40.8131C32.279 40.8456 33.0263 40.8185 33.7519 40.8185C33.909 42.6867 34.1147 43.147 34.9053 43.1307C36.4703 43.1145 36.0641 41.8311 36.1995 40.8348Z" fill="white"/>
<path d="M10.3481 62.9334C6.83917 59.4244 3.37897 55.9642 0 52.5853C3.40063 49.1792 6.86083 45.719 10.3481 42.2263C10.3481 43.5368 10.3481 44.8634 10.3481 46.1955C10.3481 47.5222 10.7109 47.8796 12.0538 47.8796C16.4454 47.8796 20.8424 47.8742 25.234 47.8904C25.6347 47.8904 26.0733 47.9608 26.4199 48.1395C34.6995 52.2658 44.2299 50.116 49.9428 42.8111C50.0294 42.6974 50.1269 42.5891 50.3651 42.3075C50.2731 42.6758 50.2406 42.8436 50.1864 43.0007C47.2136 51.5618 39.2535 57.2422 30.205 57.2638C24.1781 57.2747 18.1457 57.2638 12.1188 57.2638C10.6622 57.2638 10.3481 57.5779 10.3481 59.0075C10.3481 60.3125 10.3481 61.6013 10.3481 62.9334Z" fill="white"/>
<path d="M19.8027 20.3659C20.4255 17.9616 21.5301 15.8335 23.0355 13.922C27.335 8.46368 32.9612 5.65328 39.925 5.61538C45.9519 5.58289 51.9788 5.60996 58.0003 5.60996C59.2945 5.60996 59.6519 5.25257 59.6573 3.95838C59.6627 2.62629 59.6573 1.29961 59.6573 0C63.1392 3.48186 66.5939 6.93664 70.0054 10.3481C66.6264 13.7271 63.1879 17.1656 59.6573 20.6962C59.6573 19.8677 59.6573 19.0825 59.6573 18.2919C59.6573 17.68 59.6681 17.0736 59.6573 16.4617C59.6411 15.422 59.2187 14.9942 58.1736 14.9942C55.0762 14.9834 51.9788 14.9888 48.8814 14.9888C48.4644 14.9888 48.0529 14.9671 47.636 14.9942C45.5782 15.1133 43.6722 14.7505 41.7065 13.9599C33.9955 10.868 25.3423 13.348 20.1655 19.9165C20.041 20.0681 19.9219 20.2197 19.8027 20.3659Z" fill="white"/>
<path d="M36.1564 38.4304C36.1564 36.5838 36.1456 34.7915 36.1727 32.9937C36.1727 32.8637 36.4164 32.6255 36.5571 32.62C37.234 32.5876 37.9217 32.5821 38.5986 32.6309C39.2755 32.6796 39.6708 33.0966 39.687 33.7789C39.7141 34.9702 39.7087 36.1669 39.6816 37.3582C39.6708 37.9322 39.3567 38.3762 38.7719 38.4195C37.9326 38.4791 37.0824 38.4304 36.1564 38.4304Z" fill="white"/>
<path d="M33.768 24.4056C33.768 26.355 33.768 28.2448 33.768 30.2105C32.9016 30.2105 32.0352 30.2646 31.1796 30.1888C30.6327 30.1401 30.3403 29.669 30.3294 29.1437C30.2969 27.9254 30.2915 26.707 30.3348 25.494C30.3565 24.8929 30.7464 24.4652 31.3475 24.4218C32.1326 24.3623 32.9286 24.4056 33.768 24.4056Z" fill="white"/>
</svg>
