<svg width="10" height="10" viewBox="0 0 10 10" fill="none" xmlns="http://www.w3.org/2000/svg">
<path d="M0.686127 9.64981L0.64653 9.6484L0.63168 9.64911L0.606931 9.64698L0.577941 9.64911C0.547349 9.64556 0.517236 9.63868 0.488137 9.6286L0.463389 9.61941L0.442176 9.61375C0.411856 9.60452 0.382304 9.59293 0.353788 9.5791L0.343181 9.57557L0.294391 9.54233L0.242065 9.50556L0.208124 9.48435L0.180546 9.45677L0.160747 9.42142L0.131049 9.37616L0.0978148 9.32737L0.0942795 9.31677C0.0780158 9.28495 0.0688235 9.2602 0.0504387 9.21918L0.0476101 9.2008L0.0419537 9.17676C0.029253 9.14985 0.0234219 9.12021 0.024983 9.09049L0.0271038 9.0615L0.0214474 9.03322L0.0221544 9.01837L0.017205 8.97523L0.0179117 8.96038L0.452075 1.01109C0.462163 0.819135 0.542954 0.63771 0.678874 0.50179C0.814794 0.36587 0.996219 0.285079 1.18817 0.274991C1.27736 0.265327 1.36757 0.275785 1.45218 0.305593C1.53679 0.335402 1.61364 0.383803 1.67707 0.447236C1.74051 0.510668 1.78891 0.587517 1.81872 0.672126C1.84852 0.756735 1.85898 0.846951 1.84932 0.936136L1.52829 7.19686L7.68719 1.03796C7.81329 0.901704 7.98756 0.820006 8.17296 0.810234C8.35835 0.800463 8.54025 0.863389 8.67997 0.985634C8.8044 1.1247 8.86899 1.30722 8.85973 1.4936C8.85046 1.67999 8.76809 1.8552 8.63047 1.98124L2.47157 8.14014L8.72593 7.81275C8.8154 7.80393 8.90571 7.81507 8.99036 7.84536C9.07501 7.87565 9.15189 7.92433 9.21546 7.9879C9.27903 8.05147 9.32772 8.12835 9.358 8.213C9.38829 8.29765 9.39943 8.38796 9.39061 8.47743C9.37838 8.66864 9.2969 8.84885 9.16142 8.98433C9.02593 9.11982 8.84573 9.2013 8.65451 9.21353L0.686127 9.64981Z" fill="#DB79E5"/>
</svg>
