<svg width="10" height="11" viewBox="0 0 10 11" fill="none" xmlns="http://www.w3.org/2000/svg">
<path d="M9.18887 0.806242L9.22847 0.807656L9.24332 0.806949L9.26807 0.80907L9.29706 0.806949C9.32765 0.810495 9.35776 0.817371 9.38686 0.827455L9.41161 0.836647L9.43282 0.842304C9.46314 0.851536 9.4927 0.863121 9.52121 0.876952L9.53182 0.880488L9.58061 0.913722L9.63294 0.950491L9.66688 0.971705L9.69445 0.999282L9.71425 1.03464L9.74395 1.07989L9.77719 1.12868L9.78072 1.13929C9.79698 1.17111 9.80618 1.19586 9.82456 1.23687L9.82739 1.25525L9.83305 1.2793C9.84575 1.30621 9.85158 1.33585 9.85002 1.36556L9.8479 1.39455L9.85355 1.42284L9.85285 1.43769L9.85779 1.48082L9.85709 1.49567L9.42292 9.44497C9.41284 9.63692 9.33205 9.81834 9.19613 9.95426C9.06021 10.0902 8.87878 10.171 8.68683 10.1811C8.59764 10.1907 8.50743 10.1803 8.42282 10.1505C8.33821 10.1207 8.26136 10.0723 8.19793 10.0088C8.13449 9.94539 8.08609 9.86854 8.05628 9.78393C8.02648 9.69932 8.01602 9.6091 8.02568 9.51992L8.34671 3.25919L2.18781 9.4181C2.06171 9.55435 1.88744 9.63605 1.70204 9.64582C1.51665 9.65559 1.33475 9.59267 1.19503 9.47042C1.0706 9.33135 1.00601 9.14883 1.01527 8.96245C1.02454 8.77607 1.10691 8.60086 1.24453 8.47481L7.40343 2.31591L1.14907 2.64331C1.0596 2.65212 0.969286 2.64098 0.884637 2.6107C0.799989 2.58041 0.72311 2.53173 0.659538 2.46816C0.595967 2.40458 0.547285 2.3277 0.516998 2.24306C0.486712 2.15841 0.475574 2.0681 0.484388 1.97862C0.496617 1.78741 0.578097 1.6072 0.713581 1.47172C0.849066 1.33624 1.02927 1.25476 1.22049 1.24253L9.18887 0.806242Z" fill="#6E4FF9"/>
</svg>
