<svg width="50" height="51" viewBox="0 0 50 51" fill="none" xmlns="http://www.w3.org/2000/svg">
<g clip-path="url(#clip0_289_202)">
<path d="M41.1209 33.0127C41.1469 33.1427 41.1642 33.1773 41.1642 33.212C41.1729 35.3429 41.1816 35.3429 39.3105 36.3911C37.1708 37.5865 35.0312 38.7906 32.8829 39.9687C32.7096 40.064 32.4151 40.1333 32.2678 40.0467C28.5603 38.0283 24.5669 36.7549 20.5041 35.6981C18.7716 35.2476 17.0045 34.9185 15.2373 34.6239C13.7907 34.3814 12.3701 34.572 11.0014 35.1264C10.7848 35.213 10.5683 35.2823 10.3084 35.3776C10.0485 33.9396 10.0745 32.5276 10.3344 31.1243C10.9754 27.59 12.396 24.3415 14.1112 21.2144C16.0863 17.6194 18.3732 14.2411 21.2578 11.2958C21.6823 10.854 22.124 10.6634 22.7477 10.6808C24.8094 10.7241 26.8711 10.6894 28.9328 10.7068C29.1407 10.7068 29.4265 10.7587 29.5565 10.8973C30.9511 12.4133 32.3111 13.9552 33.7145 15.5144C33.0388 16.2248 32.4757 16.8398 31.8867 17.4289C31.4102 17.914 31.1417 18.4424 31.4362 19.1094C31.7308 19.7677 32.2852 19.9497 32.9695 19.941C34.2342 19.9237 35.4903 19.9323 36.833 19.9323C36.833 20.1662 36.833 20.3741 36.833 20.5734C36.833 24.1163 36.833 27.6506 36.833 31.1936C36.833 32.467 37.3787 33.0127 38.6521 33.0127C39.4837 33.0214 40.298 33.0127 41.1209 33.0127ZM25.641 32.5449C29.2793 32.5623 32.2505 29.6343 32.2678 26.0047C32.2852 22.3492 29.3486 19.3953 25.6757 19.3779C22.0807 19.3606 19.1008 22.3059 19.0662 25.8921C19.0315 29.5564 21.9768 32.5276 25.641 32.5449Z" fill="white"/>
<path d="M7.03418 38.3057C8.87063 37.604 10.6118 36.833 12.4223 36.27C14.2327 35.7069 16.0519 36.166 17.8363 36.5732C21.7518 37.4827 25.5979 38.6002 29.2795 40.2374C30.1717 40.6359 31.0293 41.095 31.9389 41.5541C31.6011 42.4463 31.0726 43.0354 30.1717 43.2C28.6991 43.4685 27.2265 43.3126 25.7712 43.0267C24.134 42.7062 22.5227 42.2904 20.9029 41.8919C20.4784 41.788 20.1579 41.866 19.9413 42.2384C19.7074 42.6456 19.9153 43.1567 20.4091 43.2953C23.3717 44.1355 26.3429 44.9152 29.4614 44.8026C30.8907 44.7506 32.1035 44.2568 32.8918 42.9921C33.0823 42.6802 33.2816 42.3337 33.3336 41.9786C33.4029 41.4761 33.6887 41.2423 34.0959 41.017C37.0151 39.3971 39.9257 37.7599 42.8363 36.1314C43.7805 35.603 44.5255 35.6376 45.1579 36.1834C45.9895 36.911 46.0848 38.0978 45.3571 38.9467C45.2185 39.1113 45.0626 39.2585 44.8893 39.3798C41.3983 41.7274 37.9333 44.1355 34.3904 46.4051C32.1988 47.8084 29.8166 48.8306 27.2265 49.3071C25.2081 49.6795 23.2417 49.5496 21.31 48.796C19.3263 48.025 17.3079 47.306 15.1683 47.1154C14.2067 47.0288 13.2279 47.1761 12.2577 47.1934C12.0671 47.1934 11.7812 47.1241 11.7119 46.9942C10.1613 44.1529 8.63674 41.2856 7.03418 38.3057Z" fill="white"/>
<path d="M44.7076 31.4883C42.542 31.4883 40.4716 31.4883 38.3406 31.4883C38.3406 31.2457 38.3406 31.0378 38.3406 30.8299C38.3406 27.079 38.3406 23.3282 38.3406 19.5773C38.3406 18.6244 38.1414 18.4339 37.1799 18.4339C35.8372 18.4339 34.4858 18.4339 33.0479 18.4339C33.1605 18.2866 33.2124 18.2 33.2817 18.1307C35.56 15.7398 37.8382 13.3403 40.1251 10.9494C41.026 10.0052 41.9962 9.99657 42.8885 10.9321C45.1494 13.297 47.4016 15.6705 49.6539 18.0354C49.7492 18.1307 49.8271 18.2433 49.9917 18.4252C48.675 18.4252 47.4623 18.4252 46.2409 18.4252C44.7163 18.4252 44.6989 18.4512 44.6989 19.9844C44.6989 23.5967 44.6989 27.2003 44.6989 30.8126C44.7076 31.0291 44.7076 31.237 44.7076 31.4883Z" fill="white"/>
<path d="M29.8421 0C29.9633 0.0693001 30.05 0.1386 30.1452 0.181913C31.1241 0.571726 31.3407 1.30804 31.2021 2.29556C31.0115 3.69889 30.6563 5.01559 29.6775 6.08108C29.5215 6.24567 29.2357 6.38427 29.0018 6.38427C26.7669 6.41026 24.5233 6.40159 22.2884 6.38427C22.0891 6.38427 21.8206 6.22834 21.708 6.06376C20.7897 4.67775 20.2873 3.14449 20.1401 1.48129C20.1054 1.06549 20.2094 0.805613 20.5818 0.580388C21.5001 0.0086625 21.4914 -0.0086625 22.3923 0.589051C23.6744 1.44664 23.4924 1.42931 24.7572 0.597713C25.6754 -0.0086625 25.6754 -0.0086625 26.6023 0.606376C27.7631 1.37734 27.7631 1.37734 28.9238 0.606376C29.2357 0.398475 29.5475 0.199238 29.8421 0Z" fill="white"/>
<path d="M5.21516 38.2622C5.32778 38.4095 5.47504 38.5741 5.57033 38.756C7.0083 41.4327 8.43762 44.1007 9.87559 46.7775C10.1268 47.2452 10.3607 47.7303 10.6379 48.1808C10.8804 48.5706 10.7678 48.7785 10.3867 48.9691C9.84094 49.2376 9.30387 49.5148 8.79278 49.8267C8.35965 50.0952 8.13443 50.0259 7.89188 49.5581C6.46257 46.8381 4.9986 44.1441 3.55196 41.4327C3.30075 40.9649 3.02355 40.5058 2.81565 40.0207C2.75501 39.8734 2.80699 39.5356 2.9196 39.4663C3.58661 39.0592 4.27961 38.704 4.97261 38.3402C5.01593 38.3142 5.07656 38.3055 5.21516 38.2622Z" fill="white"/>
<path d="M6.44509 49.9913C5.97731 50.2338 5.57883 50.4677 5.16303 50.6583C4.70392 50.8749 4.32277 50.7623 4.08022 50.3118C2.74619 47.8603 1.42949 45.4088 0.121454 42.9487C-0.129759 42.4809 0.0261666 42.0911 0.48528 41.8225C0.86643 41.606 1.26491 41.4067 1.71536 41.1729C3.28327 44.1094 4.85118 47.0287 6.44509 49.9913Z" fill="white"/>
<path d="M25.6761 9.19951C23.7963 9.19951 21.9079 9.20817 20.0281 9.19084C19.7943 9.19084 19.5084 9.15619 19.3351 9.01759C19.1879 8.90498 19.0926 8.60179 19.1272 8.41988C19.1619 8.23797 19.3698 8.03873 19.5517 7.94344C19.7076 7.85682 19.9329 7.8828 20.1234 7.8828C23.8223 7.8828 27.5126 7.8828 31.2114 7.8828C31.3154 7.8828 31.428 7.8828 31.532 7.8828C31.9651 7.90879 32.2683 8.10803 32.2509 8.56714C32.2423 8.99161 31.9478 9.19084 31.532 9.19084C30.4838 9.19951 29.4356 9.19951 28.3875 9.19951C27.4952 9.19951 26.5857 9.19951 25.6761 9.19951Z" fill="white"/>
<path d="M24.9311 30.1889C24.9311 30.3708 24.8964 30.622 24.9397 30.8646C25.009 31.289 25.2776 31.5316 25.7193 31.5056C26.1265 31.4796 26.3604 31.2371 26.4123 30.8299C26.4297 30.6913 26.3777 30.5267 26.4297 30.4055C26.499 30.2409 26.5943 30.0156 26.7415 29.955C27.7724 29.5132 28.3701 28.7682 28.4134 27.6421C28.448 26.6373 27.7897 25.7364 26.6982 25.3032C26.2564 25.13 25.7713 25.0693 25.3122 24.9394C24.9397 24.8355 24.6105 24.6535 24.5932 24.1944C24.5672 23.718 24.8791 23.4841 25.2776 23.3628C25.9013 23.1636 26.421 23.3628 26.8628 23.8306C27.1746 24.1598 27.5471 24.1944 27.911 23.8999C28.2315 23.6314 28.2661 23.1463 27.9369 22.8084C27.6511 22.5226 27.3306 22.228 26.9667 22.0894C26.525 21.9162 26.3777 21.691 26.421 21.2319C26.4643 20.7814 26.2131 20.4869 25.7453 20.4349C25.2862 20.3916 24.9224 20.7034 24.9484 21.2145C24.983 21.717 24.7925 21.9422 24.342 22.1501C23.5624 22.5139 23.1293 23.1723 23.1033 24.0558C23.06 25.2859 23.8742 26.1695 25.2256 26.4467C25.6847 26.542 26.1611 26.6892 26.5509 26.9404C27.0967 27.3043 27.0447 27.9973 26.525 28.3784C25.806 28.8895 24.8184 28.6729 24.3853 27.902C24.1688 27.5122 23.8482 27.3216 23.4151 27.5035C22.982 27.6854 22.8434 28.0579 23.0253 28.4651C23.1812 28.8116 23.3891 29.1754 23.675 29.4179C24.0042 29.7298 24.4546 29.9204 24.9311 30.1889Z" fill="white"/>
<path d="M24.9307 30.1888C24.4629 29.9203 24.0038 29.7297 23.6486 29.4265C23.3628 29.184 23.1549 28.8201 22.9989 28.4736C22.817 28.0665 22.9556 27.694 23.3888 27.5121C23.8219 27.3302 24.1424 27.5121 24.359 27.9106C24.7921 28.6815 25.7796 28.8981 26.4986 28.387C27.0183 28.0145 27.0703 27.3129 26.5246 26.949C26.1434 26.6978 25.6583 26.5506 25.1992 26.4553C23.8479 26.1781 23.0336 25.2945 23.0769 24.0644C23.1116 23.1808 23.5447 22.5225 24.3156 22.1587C24.7574 21.9508 24.948 21.7255 24.922 21.2231C24.8874 20.712 25.2512 20.3915 25.719 20.4435C26.1867 20.4955 26.4293 20.79 26.3946 21.2404C26.3513 21.6996 26.4986 21.9248 26.9404 22.098C27.3042 22.2366 27.6247 22.5398 27.9106 22.817C28.2398 23.1549 28.2138 23.64 27.8846 23.9085C27.5208 24.203 27.1483 24.1684 26.8364 23.8392C26.3946 23.3628 25.8749 23.1722 25.2512 23.3714C24.8614 23.4927 24.5409 23.7266 24.5669 24.203C24.5928 24.6621 24.9134 24.8354 25.2858 24.948C25.745 25.0779 26.2301 25.1386 26.6718 25.3118C27.7633 25.7449 28.4217 26.6458 28.387 27.6507C28.3437 28.7768 27.746 29.5305 26.7152 29.9636C26.5679 30.0242 26.4726 30.2408 26.4033 30.414C26.3513 30.5353 26.4033 30.6999 26.386 30.8385C26.334 31.2456 26.1001 31.4969 25.693 31.5142C25.2599 31.5402 24.9827 31.2976 24.9134 30.8731C24.896 30.6219 24.9307 30.3707 24.9307 30.1888Z" fill="white"/>
</g>
<defs>
<clipPath id="clip0_289_202">
<rect width="50" height="50.771" fill="white"/>
</clipPath>
</defs>
</svg>
