<svg width="70" height="71" viewBox="0 0 70 71" fill="none" xmlns="http://www.w3.org/2000/svg">
<path d="M54.9825 20.05C54.9825 25.8756 54.9825 31.6455 54.9825 37.466C52.8144 37.5622 50.707 37.8712 48.7314 38.7223C47.6372 39.1934 46.543 39.705 45.535 40.3281C42.916 41.9491 41.685 44.3351 41.8927 47.4252C41.9282 47.9469 41.7661 48.1799 41.3304 48.5194C38.8482 50.4443 36.29 52.3389 35.3022 55.5506C34.8514 57.0146 34.9932 58.4785 35.4441 59.9932C35.0895 59.9932 34.8058 59.9932 34.5221 59.9932C24.8618 59.9932 15.2015 59.9932 5.54116 59.9932C2.04582 59.9932 0.0195312 57.9618 0.0195312 54.4665C0.0195312 43.2966 0.0195312 32.1318 0.0195312 20.9619C0.0195312 20.6782 0.0195312 20.3945 0.0195312 20.0551C18.3422 20.05 36.6345 20.05 54.9825 20.05ZM17.4861 47.1111C17.5368 48.5244 18.0129 49.3248 18.9754 49.7554C20.0038 50.2164 20.9865 50.0441 21.7818 49.2488C26.7817 44.2692 31.7714 39.2846 36.7459 34.2847C37.7895 33.2361 37.7743 31.7113 36.7763 30.7184C35.7835 29.7256 34.2536 29.7154 33.2101 30.7539C28.2102 35.7335 23.2205 40.7131 18.2561 45.7281C17.8356 46.1638 17.6431 46.8223 17.4861 47.1111ZM37.5109 44.9683C37.5007 43.6107 36.366 42.4912 35.0084 42.4962C33.6103 42.5013 32.4857 43.6563 32.5161 45.0544C32.5465 46.4069 33.7014 47.5113 35.054 47.491C36.4167 47.4657 37.5261 46.3259 37.5109 44.9683ZM20.0443 37.4862C21.407 37.471 22.5164 36.3464 22.5113 34.9838C22.5062 33.5907 21.3462 32.4661 19.948 32.4965C18.5904 32.5269 17.4912 33.6768 17.5216 35.0395C17.5469 36.4022 18.6765 37.5014 20.0443 37.4862Z" fill="white"/>
<path d="M0.0296819 14.9389C0.0296819 13.1152 -0.0463038 11.3473 0.044879 9.5844C0.176588 7.05154 2.34471 5.05058 4.91303 5.00499C6.57458 4.9746 8.2412 4.99993 10.0142 4.99993C10.0142 4.21474 10.0091 3.47515 10.0142 2.73049C10.0243 1.12972 11.0425 0.0102003 12.4964 6.88312e-05C13.9452 -0.0100626 14.9989 1.11453 15.0141 2.69503C15.0191 3.42449 15.0141 4.14889 15.0141 4.93407C18.3372 4.93407 21.6248 4.93407 25.0138 4.93407C25.0138 4.17422 25.0036 3.40423 25.0138 2.63424C25.034 1.10946 26.0877 6.88312e-05 27.5112 6.88312e-05C28.9296 6.88312e-05 29.9934 1.10946 30.0136 2.63424C30.0238 3.38396 30.0136 4.13876 30.0136 4.9442C33.3469 4.9442 36.6345 4.9442 40.0133 4.9442C40.0133 4.16408 40.0032 3.3941 40.0133 2.61904C40.0336 1.09933 41.0974 -0.0100626 42.5259 6.88312e-05C43.9443 0.0102003 44.9929 1.12466 45.0081 2.64944C45.0183 3.39916 45.0081 4.14889 45.0081 4.99486C46.5127 4.99486 47.9614 4.99486 49.4102 4.99486C53.0221 4.99486 55.0079 6.98569 55.0129 10.5975C55.0129 12.0261 55.0129 13.4546 55.0129 14.9389C36.6852 14.9389 18.398 14.9389 0.0296819 14.9389Z" fill="white"/>
<path d="M42.764 60.0642C42.4144 60.0186 42.1004 60.0135 41.8015 59.9325C40.0893 59.4765 39.4004 57.354 40.5857 55.9913C41.4722 54.9731 42.4499 54.0258 43.4529 53.1241C44.3546 52.3136 45.692 52.3288 46.5987 53.1444C47.5663 54.0157 48.4984 54.9275 49.3595 55.9001C50.5044 57.1919 50.0485 59.0865 48.4832 59.8159C48.3211 59.8919 48.1539 59.9527 47.9969 60.0236C49.3494 64.2839 54.557 66.2545 58.5842 64.0661C58.9033 63.8938 59.2174 63.7115 59.5416 63.5494C60.8536 62.8858 62.2568 63.2404 62.9508 64.4105C63.66 65.5959 63.3156 66.9941 62.1099 67.8248C56.7808 71.5228 49.4001 70.4691 45.312 65.4338C44.0456 63.8432 43.2148 62.0449 42.764 60.0642Z" fill="white"/>
<path d="M67.2919 52.4606C68.5026 52.4859 69.3942 52.9519 69.8147 54.0512C70.2655 55.2112 69.8552 56.1737 68.989 57.0045C68.2747 57.6884 67.5959 58.4128 66.8816 59.0966C65.7165 60.2162 64.2981 60.2111 63.1381 59.0865C62.4086 58.3773 61.6994 57.658 60.9851 56.9336C59.43 55.3581 59.7947 53.4433 61.821 52.5517C61.8919 52.5213 61.9527 52.4757 62.0135 52.4403C60.747 48.0736 55.2204 46.1132 51.1222 48.5245C50.5447 48.8639 49.8203 49.1121 49.1668 49.1071C48.0574 49.102 47.2469 48.2763 46.9936 47.1922C46.7555 46.174 47.1608 45.2014 48.0878 44.5631C54.7847 39.933 64.369 43.2562 66.8867 51.0776C67.0336 51.5183 67.1501 51.9692 67.2919 52.4606Z" fill="white"/>
</svg>
