<svg width="70" height="70" viewBox="0 0 70 70" fill="none" xmlns="http://www.w3.org/2000/svg">
<path d="M54.2015 34.9878C54.2055 45.5577 45.5828 54.1763 35.009 54.1763C24.4392 54.1763 15.8125 45.5577 15.8125 34.9878C15.8125 24.418 24.4352 15.7993 35.005 15.7993C45.5828 15.7993 54.2015 24.41 54.2015 34.9878ZM35.009 42.5731C35.6155 42.2419 36.222 42.0543 36.637 41.6633C38.3527 40.0274 40.0206 38.3355 41.6805 36.6437C42.6461 35.6622 42.6581 34.3374 41.7004 33.3638C40.0405 31.668 38.3607 29.9922 36.6689 28.3323C35.6514 27.3308 34.3506 27.3388 33.3371 28.3363C31.6653 29.9842 30.0054 31.6441 28.3575 33.316C27.3559 34.3295 27.348 35.6422 28.3375 36.6477C30.0014 38.3395 31.6653 40.0274 33.381 41.6673C33.796 42.0583 34.4025 42.2419 35.009 42.5731Z" fill="white"/>
<path d="M65.7814 36.4722C65.7735 31.6961 65.2388 28.484 64.2333 25.3398C63.7265 23.7557 64.8876 22.3272 66.4717 22.5267C67.4932 22.6544 68.0239 23.3288 68.3271 24.2704C69.604 28.2446 70.1267 32.3105 69.9751 36.4802C69.7476 42.7088 67.7565 48.3947 64.6722 53.7375C64.333 54.328 64.2452 54.7749 64.5605 55.4572C66.2602 59.1282 64.3689 63.4654 60.5624 64.7862C56.6839 66.1348 52.5222 63.8764 51.5287 59.8823C50.5551 55.976 53.1607 51.9938 57.1628 51.4472C58.2162 51.3035 59.3334 51.531 60.4107 51.6746C60.7898 51.7265 60.9693 51.7145 61.1649 51.3714C64.0457 46.2879 65.8293 40.9013 65.7814 36.4722Z" fill="white"/>
<path d="M9.1411 18.429C4.14147 26.4172 2.89256 35.0478 5.65373 44.2371C5.79338 44.696 5.92107 45.1987 5.87718 45.6616C5.79338 46.6312 4.97541 47.3733 4.03374 47.4691C3.0402 47.5728 2.09853 47.0501 1.8272 46.0366C1.28055 44.0136 0.682034 41.9827 0.378784 39.9158C-0.866135 31.4208 0.989273 23.5523 5.47816 16.2783C5.80535 15.7516 5.84526 15.3606 5.54201 14.77C4.16541 12.0887 4.76792 8.83272 6.93855 6.74988C9.09721 4.67501 12.3332 4.20817 14.9507 5.58875C17.676 7.02919 19.0925 9.95794 18.5578 13.0423C18.063 15.8952 15.6889 18.2215 12.7402 18.5567C11.607 18.6843 10.4339 18.4848 9.1411 18.429Z" fill="white"/>
<path d="M18.4539 60.8399C26.2785 65.7917 34.8014 67.0406 43.875 64.451C44.1782 64.3632 44.4815 64.2595 44.7887 64.1797C45.9618 63.8764 47.0591 64.463 47.4062 65.5722C47.7414 66.6376 47.2027 67.8227 46.0735 68.1578C44.3458 68.6726 42.5981 69.1833 40.8225 69.4825C32.0283 70.9669 23.8725 69.1793 16.3112 64.5188C15.7965 64.1996 15.4094 64.1198 14.8069 64.435C12.1375 65.8236 8.86164 65.2331 6.77879 63.0784C4.69595 60.9277 4.21713 57.7117 5.58175 55.0702C6.99825 52.329 9.96291 50.8966 13.0912 51.4432C15.8922 51.93 18.2105 54.3001 18.5576 57.2209C18.6973 58.3541 18.5058 59.5312 18.4539 60.8399Z" fill="white"/>
<path d="M51.7473 9.31541C48.7308 7.40015 45.5706 5.84799 42.0753 5.04997C36.541 3.7851 31.0665 3.98061 25.644 5.68839C24.411 6.07543 23.5332 5.86395 22.9387 5.06194C22.0489 3.8649 22.5636 2.22097 24.0758 1.78206C25.8993 1.25137 27.7468 0.728662 29.6221 0.441373C35.9904 -0.536207 42.2149 0.0742817 48.1602 2.63195C50.1274 3.47786 51.9708 4.61105 53.8541 5.6445C54.2292 5.84799 54.4846 5.9278 54.8996 5.69637C57.4612 4.27987 60.5376 4.58711 62.7162 6.42656C64.8789 8.25005 65.7248 11.1868 64.8549 13.8602C63.9651 16.6054 61.5471 18.4767 58.6383 18.6723C54.0656 18.9795 50.4146 14.5864 51.5319 10.1254C51.5997 9.86206 51.6675 9.60669 51.7473 9.31541Z" fill="white"/>
</svg>
