<svg width="187" height="41" viewBox="0 0 187 41" fill="none" xmlns="http://www.w3.org/2000/svg">
<g clip-path="url(#clip0_289_179)">
<path fill-rule="evenodd" clip-rule="evenodd" d="M19.8703 5.18126L22.5073 0.614258L29.9833 4.93126L27.3473 9.49726C26.8843 10.2983 27.5773 11.2723 28.4853 11.0973L33.5373 10.1223L35.1723 18.5993L30.1203 19.5733C21.9483 21.1493 15.7093 12.3893 19.8703 5.18126Z" fill="#3A724F"/>
<path fill-rule="evenodd" clip-rule="evenodd" d="M15.302 36.0471L12.665 40.6141L5.188 36.2981L7.825 31.7311C8.288 30.9301 7.595 29.9561 6.686 30.1311L1.635 31.1051L0 22.6291L5.052 21.6551C13.224 20.0791 19.462 28.8391 15.302 36.0471Z" fill="#DC8E43"/>
<path fill-rule="evenodd" clip-rule="evenodd" d="M15.5305 5.18126L12.8945 0.614258L5.41747 4.93126L8.05447 9.49726C8.51647 10.2983 7.82447 11.2723 6.91547 11.0973L1.86347 10.1223L0.230469 18.5993L5.28147 19.5733C13.4545 21.1493 19.6935 12.3893 15.5315 5.18126H15.5305Z" fill="white"/>
<path fill-rule="evenodd" clip-rule="evenodd" d="M19.6502 36.0471L22.2852 40.6141L29.7622 36.2981L27.1252 31.7311C26.6632 30.9301 27.3552 29.9561 28.2642 30.1311L33.3152 31.1051L34.9502 22.6291L29.8982 21.6551C21.7262 20.0791 15.4882 28.8391 19.6482 36.0471H19.6502Z" fill="#C85D1B"/>
<path d="M163.114 30.7673V22.2673C163.114 21.0893 163.385 20.0323 163.927 19.0973C164.488 18.1433 165.283 17.3953 166.312 16.8523C167.341 16.3103 168.566 16.0393 169.987 16.0393C170.65 16.0328 171.311 16.1176 171.951 16.2913C172.55 16.4413 173.092 16.6563 173.578 16.9363C174.083 17.1983 174.513 17.5163 174.869 17.8903H174.925C175.306 17.5109 175.741 17.1895 176.215 16.9363C176.736 16.6494 177.293 16.4326 177.871 16.2913C178.521 16.1188 179.191 16.0341 179.863 16.0393C181.284 16.0393 182.509 16.3093 183.538 16.8523C184.566 17.3953 185.361 18.1423 185.922 19.0973C186.484 20.0323 186.764 21.0883 186.764 22.2673V30.7673H182.387V22.4073C182.387 21.9403 182.266 21.5193 182.023 21.1453C181.8 20.7541 181.481 20.4259 181.097 20.1913C180.692 19.9446 180.224 19.818 179.75 19.8263C179.245 19.8263 178.787 19.9483 178.376 20.1913C177.991 20.4255 177.673 20.7538 177.45 21.1453C177.223 21.5267 177.106 21.9635 177.113 22.4073V30.7673H172.765V22.4073C172.765 21.9403 172.643 21.5193 172.4 21.1453C172.172 20.7484 171.843 20.4192 171.446 20.1913C171.041 19.9446 170.573 19.818 170.099 19.8263C169.594 19.8263 169.136 19.9483 168.725 20.1913C168.34 20.4255 168.022 20.7538 167.799 21.1453C167.573 21.5269 167.456 21.9636 167.462 22.4073V30.7673H163.114ZM153.603 31.1043C152.126 31.1043 150.844 30.8243 149.76 30.2623C148.694 29.6823 147.871 28.9063 147.291 27.9343C146.711 26.9433 146.421 25.8483 146.421 24.6513V16.3753H150.77V24.5393C150.77 25.0443 150.891 25.5123 151.134 25.9423C151.377 26.3533 151.705 26.6903 152.116 26.9523C152.546 27.1953 153.033 27.3173 153.575 27.3173C154.099 27.3173 154.566 27.1953 154.978 26.9523C155.408 26.6903 155.745 26.3533 155.988 25.9423C156.231 25.5123 156.353 25.0443 156.353 24.5393V16.3753H160.701V24.6513C160.701 25.8483 160.42 26.9433 159.859 27.9343C159.298 28.9063 158.485 29.6833 157.419 30.2623C156.371 30.8233 155.099 31.1043 153.603 31.1043ZM132.414 30.7673V27.3173H139.344C139.531 27.3173 139.699 27.2793 139.849 27.2043C139.998 27.1113 140.12 26.9893 140.213 26.8403C140.305 26.6929 140.353 26.5228 140.353 26.3493C140.353 26.1757 140.305 26.0056 140.213 25.8583C140.126 25.714 139.999 25.5973 139.849 25.5213C139.697 25.4274 139.522 25.3788 139.344 25.3813H136.819C135.883 25.3813 135.032 25.2313 134.266 24.9323C133.538 24.6308 132.914 24.1238 132.47 23.4733C132.04 22.8003 131.825 21.9303 131.825 20.8643C131.825 20.0413 132.021 19.2933 132.414 18.6203C132.823 17.9493 133.391 17.39 134.069 16.9923C134.776 16.5819 135.58 16.3688 136.398 16.3753H143.327V19.8543H137.071C136.823 19.8493 136.582 19.9398 136.398 20.1073C136.316 20.1874 136.251 20.2835 136.208 20.3896C136.164 20.4957 136.143 20.6096 136.145 20.7243C136.145 20.9863 136.23 21.2103 136.398 21.3973C136.582 21.5647 136.823 21.6552 137.071 21.6503H139.54C140.587 21.6503 141.485 21.8093 142.233 22.1263C143 22.4263 143.589 22.9123 144.001 23.5863C144.431 24.2593 144.646 25.1283 144.646 26.1943C144.646 27.0363 144.431 27.8033 144.001 28.4943C143.593 29.183 143.013 29.7537 142.317 30.1503C141.625 30.5623 140.84 30.7673 139.961 30.7673H132.414ZM122.94 16.0393C124.156 16.0393 125.231 16.2353 126.166 16.6283C127.084 16.9784 127.91 17.5351 128.579 18.2553C129.261 18.9609 129.787 19.8021 130.122 20.7243C130.477 21.6593 130.655 22.6973 130.655 23.8383C130.655 25.2593 130.356 26.5223 129.757 27.6253C129.204 28.6823 128.369 29.5659 127.345 30.1783C126.316 30.7953 125.119 31.1043 123.754 31.1043C123.174 31.1043 122.622 31.0293 122.098 30.8803C121.602 30.7343 121.129 30.5167 120.696 30.2343C120.287 29.9571 119.935 29.6048 119.658 29.1963H119.573V36.8563H115.225V23.8373C115.225 22.2473 115.543 20.8723 116.179 19.7133C116.796 18.5724 117.731 17.6362 118.872 17.0193C120.032 16.3653 121.388 16.0383 122.94 16.0383V16.0393ZM122.94 19.7983C122.267 19.7983 121.678 19.9663 121.173 20.3033C120.686 20.6213 120.312 21.0703 120.05 21.6503C119.789 22.2103 119.658 22.8473 119.658 23.5573C119.658 24.2683 119.789 24.9043 120.05 25.4653C120.312 26.0263 120.686 26.4753 121.173 26.8123C121.678 27.1303 122.267 27.2893 122.94 27.2893C123.613 27.2893 124.193 27.1293 124.679 26.8123C125.168 26.4729 125.556 26.0074 125.802 25.4653C126.082 24.9043 126.222 24.2683 126.222 23.5573C126.222 22.8473 126.082 22.2113 125.802 21.6503C125.54 21.0703 125.166 20.6203 124.679 20.3033C124.193 19.9663 123.613 19.7983 122.94 19.7983ZM108.617 30.7673V16.3753H112.994V30.7673H108.617ZM110.805 14.7483C110.113 14.7483 109.515 14.4963 109.01 13.9913C108.505 13.4863 108.252 12.8873 108.252 12.1953C108.252 11.5033 108.505 10.9053 109.01 10.4003C109.515 9.87626 110.113 9.61426 110.805 9.61426C111.497 9.61426 112.096 9.87626 112.601 10.4003C113.106 10.9053 113.358 11.5033 113.358 12.1953C113.358 12.8873 113.106 13.4853 112.601 13.9913C112.096 14.4963 111.497 14.7483 110.805 14.7483ZM99.105 31.1043C97.628 31.1043 96.3 30.7773 95.121 30.1223C93.9644 29.4883 92.9966 28.559 92.316 27.4293C91.643 26.2883 91.306 25.0073 91.306 23.5853C91.306 22.1453 91.643 20.8643 92.316 19.7423C92.9966 18.6125 93.9644 17.6833 95.121 17.0493C96.3 16.3753 97.628 16.0393 99.105 16.0393C100.583 16.0393 101.901 16.3753 103.061 17.0493C104.213 17.6788 105.173 18.6097 105.838 19.7423C106.53 20.8643 106.876 22.1453 106.876 23.5853C106.876 25.0073 106.53 26.2883 105.838 27.4293C105.173 28.5619 104.213 29.4927 103.061 30.1223C101.883 30.7773 100.564 31.1043 99.105 31.1043ZM99.105 27.3173C99.797 27.3173 100.396 27.1483 100.901 26.8123C101.406 26.4756 101.813 26.0107 102.079 25.4653C102.36 24.9043 102.5 24.2683 102.5 23.5573C102.5 22.8653 102.36 22.2393 102.079 21.6773C101.813 21.1321 101.406 20.6676 100.901 20.3313C100.396 19.9943 99.797 19.8263 99.105 19.8263C98.413 19.8263 97.805 19.9943 97.282 20.3313C96.7766 20.6679 96.3697 21.1328 96.103 21.6783C95.8172 22.2632 95.6734 22.9073 95.683 23.5583C95.683 24.2683 95.823 24.9043 96.103 25.4653C96.3698 26.0107 96.7767 26.4755 97.282 26.8123C97.805 27.1483 98.413 27.3173 99.105 27.3173ZM77.174 36.4633V32.7313H84.355C84.636 32.7313 84.87 32.6383 85.057 32.4513C85.1482 32.3707 85.2205 32.2711 85.2689 32.1594C85.3173 32.0478 85.3405 31.9269 85.337 31.8053V28.6353H85.253C84.8978 29.0484 84.4927 29.4158 84.047 29.7293C83.635 30.0293 83.167 30.2533 82.644 30.4033C82.0874 30.5597 81.5111 30.6351 80.933 30.6273C79.661 30.6273 78.52 30.3273 77.51 29.7293C76.519 29.1123 75.733 28.2613 75.153 27.1763C74.593 26.0923 74.312 24.8573 74.312 23.4733C74.312 22.1083 74.602 20.8643 75.182 19.7423C75.78 18.6203 76.65 17.7223 77.791 17.0493C78.931 16.3753 80.325 16.0393 81.971 16.0393C83.542 16.0393 84.898 16.3663 86.039 17.0213C87.1848 17.6432 88.1215 18.5893 88.732 19.7413C89.368 20.9013 89.686 22.2673 89.686 23.8383V32.2543C89.686 33.5443 89.303 34.5643 88.536 35.3123C87.788 36.0793 86.75 36.4623 85.422 36.4623L77.174 36.4633ZM81.999 26.9803C82.672 26.9803 83.252 26.8303 83.739 26.5313C84.2195 26.2193 84.6068 25.7832 84.86 25.2693C85.126 24.7282 85.2606 24.1321 85.253 23.5293C85.253 22.8563 85.123 22.2393 84.861 21.6783C84.599 21.1173 84.225 20.6773 83.738 20.3593C83.252 20.0223 82.672 19.8543 81.998 19.8543C81.344 19.8543 80.764 20.0133 80.259 20.3313C79.773 20.6493 79.399 21.0793 79.137 21.6213C78.876 22.1643 78.745 22.7713 78.745 23.4453C78.745 24.1003 78.875 24.6983 79.137 25.2413C79.399 25.7643 79.773 26.1853 80.26 26.5033C80.764 26.8213 81.344 26.9803 81.999 26.9803ZM65.473 31.1043C63.996 31.1043 62.668 30.7773 61.49 30.1223C60.333 29.4885 59.3648 28.5592 58.684 27.4293C58.011 26.2883 57.674 25.0073 57.674 23.5853C57.674 22.1453 58.011 20.8643 58.684 19.7423C59.3648 18.6123 60.333 17.683 61.49 17.0493C62.668 16.3753 63.996 16.0393 65.473 16.0393C66.951 16.0393 68.269 16.3753 69.429 17.0493C70.5814 17.6789 71.5412 18.6097 72.206 19.7423C72.898 20.8643 73.244 22.1453 73.244 23.5853C73.244 25.0073 72.898 26.2883 72.206 27.4293C71.5412 28.5618 70.5814 29.4926 69.429 30.1223C68.251 30.7773 66.932 31.1043 65.473 31.1043ZM65.473 27.3173C66.165 27.3173 66.763 27.1483 67.269 26.8123C67.7739 26.4754 68.1804 26.0106 68.447 25.4653C68.727 24.9043 68.867 24.2683 68.867 23.5573C68.867 22.8653 68.727 22.2393 68.447 21.6773C68.1803 21.1323 67.7738 20.6678 67.269 20.3313C66.764 19.9943 66.165 19.8263 65.473 19.8263C64.781 19.8263 64.173 19.9943 63.65 20.3313C63.1446 20.6679 62.7377 21.1328 62.471 21.6783C62.1853 22.2632 62.0414 22.9073 62.051 23.5583C62.051 24.2683 62.191 24.9043 62.471 25.4653C62.7378 26.0107 63.1447 26.4755 63.65 26.8123C64.173 27.1483 64.781 27.3173 65.473 27.3173ZM51.547 30.7673C50.331 30.7673 49.265 30.4973 48.349 29.9543C47.4581 29.4377 46.7219 28.6918 46.217 27.7943C45.712 26.8963 45.459 25.9043 45.459 24.8203V11.1293H50.172V25.1563C50.172 25.6063 50.332 25.9983 50.649 26.3353C50.967 26.6713 51.359 26.8403 51.827 26.8403H57.017V30.7673H51.547Z" fill="white"/>
</g>
<defs>
<clipPath id="clip0_289_179">
<rect width="187" height="40" fill="white" transform="translate(0 0.614258)"/>
</clipPath>
</defs>
</svg>
