<svg width="160" height="33" viewBox="0 0 160 33" fill="none" xmlns="http://www.w3.org/2000/svg">
<g clip-path="url(#clip0_289_127)">
<path d="M48.0732 24.8524V8.56445H51.1446V22.0602H58.5905V24.8524H48.0732Z" fill="white"/>
<path d="M65.2217 25.1781C64.0738 25.1781 63.0422 24.9454 62.127 24.48C61.2117 24.0147 60.4904 23.3399 59.963 22.4557C59.4356 21.5715 59.1719 20.5089 59.1719 19.2679V18.8956C59.1719 17.6546 59.4356 16.592 59.963 15.7078C60.4904 14.8236 61.2117 14.1488 62.127 13.6834C63.0422 13.2181 64.0738 12.9854 65.2217 12.9854C66.3696 12.9854 67.4012 13.2181 68.3164 13.6834C69.2316 14.1488 69.9529 14.8236 70.4804 15.7078C71.0078 16.592 71.2715 17.6546 71.2715 18.8956V19.2679C71.2715 20.5089 71.0078 21.5715 70.4804 22.4557C69.9529 23.3399 69.2316 24.0147 68.3164 24.48C67.4012 24.9454 66.3696 25.1781 65.2217 25.1781ZM65.2217 22.572C66.1214 22.572 66.866 22.285 67.4555 21.7111C68.0449 21.1216 68.3397 20.2839 68.3397 19.1981V18.9654C68.3397 17.8795 68.0449 17.0496 67.4555 16.4756C66.8815 15.8862 66.1369 15.5914 65.2217 15.5914C64.322 15.5914 63.5774 15.8862 62.9879 16.4756C62.3984 17.0496 62.1037 17.8795 62.1037 18.9654V19.1981C62.1037 20.2839 62.3984 21.1216 62.9879 21.7111C63.5774 22.285 64.322 22.572 65.2217 22.572Z" fill="white"/>
<path d="M72.3721 19.1283V18.756C72.3721 17.546 72.6125 16.5144 73.0934 15.6612C73.5743 14.7926 74.2103 14.1333 75.0014 13.6834C75.8081 13.2181 76.6845 12.9854 77.6308 12.9854C78.6856 12.9854 79.4845 13.1715 80.0274 13.5438C80.5704 13.9161 80.9659 14.3039 81.2141 14.7072H81.633V13.3111H84.5183V26.8999C84.5183 27.6911 84.2856 28.3193 83.8202 28.7847C83.3548 29.2656 82.7344 29.506 81.9587 29.506H74.2336V26.9465H80.9349C81.3693 26.9465 81.5864 26.7138 81.5864 26.2484V23.2468H81.1676C81.0125 23.495 80.7953 23.7509 80.5161 24.0147C80.2369 24.2628 79.8646 24.4723 79.3992 24.6429C78.9338 24.8135 78.3444 24.8989 77.6308 24.8989C76.6845 24.8989 75.8081 24.6739 75.0014 24.2241C74.2103 23.7587 73.5743 23.0994 73.0934 22.2462C72.6125 21.3776 72.3721 20.3382 72.3721 19.1283ZM78.4685 22.3393C79.3682 22.3393 80.1205 22.0523 80.7255 21.4784C81.3305 20.9044 81.633 20.0978 81.633 19.0585V18.8258C81.633 17.7709 81.3305 16.9643 80.7255 16.4058C80.136 15.8319 79.3837 15.5449 78.4685 15.5449C77.5687 15.5449 76.8164 15.8319 76.2114 16.4058C75.6064 16.9643 75.3039 17.7709 75.3039 18.8258V19.0585C75.3039 20.0978 75.6064 20.9044 76.2114 21.4784C76.8164 22.0523 77.5687 22.3393 78.4685 22.3393Z" fill="white"/>
<path d="M92.213 25.1781C91.0651 25.1781 90.0335 24.9454 89.1182 24.48C88.203 24.0147 87.4817 23.3399 86.9543 22.4557C86.4269 21.5715 86.1631 20.5089 86.1631 19.2679V18.8956C86.1631 17.6546 86.4269 16.592 86.9543 15.7078C87.4817 14.8236 88.203 14.1488 89.1182 13.6834C90.0335 13.2181 91.0651 12.9854 92.213 12.9854C93.3609 12.9854 94.3924 13.2181 95.3077 13.6834C96.2229 14.1488 96.9442 14.8236 97.4717 15.7078C97.9991 16.592 98.2628 17.6546 98.2628 18.8956V19.2679C98.2628 20.5089 97.9991 21.5715 97.4717 22.4557C96.9442 23.3399 96.2229 24.0147 95.3077 24.48C94.3924 24.9454 93.3609 25.1781 92.213 25.1781ZM92.213 22.572C93.1127 22.572 93.8573 22.285 94.4467 21.7111C95.0362 21.1216 95.3309 20.2839 95.3309 19.1981V18.9654C95.3309 17.8795 95.0362 17.0496 94.4467 16.4756C93.8728 15.8862 93.1282 15.5914 92.213 15.5914C91.3132 15.5914 90.5687 15.8862 89.9792 16.4756C89.3897 17.0496 89.095 17.8795 89.095 18.9654V19.1981C89.095 20.2839 89.3897 21.1216 89.9792 21.7111C90.5687 22.285 91.3132 22.572 92.213 22.572Z" fill="white"/>
<path d="M99.9217 24.8525V13.3113H102.854V24.8525H99.9217ZM101.388 11.9618C100.86 11.9618 100.411 11.7911 100.038 11.4498C99.6813 11.1086 99.5029 10.6587 99.5029 10.1002C99.5029 9.54181 99.6813 9.09195 100.038 8.75068C100.411 8.40941 100.86 8.23877 101.388 8.23877C101.931 8.23877 102.381 8.40941 102.737 8.75068C103.094 9.09195 103.273 9.54181 103.273 10.1002C103.273 10.6587 103.094 11.1086 102.737 11.4498C102.381 11.7911 101.931 11.9618 101.388 11.9618Z" fill="white"/>
<path d="M105.056 29.506V13.3111H107.941V14.7072H108.36C108.623 14.2574 109.034 13.8618 109.593 13.5205C110.151 13.1638 110.95 12.9854 111.99 12.9854C112.92 12.9854 113.781 13.2181 114.572 13.6834C115.364 14.1333 116 14.8003 116.48 15.6845C116.961 16.5687 117.202 17.6391 117.202 18.8956V19.2679C117.202 20.5244 116.961 21.5947 116.48 22.4789C116 23.3631 115.364 24.0379 114.572 24.5033C113.781 24.9531 112.92 25.1781 111.99 25.1781C111.292 25.1781 110.702 25.0928 110.221 24.9221C109.756 24.767 109.376 24.5653 109.081 24.3171C108.802 24.0534 108.577 23.7897 108.406 23.526H107.987V29.506H105.056ZM111.105 22.6185C112.021 22.6185 112.773 22.3316 113.362 21.7576C113.967 21.1681 114.27 20.315 114.27 19.1981V18.9654C114.27 17.8485 113.967 17.0031 113.362 16.4291C112.757 15.8396 112.005 15.5449 111.105 15.5449C110.206 15.5449 109.453 15.8396 108.848 16.4291C108.243 17.0031 107.941 17.8485 107.941 18.9654V19.1981C107.941 20.315 108.243 21.1681 108.848 21.7576C109.453 22.3316 110.206 22.6185 111.105 22.6185Z" fill="white"/>
<path d="M123.64 25.1781C122.135 25.1781 120.902 24.8523 119.94 24.2008C118.979 23.5493 118.397 22.6185 118.195 21.4086L120.894 20.7105C121.003 21.2535 121.181 21.68 121.43 21.9903C121.693 22.3005 122.011 22.5255 122.384 22.6651C122.771 22.7892 123.19 22.8512 123.64 22.8512C124.323 22.8512 124.827 22.7349 125.152 22.5022C125.478 22.254 125.641 21.9515 125.641 21.5947C125.641 21.2379 125.486 20.9665 125.176 20.7803C124.865 20.5787 124.369 20.4158 123.687 20.2917L123.035 20.1753C122.228 20.0202 121.492 19.8108 120.825 19.5471C120.157 19.2679 119.622 18.8878 119.219 18.4069C118.816 17.9261 118.614 17.3056 118.614 16.5455C118.614 15.3975 119.033 14.5211 119.871 13.9161C120.708 13.2956 121.81 12.9854 123.175 12.9854C124.462 12.9854 125.533 13.2723 126.386 13.8463C127.239 14.4203 127.797 15.1726 128.061 16.1034L125.339 16.941C125.215 16.3516 124.959 15.9327 124.571 15.6845C124.198 15.4363 123.733 15.3122 123.175 15.3122C122.616 15.3122 122.19 15.4131 121.895 15.6147C121.6 15.8009 121.453 16.0646 121.453 16.4058C121.453 16.7781 121.608 17.0574 121.918 17.2435C122.228 17.4141 122.647 17.546 123.175 17.6391L123.826 17.7554C124.695 17.9105 125.478 18.12 126.176 18.3837C126.89 18.6319 127.448 18.9964 127.852 19.4773C128.27 19.9427 128.48 20.5787 128.48 21.3853C128.48 22.5953 128.038 23.5338 127.154 24.2008C126.285 24.8523 125.114 25.1781 123.64 25.1781Z" fill="white"/>
<path d="M134.4 25.0384C133.5 25.0384 132.709 24.8367 132.026 24.4334C131.359 24.0146 130.84 23.4406 130.467 22.7115C130.095 21.9824 129.909 21.1448 129.909 20.1985V13.311H132.841V19.9658C132.841 20.8345 133.05 21.486 133.469 21.9204C133.903 22.3547 134.516 22.5719 135.307 22.5719C136.207 22.5719 136.905 22.2772 137.401 21.6877C137.898 21.0827 138.146 20.245 138.146 19.1747V13.311H141.078V24.8522H138.192V23.3398H137.774C137.588 23.7276 137.238 24.1076 136.727 24.4799C136.215 24.8522 135.439 25.0384 134.4 25.0384Z" fill="white"/>
<path d="M143.293 24.8523V13.3111H146.178V14.5676H146.597C146.799 14.1798 147.133 13.8463 147.598 13.5671C148.063 13.2723 148.676 13.125 149.436 13.125C150.258 13.125 150.918 13.2879 151.414 13.6136C151.91 13.9239 152.29 14.3349 152.554 14.8469H152.973C153.237 14.3505 153.609 13.9394 154.09 13.6136C154.571 13.2879 155.253 13.125 156.137 13.125C156.851 13.125 157.495 13.2801 158.069 13.5904C158.658 13.8851 159.124 14.3427 159.465 14.9632C159.822 15.5682 160 16.336 160 17.2668V24.8523H157.068V17.4762C157.068 16.8402 156.905 16.3671 156.58 16.0568C156.254 15.7311 155.796 15.5682 155.207 15.5682C154.54 15.5682 154.02 15.7853 153.648 16.2197C153.291 16.6385 153.113 17.2435 153.113 18.0346V24.8523H150.181V17.4762C150.181 16.8402 150.018 16.3671 149.692 16.0568C149.366 15.7311 148.909 15.5682 148.319 15.5682C147.652 15.5682 147.132 15.7853 146.76 16.2197C146.403 16.6385 146.225 17.2435 146.225 18.0346V24.8523H143.293Z" fill="white"/>
<path d="M38.7812 16.127C38.7812 12.0128 37.1468 8.06701 34.2376 5.15782C31.3284 2.24863 27.3827 0.614258 23.2685 0.614258C19.1543 0.614257 15.2086 2.24863 12.2994 5.15782C9.39023 8.06701 7.75586 12.0128 7.75586 16.127H12.6036C14.21 16.127 15.4628 14.7808 16.0512 13.286C16.4375 12.3046 17.0237 11.4027 17.7839 10.6424C19.2385 9.18778 21.2114 8.3706 23.2685 8.3706C25.3256 8.3706 27.2985 9.18778 28.7531 10.6424C30.2077 12.097 31.0248 14.0699 31.0248 16.127H38.7812Z" fill="url(#paint0_linear_289_127)"/>
<path d="M29.8444 22.0634C30.624 20.1813 31.0253 18.1641 31.0253 16.127H38.7808C38.7808 24.6944 31.8355 31.6396 23.2681 31.6396C21.9264 31.6396 20.6244 31.4693 19.3828 31.1491C20.0853 30.9681 20.7758 30.7376 21.449 30.4588C23.3311 29.6792 25.0412 28.5366 26.4817 27.0961C27.9222 25.6556 29.0649 23.9455 29.8444 22.0634Z" fill="#FBCF8E"/>
<path d="M0 16.127C-2.91433e-07 18.1642 0.401247 20.1814 1.18083 22.0635C1.96042 23.9456 3.10307 25.6557 4.54356 27.0962C5.98404 28.5366 7.69415 29.6793 9.57623 30.4589C11.4583 31.2385 13.4755 31.6397 15.5127 31.6397C17.5498 31.6397 19.567 31.2385 21.4491 30.4589C23.3312 29.6793 25.0413 28.5366 26.4818 27.0962C27.9223 25.6557 29.0649 23.9456 29.8445 22.0635C30.6241 20.1814 31.0254 18.1642 31.0254 16.127H26.1776C24.5712 16.127 23.3184 17.4732 22.73 18.9679C22.7133 19.0105 22.6961 19.0529 22.6786 19.0953C22.2888 20.0363 21.7175 20.8914 20.9972 21.6116C20.277 22.3318 19.4219 22.9032 18.4809 23.293C17.5399 23.6828 16.5313 23.8834 15.5127 23.8834C14.4941 23.8834 13.4855 23.6828 12.5445 23.293C11.6034 22.9032 10.7484 22.3318 10.0281 21.6116C9.30787 20.8914 8.73655 20.0363 8.34676 19.0953C7.95696 18.1542 7.75634 17.1456 7.75634 16.127H0Z" fill="url(#paint1_linear_289_127)"/>
<path d="M0.00195312 16.127C0.00195312 7.5595 6.9472 0.614258 15.5146 0.614258C16.856 0.614258 18.1576 0.784504 19.3991 1.10458C16.7352 1.79083 14.2778 3.17961 12.2995 5.15783C9.39029 8.06699 7.75594 12.0128 7.75594 16.127H0.00195312Z" fill="#73E5E2"/>
</g>
<defs>
<linearGradient id="paint0_linear_289_127" x1="38.7812" y1="8.3706" x2="7.75586" y2="8.3706" gradientUnits="userSpaceOnUse">
<stop stop-color="#73E5E2"/>
<stop offset="1" stop-color="#394F87"/>
</linearGradient>
<linearGradient id="paint1_linear_289_127" x1="1.01712e-06" y1="23.8834" x2="31.0254" y2="23.8834" gradientUnits="userSpaceOnUse">
<stop stop-color="#FBDC8E"/>
<stop offset="1" stop-color="#FB958E"/>
</linearGradient>
<clipPath id="clip0_289_127">
<rect width="160" height="32" fill="white" transform="translate(0 0.614258)"/>
</clipPath>
</defs>
</svg>
