<svg width="153" height="39" viewBox="0 0 153 39" fill="none" xmlns="http://www.w3.org/2000/svg">
<g clip-path="url(#clip0_289_167)">
<path d="M0.878906 28.7962L0.878909 10.0083L10.2728 15.2272V23.6295L17.788 27.8568L25.3031 23.6295V15.2272L34.6971 10.0083V28.7962L17.788 38.1901L0.878906 28.7962Z" fill="white"/>
<path fill-rule="evenodd" clip-rule="evenodd" d="M5.57588 12.6177L0.878906 10.0082L17.788 0.614258L34.6971 10.0082L30.0001 12.6177V26.4476L17.788 33.4931L5.57587 26.4476L5.57588 12.6177ZM29.4913 12.9004L25.3031 15.2271V15.1749L17.788 10.9476L10.2728 15.1749V15.2271L6.08471 12.9004V26.1586L17.788 32.9105L29.4913 26.1586V12.9004Z" fill="url(#paint0_linear_289_167)"/>
<path d="M43.7002 27.3111V11.5293H46.6762V24.6056H53.8908V27.3111H43.7002Z" fill="white"/>
<path d="M60.3159 27.6268C59.2037 27.6268 58.2042 27.4014 57.3174 26.9504C56.4306 26.4995 55.7317 25.8457 55.2207 24.989C54.7096 24.1323 54.4541 23.1027 54.4541 21.9003V21.5395C54.4541 20.3371 54.7096 19.3075 55.2207 18.4508C55.7317 17.5941 56.4306 16.9403 57.3174 16.4894C58.2042 16.0384 59.2037 15.813 60.3159 15.813C61.4282 15.813 62.4277 16.0384 63.3145 16.4894C64.2013 16.9403 64.9002 17.5941 65.4112 18.4508C65.9222 19.3075 66.1778 20.3371 66.1778 21.5395V21.9003C66.1778 23.1027 65.9222 24.1323 65.4112 24.989C64.9002 25.8457 64.2013 26.4995 63.3145 26.9504C62.4277 27.4014 61.4282 27.6268 60.3159 27.6268ZM60.3159 25.1017C61.1877 25.1017 61.9092 24.8237 62.4803 24.2675C63.0515 23.6964 63.337 22.8847 63.337 21.8326V21.6072C63.337 20.5551 63.0515 19.7509 62.4803 19.1948C61.9242 18.6237 61.2027 18.3381 60.3159 18.3381C59.4442 18.3381 58.7227 18.6237 58.1516 19.1948C57.5804 19.7509 57.2949 20.5551 57.2949 21.6072V21.8326C57.2949 22.8847 57.5804 23.6964 58.1516 24.2675C58.7227 24.8237 59.4442 25.1017 60.3159 25.1017Z" fill="white"/>
<path d="M67.2441 21.765V21.4043C67.2441 20.2319 67.477 19.2324 67.943 18.4057C68.4089 17.564 69.0252 16.9252 69.7917 16.4894C70.5733 16.0384 71.4225 15.813 72.3393 15.813C73.3614 15.813 74.1355 15.9934 74.6615 16.3541C75.1876 16.7148 75.5709 17.0906 75.8113 17.4814H76.2172V16.1286H79.0128V29.2952C79.0128 30.0617 78.7873 30.6704 78.3364 31.1214C77.8855 31.5873 77.2843 31.8203 76.5328 31.8203H69.0477V29.3403H75.5408C75.9616 29.3403 76.1721 29.1148 76.1721 28.6639V25.7555H75.7662C75.6159 25.996 75.4055 26.244 75.135 26.4995C74.8644 26.74 74.5037 26.9429 74.0528 27.1083C73.6019 27.2736 73.0307 27.3563 72.3393 27.3563C71.4225 27.3563 70.5733 27.1383 69.7917 26.7024C69.0252 26.2515 68.4089 25.6127 67.943 24.7861C67.477 23.9444 67.2441 22.9374 67.2441 21.765ZM73.151 24.8763C74.0227 24.8763 74.7517 24.5982 75.3379 24.0421C75.9241 23.486 76.2172 22.7044 76.2172 21.6974V21.4719C76.2172 20.4498 75.9241 19.6683 75.3379 19.1272C74.7667 18.5711 74.0378 18.293 73.151 18.293C72.2792 18.293 71.5502 18.5711 70.9641 19.1272C70.3779 19.6683 70.0848 20.4498 70.0848 21.4719V21.6974C70.0848 22.7044 70.3779 23.486 70.9641 24.0421C71.5502 24.5982 72.2792 24.8763 73.151 24.8763Z" fill="white"/>
<path d="M86.4682 27.6268C85.3559 27.6268 84.3564 27.4014 83.4696 26.9504C82.5828 26.4995 81.8839 25.8457 81.3729 24.989C80.8619 24.1323 80.6064 23.1027 80.6064 21.9003V21.5395C80.6064 20.3371 80.8619 19.3075 81.3729 18.4508C81.8839 17.5941 82.5828 16.9403 83.4696 16.4894C84.3564 16.0384 85.3559 15.813 86.4682 15.813C87.5804 15.813 88.5799 16.0384 89.4667 16.4894C90.3535 16.9403 91.0524 17.5941 91.5634 18.4508C92.0745 19.3075 92.33 20.3371 92.33 21.5395V21.9003C92.33 23.1027 92.0745 24.1323 91.5634 24.989C91.0524 25.8457 90.3535 26.4995 89.4667 26.9504C88.5799 27.4014 87.5804 27.6268 86.4682 27.6268ZM86.4682 25.1017C87.3399 25.1017 88.0614 24.8237 88.6325 24.2675C89.2037 23.6964 89.4893 22.8847 89.4893 21.8326V21.6072C89.4893 20.5551 89.2037 19.7509 88.6325 19.1948C88.0764 18.6237 87.355 18.3381 86.4682 18.3381C85.5964 18.3381 84.875 18.6237 84.3038 19.1948C83.7327 19.7509 83.4471 20.5551 83.4471 21.6072V21.8326C83.4471 22.8847 83.7327 23.6964 84.3038 24.2675C84.875 24.8237 85.5964 25.1017 86.4682 25.1017Z" fill="white"/>
<path d="M93.938 27.3114V16.1288H96.7787V27.3114H93.938ZM95.3583 14.8212C94.8473 14.8212 94.4114 14.6559 94.0507 14.3252C93.705 13.9945 93.5322 13.5586 93.5322 13.0176C93.5322 12.4765 93.705 12.0406 94.0507 11.7099C94.4114 11.3793 94.8473 11.2139 95.3583 11.2139C95.8844 11.2139 96.3203 11.3793 96.666 11.7099C97.0117 12.0406 97.1845 12.4765 97.1845 13.0176C97.1845 13.5586 97.0117 13.9945 96.666 14.3252C96.3203 14.6559 95.8844 14.8212 95.3583 14.8212Z" fill="white"/>
<path d="M98.9121 31.8203V16.1286H101.708V17.4814H102.114C102.369 17.0455 102.767 16.6622 103.309 16.3315C103.85 15.9858 104.624 15.813 105.631 15.813C106.533 15.813 107.367 16.0384 108.133 16.4894C108.9 16.9252 109.516 17.5715 109.982 18.4283C110.448 19.285 110.681 20.3221 110.681 21.5395V21.9003C110.681 23.1177 110.448 24.1548 109.982 25.0115C109.516 25.8683 108.9 26.5221 108.133 26.973C107.367 27.4089 106.533 27.6268 105.631 27.6268C104.954 27.6268 104.383 27.5441 103.917 27.3788C103.466 27.2285 103.098 27.0331 102.813 26.7926C102.542 26.5371 102.324 26.2816 102.159 26.0261H101.753V31.8203H98.9121ZM104.774 25.1468C105.661 25.1468 106.39 24.8687 106.961 24.3126C107.547 23.7415 107.84 22.9148 107.84 21.8326V21.6072C107.84 20.525 107.547 19.7058 106.961 19.1497C106.375 18.5786 105.646 18.293 104.774 18.293C103.902 18.293 103.173 18.5786 102.587 19.1497C102.001 19.7058 101.708 20.525 101.708 21.6072V21.8326C101.708 22.9148 102.001 23.7415 102.587 24.3126C103.173 24.8687 103.902 25.1468 104.774 25.1468Z" fill="white"/>
<path d="M116.919 27.6268C115.461 27.6268 114.266 27.3112 113.334 26.6799C112.403 26.0486 111.839 25.1468 111.643 23.9744L114.259 23.2981C114.364 23.8241 114.537 24.2375 114.777 24.5381C115.033 24.8387 115.341 25.0566 115.702 25.1919C116.077 25.3121 116.483 25.3723 116.919 25.3723C117.58 25.3723 118.069 25.2595 118.385 25.0341C118.7 24.7936 118.858 24.5005 118.858 24.1548C118.858 23.8091 118.708 23.5461 118.407 23.3657C118.107 23.1703 117.626 23.0125 116.964 22.8923L116.333 22.7795C115.551 22.6292 114.837 22.4263 114.191 22.1708C113.545 21.9003 113.026 21.532 112.635 21.0661C112.245 20.6001 112.049 19.9989 112.049 19.2624C112.049 18.1502 112.455 17.301 113.267 16.7148C114.078 16.1136 115.146 15.813 116.468 15.813C117.716 15.813 118.753 16.0911 119.579 16.6472C120.406 17.2033 120.947 17.9323 121.203 18.8341L118.565 19.6457C118.445 19.0746 118.197 18.6687 117.821 18.4283C117.46 18.1878 117.009 18.0675 116.468 18.0675C115.927 18.0675 115.514 18.1652 115.228 18.3606C114.943 18.541 114.8 18.7965 114.8 19.1272C114.8 19.4879 114.95 19.7584 115.251 19.9388C115.551 20.1041 115.957 20.2319 116.468 20.3221L117.099 20.4348C117.941 20.5851 118.7 20.788 119.377 21.0435C120.068 21.284 120.609 21.6372 121 22.1032C121.406 22.5541 121.609 23.1703 121.609 23.9519C121.609 25.1243 121.18 26.0336 120.323 26.6799C119.482 27.3112 118.347 27.6268 116.919 27.6268Z" fill="white"/>
<path d="M127.344 27.4913C126.473 27.4913 125.706 27.2959 125.045 26.9052C124.399 26.4993 123.895 25.9432 123.534 25.2368C123.174 24.5304 122.993 23.7187 122.993 22.8019V16.1284H125.834V22.5764C125.834 23.4181 126.037 24.0494 126.443 24.4702C126.863 24.8911 127.457 25.1015 128.224 25.1015C129.095 25.1015 129.772 24.8159 130.253 24.2448C130.734 23.6586 130.974 22.847 130.974 21.8099V16.1284H133.815V27.311H131.019V25.8455H130.614C130.433 26.2213 130.095 26.5895 129.599 26.9502C129.103 27.311 128.351 27.4913 127.344 27.4913Z" fill="white"/>
<path d="M135.962 27.3111V16.1285H138.757V17.346H139.163C139.358 16.9702 139.682 16.6471 140.132 16.3765C140.583 16.091 141.177 15.9482 141.914 15.9482C142.71 15.9482 143.349 16.106 143.83 16.4216C144.311 16.7222 144.679 17.1205 144.935 17.6165H145.34C145.596 17.1356 145.957 16.7373 146.423 16.4216C146.889 16.106 147.55 15.9482 148.407 15.9482C149.098 15.9482 149.722 16.0985 150.278 16.3991C150.849 16.6846 151.3 17.128 151.631 17.7293C151.976 18.3154 152.149 19.0594 152.149 19.9613V27.3111H149.308V20.1642C149.308 19.5479 149.151 19.0895 148.835 18.7889C148.519 18.4733 148.076 18.3154 147.505 18.3154C146.859 18.3154 146.355 18.5259 145.994 18.9467C145.649 19.3525 145.476 19.9387 145.476 20.7053V27.3111H142.635V20.1642C142.635 19.5479 142.477 19.0895 142.162 18.7889C141.846 18.4733 141.403 18.3154 140.831 18.3154C140.185 18.3154 139.682 18.5259 139.321 18.9467C138.975 19.3525 138.802 19.9387 138.802 20.7053V27.3111H135.962Z" fill="white"/>
</g>
<defs>
<linearGradient id="paint0_linear_289_167" x1="5.57587" y1="7.92064" x2="30.9395" y2="7.92065" gradientUnits="userSpaceOnUse">
<stop stop-color="#64C2DB"/>
<stop offset="0.307292" stop-color="#7476ED"/>
<stop offset="0.604167" stop-color="#C994DF"/>
<stop offset="1" stop-color="#E56F8C"/>
</linearGradient>
<clipPath id="clip0_289_167">
<rect width="153" height="38" fill="white" transform="translate(0 0.614258)"/>
</clipPath>
</defs>
</svg>
