<svg width="218" height="41" viewBox="0 0 218 41" fill="none" xmlns="http://www.w3.org/2000/svg">
<g clip-path="url(#clip0_289_115)">
<path d="M122.355 30.1378H127.018V12.5492H122.355V30.1378ZM122.355 9.8064H127.018V5.62354H122.355V9.8064Z" fill="white"/>
<path d="M130.023 35.8979H134.686V28.1493H134.754C135.748 29.6579 137.36 30.6522 139.828 30.6522C144.354 30.6522 147.44 27.0522 147.44 21.3608C147.44 15.875 144.457 12.0693 139.794 12.0693C137.394 12.0693 135.748 13.2008 134.617 14.7436H134.514V12.5493H130.023V35.8979ZM138.834 26.7779C136.057 26.7779 134.583 24.6865 134.583 21.4979C134.583 18.3436 135.748 15.8408 138.663 15.8408C141.543 15.8408 142.708 18.1722 142.708 21.4979C142.708 24.8236 141.2 26.7779 138.834 26.7779Z" fill="white"/>
<path d="M156.741 30.6522C161.13 30.6522 164.147 28.5265 164.147 24.995C164.147 20.8808 160.89 20.0579 157.941 19.4408C155.438 18.9265 153.107 18.7893 153.107 17.2808C153.107 16.0122 154.307 15.3265 156.124 15.3265C158.113 15.3265 159.313 16.0122 159.518 17.8979H163.735C163.393 14.3665 160.821 12.0693 156.193 12.0693C152.181 12.0693 149.027 13.8865 149.027 17.6922C149.027 21.5322 152.113 22.3893 155.267 23.0065C157.667 23.4865 159.895 23.6579 159.895 25.3379C159.895 26.5722 158.73 27.3608 156.673 27.3608C154.581 27.3608 153.141 26.4693 152.833 24.4465H148.513C148.787 28.1836 151.633 30.6522 156.741 30.6522Z" fill="white"/>
<path d="M181.85 30.1379V12.5493H177.187V22.6979C177.187 25.0293 175.85 26.675 173.656 26.675C171.667 26.675 170.742 25.5436 170.742 23.4865V12.5493H166.113V24.275C166.113 28.115 168.307 30.6179 172.216 30.6179C174.685 30.6179 176.056 29.6922 177.256 28.0808H177.359V30.1379H181.85Z" fill="white"/>
<path d="M184.866 30.1379H189.529V19.9208C189.529 17.5893 190.798 16.0808 192.684 16.0808C194.398 16.0808 195.392 17.1093 195.392 19.0979V30.1379H200.055V19.9208C200.055 17.5893 201.255 16.0808 203.209 16.0808C204.924 16.0808 205.918 17.1093 205.918 19.0979V30.1379H210.581V18.3093C210.581 14.4693 208.489 12.0693 204.786 12.0693C202.558 12.0693 200.706 13.235 199.506 15.155H199.438C198.581 13.3036 196.798 12.0693 194.569 12.0693C192.135 12.0693 190.421 13.3036 189.461 14.915H189.358V12.5493H184.866V30.1379Z" fill="white"/>
<path d="M0.824219 30.1378H5.48707V5.62354H0.824219V30.1378Z" fill="white"/>
<path d="M16.8888 30.6522C22.3402 30.6522 26.0773 26.6065 26.0773 21.3608C26.0773 16.115 22.3402 12.0693 16.8888 12.0693C11.4373 12.0693 7.7002 16.115 7.7002 21.3608C7.7002 26.6065 11.4373 30.6522 16.8888 30.6522ZM16.8888 27.0865C14.0088 27.0865 12.4316 24.7893 12.4316 21.3608C12.4316 17.9322 14.0088 15.6008 16.8888 15.6008C19.7345 15.6008 21.3459 17.9322 21.3459 21.3608C21.3459 24.7893 19.7345 27.0865 16.8888 27.0865Z" fill="white"/>
<path d="M35.9934 36.1379C38.5991 36.1379 40.862 35.5208 42.3362 34.1493C43.6391 32.9493 44.4277 31.2693 44.4277 28.8008V12.5493H39.9363V14.4008H39.8677C38.8048 12.9265 37.1934 12.0693 34.9991 12.0693C30.542 12.0693 27.3877 15.4293 27.3877 20.675C27.3877 25.9893 31.2277 29.075 35.1363 29.075C37.3648 29.075 38.702 28.1836 39.7305 27.0179H39.8334V28.9379C39.8334 31.3379 38.5648 32.6065 35.9248 32.6065C33.7648 32.6065 32.7705 31.7493 32.3934 30.6522H27.7648C28.2448 34.0808 31.1934 36.1379 35.9934 36.1379ZM35.9248 25.3379C33.5248 25.3379 31.9477 23.5893 31.9477 20.6065C31.9477 17.6579 33.5248 15.8065 35.8905 15.8065C38.702 15.8065 40.0734 18.0008 40.0734 20.5722C40.0734 23.1779 38.8734 25.3379 35.9248 25.3379Z" fill="white"/>
<path d="M55.7609 30.6522C61.2123 30.6522 64.9495 26.6065 64.9495 21.3608C64.9495 16.115 61.2123 12.0693 55.7609 12.0693C50.3095 12.0693 46.5723 16.115 46.5723 21.3608C46.5723 26.6065 50.3095 30.6522 55.7609 30.6522ZM55.7609 27.0865C52.8809 27.0865 51.3038 24.7893 51.3038 21.3608C51.3038 17.9322 52.8809 15.6008 55.7609 15.6008C58.6066 15.6008 60.2181 17.9322 60.2181 21.3608C60.2181 24.7893 58.6066 27.0865 55.7609 27.0865Z" fill="white"/>
<path d="M212.275 9.66197C212.275 8.87299 212.915 8.2334 213.704 8.2334H216.561C217.35 8.2334 217.99 8.87299 217.99 9.66197C217.99 10.4509 217.35 11.0905 216.561 11.0905H213.704C212.915 11.0905 212.275 10.4509 212.275 9.66197Z" fill="white"/>
<path fill-rule="evenodd" clip-rule="evenodd" d="M93.2275 0.614258C104.273 0.614258 113.228 9.56857 113.228 20.6143C113.228 31.66 104.273 40.6143 93.2275 40.6143C82.1818 40.6143 73.2275 31.66 73.2275 20.6143C73.2275 9.56857 82.1818 0.614258 93.2275 0.614258ZM92.5046 2.11085C90.2229 2.43195 88.0503 4.26534 86.3638 7.33166C85.8746 8.22109 85.4332 9.20372 85.0486 10.2647C87.3418 9.68843 89.8609 9.34868 92.5046 9.29613V2.11085ZM83.3582 10.7451C83.8366 9.24384 84.4217 7.86266 85.097 6.63491C85.933 5.11485 86.9252 3.80221 88.0431 2.79403C81.9642 4.55949 77.1727 9.35105 75.4072 15.43C76.4154 14.3121 77.728 13.3199 79.2481 12.4839C80.4759 11.8086 81.857 11.2234 83.3582 10.7451ZM82.8779 12.4354C82.3016 14.7286 81.9619 17.2477 81.9093 19.8914H74.724C75.0451 17.6097 76.8785 15.4371 79.9449 13.7507C80.8343 13.2615 81.8169 12.8201 82.8779 12.4354ZM83.3554 19.8914C83.4151 17.0063 83.8305 14.2977 84.5177 11.9045C86.9109 11.2173 89.6195 10.8019 92.5046 10.7422V13.8651C91.4283 16.6205 89.2331 18.8155 86.4776 19.8914H83.3554ZM81.9093 21.3372H74.724C75.0451 23.6189 76.8785 25.7914 79.9449 27.4779C80.8343 27.9671 81.8169 28.4085 82.8779 28.7932C82.3016 26.5 81.9619 23.9809 81.9093 21.3372ZM84.5177 29.3241C83.8305 26.9309 83.4151 24.2223 83.3554 21.3372H86.4776C89.2331 22.4131 91.4283 24.6081 92.5046 27.3635V30.4864C89.6195 30.4267 86.9109 30.0113 84.5177 29.3241ZM83.3582 30.4835C81.857 30.0052 80.4759 29.42 79.2481 28.7447C77.728 27.9087 76.4154 26.9165 75.4072 25.7986C77.1727 31.8775 81.9642 36.6691 88.0431 38.4345C86.9252 37.4263 85.933 36.1137 85.097 34.5936C84.4217 33.3659 83.8366 31.9847 83.3582 30.4835ZM92.5046 39.1177C90.2229 38.7966 88.0503 36.9632 86.3638 33.8969C85.8746 33.0075 85.4332 32.0248 85.0486 30.9639C87.3418 31.5401 89.8609 31.8799 92.5046 31.9324V39.1177ZM98.4118 38.4345C99.5297 37.4263 100.522 36.1137 101.358 34.5936C102.033 33.3659 102.619 31.9847 103.097 30.4835C104.598 30.0052 105.979 29.42 107.207 28.7447C108.727 27.9087 110.04 26.9165 111.048 25.7986C109.282 31.8775 104.491 36.6691 98.4118 38.4345ZM101.407 30.9639C101.022 32.0248 100.58 33.0075 100.091 33.8969C98.4046 36.9632 96.232 38.7966 93.9503 39.1177V31.9324C96.594 31.8799 99.1131 31.5401 101.407 30.9639ZM103.577 28.7932C104.638 28.4085 105.621 27.9671 106.51 27.4779C109.577 25.7915 111.41 23.6189 111.731 21.3372H104.546C104.493 23.9809 104.153 26.5 103.577 28.7932ZM103.1 21.3372C103.04 24.2223 102.625 26.9309 101.937 29.3241C99.544 30.0113 96.8354 30.4267 93.9503 30.4864V27.3658C95.0263 24.6094 97.222 22.4134 99.9782 21.3372H103.1ZM104.546 19.8914H111.731C111.41 17.6097 109.577 15.4371 106.51 13.7507C105.621 13.2615 104.638 12.8201 103.577 12.4354C104.153 14.7286 104.493 17.2477 104.546 19.8914ZM101.937 11.9045C102.625 14.2977 103.04 17.0063 103.1 19.8914H99.9783C97.222 18.8152 95.0263 16.6192 93.9503 13.8628V10.7422C96.8354 10.8019 99.544 11.2173 101.937 11.9045ZM103.097 10.7451C104.598 11.2234 105.979 11.8086 107.207 12.4839C108.727 13.3199 110.04 14.3121 111.048 15.43C109.282 9.35105 104.491 4.55949 98.4118 2.79403C99.5297 3.80221 100.522 5.11485 101.358 6.63491C102.033 7.86266 102.619 9.24384 103.097 10.7451ZM93.9503 2.11085C96.232 2.43195 98.4046 4.26534 100.091 7.33166C100.58 8.2211 101.022 9.20372 101.407 10.2647C99.1131 9.68843 96.594 9.34868 93.9503 9.29613V2.11085Z" fill="white"/>
</g>
<defs>
<clipPath id="clip0_289_115">
<rect width="218" height="40" fill="white" transform="translate(0 0.614258)"/>
</clipPath>
</defs>
</svg>
