<svg width="50" height="57" viewBox="0 0 50 57" fill="none" xmlns="http://www.w3.org/2000/svg">
<g clip-path="url(#clip0_289_219)">
<path d="M1.2278 56.8722C0.242805 56.4176 -0.0223868 55.6296 0.000343886 54.5764C0.197343 44.3704 7.97883 35.3008 18.0258 33.6566C19.276 33.452 20.5641 33.3611 21.837 33.3384C24.0949 33.2853 26.3528 33.255 28.6107 33.3384C37.1726 33.6566 43.4387 37.7178 47.5454 45.1659C49.1593 48.0982 49.864 51.2956 50.0003 54.6371C50.0458 55.6751 49.7276 56.4328 48.7729 56.8722C32.922 56.8722 17.0787 56.8722 1.2278 56.8722Z" fill="white"/>
<path d="M24.9969 29.9894C16.7305 29.9818 9.99464 23.2308 10.0098 14.9568C10.0249 6.71314 16.7608 -0.00757051 25.0121 6.40034e-06C33.286 0.00758331 40.0219 6.75861 39.9992 15.0326C39.9765 23.2838 33.2406 29.997 24.9969 29.9894Z" fill="white"/>
</g>
<defs>
<clipPath id="clip0_289_219">
<rect width="50" height="56.8723" fill="white"/>
</clipPath>
</defs>
</svg>
