<svg width="30" height="32" viewBox="0 0 30 32" fill="none" xmlns="http://www.w3.org/2000/svg">
<path d="M13.3605 0.460449C13.9873 0.56249 14.6214 0.628088 15.241 0.759283C20.1826 1.82342 24.0748 5.8759 24.8984 10.854C25.5106 14.5712 24.636 17.9094 22.3109 20.8759C22.2599 20.9415 22.2162 21.0071 22.1579 21.08C23.0325 21.9838 23.8998 22.8876 24.7672 23.7914C26.3343 25.424 27.9086 27.0567 29.4757 28.6893C30.1681 29.4109 30.1754 30.4313 29.4975 31.0727C28.8197 31.7214 27.8138 31.6776 27.1141 30.9561C24.7308 28.4779 22.3474 25.9998 19.964 23.5217C19.8911 23.4488 19.8328 23.3686 19.7526 23.2811C19.5121 23.4342 19.2934 23.5727 19.0748 23.7112C11.8153 28.1718 2.2016 24.1339 0.313844 15.8249C-1.03455 9.88465 2.01938 3.86424 7.61705 1.46628C8.84883 0.93421 10.1389 0.61351 11.48 0.51147C11.5602 0.504181 11.6331 0.475026 11.7133 0.460449C12.2672 0.460449 12.8138 0.460449 13.3605 0.460449ZM12.5515 22.2826C17.6826 22.2607 21.8372 18.0989 21.808 12.9823C21.7861 7.84383 17.6243 3.71118 12.5004 3.73304C7.39839 3.75491 3.25845 7.92401 3.28032 13.0333C3.29489 18.1427 7.46399 22.3045 12.5515 22.2826Z" fill="white"/>
</svg>
