<svg width="50" height="44" viewBox="0 0 50 44" fill="none" xmlns="http://www.w3.org/2000/svg">
<g clip-path="url(#clip0_289_229)">
<path d="M24.943 43.0068C18.8346 43.0068 12.7332 43.0139 6.6248 43.0068C3.58828 42.9998 1.18879 41.3364 0.325256 38.583C0.112912 37.9035 0.013818 37.1603 0.013818 36.4454C-0.000338327 26.4652 -0.00741647 16.4921 0.00673982 6.51901C0.013818 2.77467 2.77429 0.0212726 6.51863 0.00711633C10.263 -0.00703995 14.0073 0.00711633 17.7516 3.81924e-05C20.1157 -0.00703995 21.949 0.969744 23.2938 2.90915C23.8955 3.77269 24.5183 4.62914 25.0988 5.50683C25.7853 6.54024 26.7338 6.99324 27.9512 6.98617C33.0971 6.97909 38.2358 6.99324 43.3816 6.97909C45.6678 6.97201 47.5082 7.8497 48.8459 9.71125C49.5608 10.7093 49.9713 11.8347 49.9784 13.0663C49.9997 16.57 49.9926 20.0807 49.9997 23.5844C49.9997 27.8738 50.0138 32.1631 49.9997 36.4454C49.9855 39.8287 47.8338 42.3981 44.5707 42.9361C44.1106 43.0139 43.6293 43.0068 43.1551 43.0068C37.0821 43.0139 31.0161 43.0068 24.943 43.0068ZM28.3264 22.0768C28.0857 22.3387 27.93 22.4944 27.7884 22.6572C27.1726 23.3579 27.1797 24.3701 27.8097 25.0284C28.4467 25.7008 29.5297 25.7857 30.2163 25.1345C31.462 23.9454 32.6865 22.7209 33.8686 21.4751C34.4985 20.8098 34.4631 19.8188 33.819 19.1535C32.6582 17.9573 31.4762 16.7752 30.28 15.6073C29.5721 14.9137 28.5104 14.9562 27.8309 15.6427C27.1727 16.3081 27.1656 17.3344 27.8097 18.0564C27.9442 18.2121 28.0928 18.3537 28.3193 18.5943C27.9796 18.5943 27.7884 18.5943 27.5903 18.5943C25.5022 18.5943 23.4142 18.5943 21.3261 18.5943C21.1067 18.5943 20.8873 18.5943 20.6749 18.6297C19.7335 18.7854 19.146 19.5357 19.2027 20.4771C19.2522 21.3619 19.96 22.0555 20.8873 22.0697C22.1189 22.0909 23.3575 22.0768 24.5891 22.0768C25.7853 22.0768 26.9815 22.0768 28.3264 22.0768ZM21.68 27.9092C21.9348 27.6402 22.0835 27.4845 22.225 27.3217C22.855 26.5855 22.8125 25.5592 22.1472 24.908C21.496 24.271 20.4484 24.2214 19.776 24.8656C18.5444 26.0476 17.334 27.258 16.152 28.4896C15.5291 29.1337 15.522 30.1317 16.1308 30.7687C17.327 32.0145 18.5444 33.2319 19.7901 34.4281C20.4555 35.0722 21.5101 35.0015 22.1542 34.3573C22.7984 33.7132 22.8408 32.694 22.2392 31.9862C22.0905 31.8163 21.9348 31.6535 21.7012 31.3916C22.0127 31.3916 22.2038 31.3916 22.402 31.3916C24.5608 31.3916 26.7267 31.3987 28.8856 31.3916C30.0393 31.3845 30.8108 30.6626 30.8037 29.615C30.7896 28.5957 30.0393 27.9092 28.8926 27.9092C26.84 27.9021 24.7873 27.9092 22.7347 27.9092C22.4232 27.9092 22.1259 27.9092 21.68 27.9092Z" fill="white"/>
</g>
<defs>
<clipPath id="clip0_289_229">
<rect width="50" height="43.0139" fill="white"/>
</clipPath>
</defs>
</svg>
