<svg width="70" height="70" viewBox="0 0 70 70" fill="none" xmlns="http://www.w3.org/2000/svg">
<path d="M8.17677 48.1758C8.17677 51.3461 8.17677 54.4768 8.17677 57.651C6.82317 57.651 5.49726 57.651 4.13574 57.651C4.13574 54.4966 4.13574 51.3619 4.13574 48.1758C5.45373 48.1758 6.77963 48.1758 8.17677 48.1758Z" fill="white"/>
<path d="M54.8214 0C56.832 0.823246 58.8426 1.65441 60.8572 2.46578C63.3626 3.47901 65.8798 4.47244 68.3891 5.47775C69.6042 5.96458 69.996 6.55431 69.996 7.87625C69.996 8.652 70.0079 9.42379 69.9921 10.1995C69.9644 11.4384 69.1134 12.3012 67.8667 12.3012C58.807 12.3091 49.7474 12.3091 40.6837 12.3012C39.4093 12.3012 38.5702 11.4225 38.5544 10.1362C38.5465 9.40796 38.5504 8.67971 38.5544 7.95145C38.5544 6.5266 38.9145 5.99228 40.2246 5.46984C44.5506 3.74023 48.8766 2.01062 53.1987 0.277054C53.3807 0.201854 53.5509 0.0989479 53.7251 0.00791583C54.0931 0 54.4573 0 54.8214 0Z" fill="white"/>
<path d="M0 38.6886C0.37996 37.8535 1.05676 37.4023 1.8998 37.0738C6.13081 35.4114 10.3499 33.7214 14.5612 32.0116C15.3488 31.691 16.077 31.6791 16.8647 31.9997C21.2025 33.7531 25.5523 35.4787 29.8981 37.2202C31.034 37.6754 31.4417 38.2928 31.4456 39.5237C31.4496 40.3193 31.4575 41.1188 31.4417 41.9143C31.4179 43.1531 30.563 44.016 29.3202 44.016C20.2606 44.0239 11.2009 44.0199 2.14123 44.0239C1.06072 44.0239 0.45516 43.3906 0.00395791 42.5159C0 41.2415 0 39.9631 0 38.6886Z" fill="white"/>
<path d="M0 63.2951C0.546192 62.1117 1.48422 61.7673 2.75471 61.7713C11.4977 61.8069 20.2447 61.7911 28.9878 61.7911C30.6778 61.7911 31.4417 62.5589 31.4456 64.2529C31.4456 65.4363 31.4535 66.6197 31.4417 67.8071C31.4298 69.137 30.5868 69.9919 29.2609 69.9919C20.2447 69.9958 11.2246 69.9919 2.20852 69.9998C1.1003 69.9998 0.467034 69.3903 0 68.4918C0 66.7582 0 65.0286 0 63.2951Z" fill="white"/>
<path d="M54.3266 38.277C49.866 38.277 45.4015 38.277 40.9409 38.277C39.3459 38.277 38.5583 37.4815 38.5543 35.8864C38.5543 34.6793 38.5464 33.4721 38.5543 32.2649C38.5662 30.9351 39.4092 30.0802 40.7312 30.0762C49.771 30.0723 58.8069 30.0723 67.8468 30.0762C69.1292 30.0762 69.9801 30.939 69.992 32.2254C70.0039 33.4761 69.9999 34.7307 69.996 35.9814C69.9881 37.4419 69.1688 38.2731 67.7162 38.2731C63.2517 38.281 58.7872 38.277 54.3266 38.277Z" fill="white"/>
<path d="M21.8087 11.0742C21.5118 10.7536 21.3179 10.5636 21.1437 10.3578C20.4392 9.49891 20.4907 8.31945 21.2585 7.56744C22.0065 6.83127 23.2058 6.72441 23.9895 7.46058C25.4816 8.86564 26.9302 10.3182 28.3432 11.8064C29.0873 12.59 29.0398 13.7339 28.2759 14.5334C26.9183 15.9463 25.533 17.3316 24.1201 18.6892C23.2691 19.5124 22.0145 19.461 21.2308 18.6536C20.463 17.862 20.459 16.6706 21.2189 15.8078C21.3772 15.6297 21.5395 15.4556 21.7651 15.2102C18.6225 15.2102 15.5829 15.2102 12.4442 15.2102C12.4442 15.4516 12.4442 15.693 12.4442 15.9305C12.4442 19.0533 12.4521 22.1721 12.4403 25.2949C12.4324 26.8662 11.0392 27.8795 9.66181 27.3293C8.84648 27.0048 8.35966 26.3715 8.3557 25.4968C8.33195 21.3489 8.33195 17.205 8.3557 13.0571C8.36362 11.8855 9.28581 11.0781 10.5286 11.0781C13.9918 11.0702 17.4549 11.0742 20.9181 11.0742C21.1596 11.0742 21.4049 11.0742 21.8087 11.0742Z" fill="white"/>
<path d="M57.5559 49.5491C57.5559 49.9568 57.5559 50.2022 57.5559 50.4476C57.5559 53.8633 57.5599 57.2829 57.5559 60.6986C57.5559 62.2026 56.7366 63.0179 55.2326 63.0219C51.3143 63.0258 47.3959 63.0258 43.4776 63.0219C42.0923 63.0219 41.1583 62.1947 41.1543 60.9756C41.1504 59.7566 42.0844 58.9254 43.4697 58.9215C46.5212 58.9175 49.5768 58.9215 52.6283 58.9215C52.8737 58.9215 53.123 58.9215 53.412 58.9215C53.412 55.8185 53.412 52.763 53.412 49.6125C53.1626 49.8381 52.9726 50.0201 52.7708 50.1903C51.8961 50.9265 50.6889 50.8829 49.929 50.0874C49.1849 49.3117 49.1255 48.1045 49.8973 47.301C51.2826 45.8524 52.6995 44.4355 54.1521 43.0502C54.9556 42.2824 56.1152 42.318 56.9345 43.1056C58.3435 44.4672 59.7328 45.8485 61.0903 47.2615C61.8898 48.0926 61.8463 49.3117 61.0745 50.0993C60.2869 50.9027 59.0678 50.9186 58.1813 50.1309C58.0032 49.9845 57.8448 49.8222 57.5559 49.5491Z" fill="white"/>
<path d="M42.7021 16.4373C44.0637 16.4373 45.3737 16.4373 46.7194 16.4373C46.7194 19.5996 46.7194 22.7343 46.7194 25.9204C45.4054 25.9204 44.0755 25.9204 42.7021 25.9204C42.7021 22.7897 42.7021 19.6392 42.7021 16.4373Z" fill="white"/>
<path d="M52.2725 16.4373C53.634 16.4373 54.9441 16.4373 56.2897 16.4373C56.2897 19.5996 56.2897 22.7343 56.2897 25.9204C54.9757 25.9204 53.6459 25.9204 52.2725 25.9204C52.2725 22.7897 52.2725 19.6392 52.2725 16.4373Z" fill="white"/>
<path d="M61.8428 16.4333C63.2003 16.4333 64.5104 16.4333 65.8601 16.4333C65.8601 19.5957 65.8601 22.7264 65.8601 25.9165C64.55 25.9165 63.2201 25.9165 61.8428 25.9165C61.8428 22.7898 61.8428 19.6432 61.8428 16.4333Z" fill="white"/>
<path d="M17.7233 57.6589C16.3618 57.6589 15.0517 57.6589 13.7061 57.6589C13.7061 54.4966 13.7061 51.3619 13.7061 48.1758C15.0201 48.1758 16.3499 48.1758 17.7233 48.1758C17.7233 51.3104 17.7233 54.457 17.7233 57.6589Z" fill="white"/>
<path d="M23.2725 57.6431C23.2725 54.453 23.2725 51.3223 23.2725 48.156C24.6142 48.156 25.9282 48.156 27.2897 48.156C27.2897 51.2986 27.2897 54.4491 27.2897 57.6431C25.9757 57.6431 24.6459 57.6431 23.2725 57.6431Z" fill="white"/>
</svg>
